<svg width="58" height="58" viewBox="0 0 58 58" fill="none" xmlns="http://www.w3.org/2000/svg">
<path fill-rule="evenodd" clip-rule="evenodd" d="M24.1667 25.1333C24.1667 24.5997 24.5997 24.1667 25.1333 24.1667C25.6669 24.1667 26.1 24.5997 26.1 25.1333C26.1 25.6669 25.6669 26.1 25.1333 26.1C24.5997 26.1 24.1667 25.6669 24.1667 25.1333ZM19.3333 38.6667H30.9333V50.2667H19.3333V38.6667ZM24.1667 4.83333C25.23 4.83333 26.1 5.70333 26.1 6.76667C26.1 7.83 25.23 8.7 24.1667 8.7C23.1033 8.7 22.2333 7.83 22.2333 6.76667C22.2333 5.70333 23.1033 4.83333 24.1667 4.83333ZM13.5333 6.76667C13.5333 5.70333 14.4033 4.83333 15.4667 4.83333C16.53 4.83333 17.4 5.70333 17.4 6.76667C17.4 7.83 16.53 8.7 15.4667 8.7C14.4033 8.7 13.5333 7.83 13.5333 6.76667ZM50.2667 50.2667H38.6667V38.6667H50.2667V50.2667ZM8.7 17.4H4.83333C4.30167 17.4 3.86667 17.835 3.86667 18.3667C3.86667 18.8983 4.30167 19.3333 4.83333 19.3333H8.7C9.23167 19.3333 9.66667 18.8983 9.66667 18.3667C9.66667 17.835 9.23167 17.4 8.7 17.4ZM8.7 22.2333H4.83333C4.30167 22.2333 3.86667 22.6683 3.86667 23.2C3.86667 23.7317 4.30167 24.1667 4.83333 24.1667H8.7C9.23167 24.1667 9.66667 23.7317 9.66667 23.2C9.66667 22.6683 9.23167 22.2333 8.7 22.2333ZM8.7 31.9H4.83333C4.30167 31.9 3.86667 32.335 3.86667 32.8667C3.86667 33.3983 4.30167 33.8333 4.83333 33.8333H8.7C9.23167 33.8333 9.66667 33.3983 9.66667 32.8667C9.66667 32.335 9.23167 31.9 8.7 31.9ZM8.7 27.0667H4.83333C4.30167 27.0667 3.86667 27.5017 3.86667 28.0333C3.86667 28.565 4.30167 29 4.83333 29H8.7C9.23167 29 9.66667 28.565 9.66667 28.0333C9.66667 27.5017 9.23167 27.0667 8.7 27.0667ZM8.7 36.7333H4.83333C4.30167 36.7333 3.86667 37.1683 3.86667 37.7C3.86667 38.2317 4.30167 38.6667 4.83333 38.6667H8.7C9.23167 38.6667 9.66667 38.2317 9.66667 37.7C9.66667 37.1683 9.23167 36.7333 8.7 36.7333ZM6.76667 8.7C5.70333 8.7 4.83333 7.83 4.83333 6.76667C4.83333 5.70333 5.70333 4.83333 6.76667 4.83333C7.83 4.83333 8.7 5.70333 8.7 6.76667C8.7 7.83 7.83 8.7 6.76667 8.7ZM8.7 41.5667H4.83333C4.30167 41.5667 3.86667 42.0017 3.86667 42.5333C3.86667 43.065 4.30167 43.5 4.83333 43.5H8.7C9.23167 43.5 9.66667 43.065 9.66667 42.5333C9.66667 42.0017 9.23167 41.5667 8.7 41.5667ZM8.7 46.4H4.83333C4.30167 46.4 3.86667 46.835 3.86667 47.3667C3.86667 47.8983 4.30167 48.3333 4.83333 48.3333H8.7C9.23167 48.3333 9.66667 47.8983 9.66667 47.3667C9.66667 46.835 9.23167 46.4 8.7 46.4ZM50.2667 30.9333H38.6667V19.3333H50.2667V30.9333ZM8.7 51.2333H4.83333C4.30167 51.2333 3.86667 51.6683 3.86667 52.2C3.86667 52.7317 4.30167 53.1667 4.83333 53.1667H8.7C9.23167 53.1667 9.66667 52.7317 9.66667 52.2C9.66667 51.6683 9.23167 51.2333 8.7 51.2333ZM27.0667 22.2333C27.0667 21.6997 27.4997 21.2667 28.0333 21.2667C28.5669 21.2667 29 21.6997 29 22.2333C29 22.7669 28.5669 23.2 28.0333 23.2C27.4997 23.2 27.0667 22.7669 27.0667 22.2333ZM27.0667 28.0333C27.0667 27.4997 27.4997 27.0667 28.0333 27.0667C28.5669 27.0667 29 27.4997 29 28.0333C29 28.5669 28.5669 29 28.0333 29C27.4997 29 27.0667 28.5669 27.0667 28.0333ZM21.2667 22.2333C21.2667 21.6997 21.6997 21.2667 22.2333 21.2667C22.7669 21.2667 23.2 21.6997 23.2 22.2333C23.2 22.7669 22.7669 23.2 22.2333 23.2C21.6997 23.2 21.2667 22.7669 21.2667 22.2333ZM19.3333 6.76667C19.3333 4.63033 17.603 2.9 15.4667 2.9C13.3303 2.9 11.6 4.63033 11.6 6.76667C11.6 8.903 13.3303 10.6333 15.4667 10.6333C17.603 10.6333 19.3333 8.903 19.3333 6.76667ZM32.8667 52.2V36.7333H17.4V52.2H32.8667ZM6.76667 2.9C4.63033 2.9 2.9 4.63033 2.9 6.76667C2.9 8.903 4.63033 10.6333 6.76667 10.6333C8.903 10.6333 10.6333 8.903 10.6333 6.76667C10.6333 4.63033 8.903 2.9 6.76667 2.9ZM52.2 36.7333H36.7333V52.2H52.2V36.7333ZM52.2 17.4H36.7333V32.8667H52.2V17.4ZM24.1667 10.6333C26.303 10.6333 28.0333 8.903 28.0333 6.76667C28.0333 4.63033 26.303 2.9 24.1667 2.9C22.0303 2.9 20.3 4.63033 20.3 6.76667C20.3 8.903 22.0303 10.6333 24.1667 10.6333ZM26.1 30.9333C26.1 30.4017 25.665 29.9667 25.1333 29.9667C24.6017 29.9667 24.1667 30.4017 24.1667 30.9333H20.3C20.3 30.4017 19.865 29.9667 19.3333 29.9667V26.1C19.865 26.1 20.3 25.665 20.3 25.1333C20.3 24.6017 19.865 24.1667 19.3333 24.1667V20.3C19.865 20.3 20.3 19.865 20.3 19.3333H24.1667C24.1667 19.865 24.6017 20.3 25.1333 20.3C25.665 20.3 26.1 19.865 26.1 19.3333H29.9667C29.9667 19.865 30.4017 20.3 30.9333 20.3V24.1667C30.4017 24.1667 29.9667 24.6017 29.9667 25.1333C29.9667 25.665 30.4017 26.1 30.9333 26.1V29.9667C30.4017 29.9667 29.9667 30.4017 29.9667 30.9333H26.1ZM32.8667 17.4H17.4V32.8667H32.8667V17.4ZM1.93333 1.93333H56.0667V11.6H13.5333H1.93333V1.93333ZM1.93333 56.0667V13.5333H11.6V56.0667H1.93333ZM56.0667 56.0667H13.5333V13.5333H56.0667V56.0667ZM0 0V11.6V13.5333V58H13.5333H58V13.5333V0H0ZM21.2667 28.0333C21.2667 27.4997 21.6997 27.0667 22.2333 27.0667C22.7669 27.0667 23.2 27.4997 23.2 28.0333C23.2 28.5669 22.7669 29 22.2333 29C21.6997 29 21.2667 28.5669 21.2667 28.0333Z" fill="url(#paint0_linear)"/>
<defs>
<linearGradient id="paint0_linear" x1="4.83333" y1="-5.95384e-07" x2="49.3" y2="58" gradientUnits="userSpaceOnUse">
<stop stop-color="#6C63FF"/>
<stop offset="1" stop-color="#682FA0"/>
</linearGradient>
</defs>
</svg>
