<svg width="0" height="0" viewBox="0 0 26 153" fill="none" xmlns="http://www.w3.org/2000/svg">
<path d="M3.64644 152.354C3.8417 152.549 4.15828 152.549 4.35355 152.354L7.53553 149.172C7.73079 148.976 7.73079 148.66 7.53553 148.464C7.34027 148.269 7.02368 148.269 6.82842 148.464L3.99999 151.293L1.17157 148.464C0.976304 148.269 0.659722 148.269 0.46446 148.464C0.269197 148.66 0.269197 148.976 0.46446 149.172L3.64644 152.354ZM3.5 1.88549e-06L3.49999 152L4.49999 152L4.5 1.9292e-06L3.5 1.88549e-06Z" fill="#555"/>
<path d="M11.885 7.215C11.885 7.345 11.845 7.45 11.765 7.53C11.685 7.62 11.58 7.665 11.45 7.665C11.32 7.665 11.21 7.62 11.12 7.53C11.04 7.45 11 7.345 11 7.215L11 1.86C11 1.73 11.04 1.62 11.12 1.53C11.21 1.45 11.32 1.41 11.45 1.41L21.05 1.41C21.18 1.41 21.285 1.455 21.365 1.545C21.455 1.635 21.5 1.75 21.5 1.89C21.5 2.02 21.455 2.13 21.365 2.22C21.285 2.31 21.18 2.355 21.05 2.355L11.885 2.355L11.885 7.215ZM11.885 15.3484C11.885 15.4784 11.84 15.5834 11.75 15.6634C11.66 15.7534 11.555 15.7984 11.435 15.7984C11.305 15.7984 11.2 15.7534 11.12 15.6634C11.04 15.5834 11 15.4784 11 15.3484L11 9.8434C11 9.7134 11.04 9.6034 11.12 9.5134C11.21 9.4334 11.32 9.3934 11.45 9.3934L21.05 9.3934C21.18 9.3934 21.285 9.4334 21.365 9.5134C21.455 9.6034 21.5 9.7134 21.5 9.8434L21.5 15.3484C21.5 15.4784 21.455 15.5834 21.365 15.6634C21.285 15.7534 21.18 15.7984 21.05 15.7984C20.92 15.7984 20.815 15.7534 20.735 15.6634C20.655 15.5834 20.615 15.4784 20.615 15.3484L20.615 10.3384L16.85 10.3384L16.85 14.6734C16.85 14.8034 16.805 14.9084 16.715 14.9884C16.635 15.0784 16.53 15.1234 16.4 15.1234C16.27 15.1234 16.165 15.0784 16.085 14.9884C16.005 14.9084 15.965 14.8034 15.965 14.6734L15.965 10.3384L11.885 10.3384L11.885 15.3484ZM11.6 25.7488C11.52 25.7688 11.46 25.7788 11.42 25.7788C11.29 25.7788 11.185 25.7338 11.105 25.6438C11.025 25.5538 10.985 25.4488 10.985 25.3288C10.985 25.2288 11.01 25.1388 11.06 25.0588C11.12 24.9888 11.195 24.9338 11.285 24.8938L14.03 23.7688L14.03 18.8938L11.285 17.7838C11.085 17.7038 10.985 17.5688 10.985 17.3788C10.985 17.2388 11.02 17.1338 11.09 17.0638C11.16 16.9938 11.255 16.9538 11.375 16.9438L11.42 16.9438C11.48 16.9438 11.525 16.9488 11.555 16.9588L21.245 20.9188C21.445 20.9988 21.545 21.1488 21.545 21.3688C21.545 21.4688 21.515 21.5538 21.455 21.6238C21.405 21.7038 21.335 21.7638 21.245 21.8038L11.6 25.7488ZM14.915 19.2388L14.915 23.4088L20.045 21.3088L14.915 19.2388ZM11.81 35.2957C11.71 35.4457 11.585 35.5207 11.435 35.5207C11.385 35.5207 11.32 35.5007 11.24 35.4607C11.17 35.4207 11.115 35.3657 11.075 35.2957C11.035 35.2257 11.015 35.1507 11.015 35.0707C11.015 34.9707 11.035 34.8857 11.075 34.8157C11.235 34.5357 11.495 34.3107 11.855 34.1407C12.215 33.9707 12.79 33.8857 13.58 33.8857C14.28 33.8857 14.77 33.6907 15.05 33.3007C15.34 32.9107 15.485 32.4457 15.485 31.9057L15.485 28.5757L11.45 28.5757C11.32 28.5757 11.21 28.5357 11.12 28.4557C11.04 28.3757 11 28.2707 11 28.1407C11 28.0007 11.04 27.8807 11.12 27.7807C11.21 27.6807 11.32 27.6307 11.45 27.6307L21.05 27.6307C21.18 27.6307 21.285 27.6707 21.365 27.7507C21.455 27.8407 21.5 27.9507 21.5 28.0807L21.5 32.1307C21.5 32.7007 21.375 33.2107 21.125 33.6607C20.885 34.1107 20.55 34.4607 20.12 34.7107C19.69 34.9707 19.205 35.1007 18.665 35.1007C18.025 35.1007 17.46 34.9307 16.97 34.5907C16.49 34.2607 16.16 33.8257 15.98 33.2857C15.81 33.7257 15.52 34.0857 15.11 34.3657C14.71 34.6457 14.22 34.7907 13.64 34.8007C13.02 34.8107 12.585 34.8507 12.335 34.9207C12.085 35.0007 11.91 35.1257 11.81 35.2957ZM16.31 32.1757C16.34 32.5257 16.455 32.8507 16.655 33.1507C16.855 33.4507 17.125 33.6907 17.465 33.8707C17.805 34.0507 18.195 34.1407 18.635 34.1407C19.205 34.1407 19.675 33.9457 20.045 33.5557C20.425 33.1757 20.615 32.6757 20.615 32.0557L20.615 28.5757L16.31 28.5757L16.31 32.1757ZM21.5 45.3595C21.5 45.4895 21.46 45.5895 21.38 45.6595C21.3 45.7395 21.2 45.7795 21.08 45.7795L11.48 45.7795C11.33 45.7795 11.21 45.7345 11.12 45.6445C11.04 45.5545 11 45.4445 11 45.3145C11 45.2445 11.015 45.1745 11.045 45.1045C11.075 45.0445 11.11 44.9945 11.15 44.9545L19.82 38.5195L11.405 38.5195C11.295 38.5195 11.2 38.4745 11.12 38.3845C11.04 38.3045 11 38.2095 11 38.0995C11 37.9795 11.04 37.8795 11.12 37.7995C11.2 37.7195 11.295 37.6795 11.405 37.6795L21.05 37.6795C21.19 37.6795 21.3 37.7195 21.38 37.7995C21.46 37.8895 21.5 37.9945 21.5 38.1145C21.5 38.2745 21.445 38.3945 21.335 38.4745L12.62 44.9395L21.08 44.9395C21.2 44.9395 21.3 44.9795 21.38 45.0595C21.46 45.1395 21.5 45.2395 21.5 45.3595ZM21.5 61.8442C21.5 61.9642 21.455 62.0642 21.365 62.1442C21.285 62.2342 21.18 62.2792 21.05 62.2792L11.45 62.2792C11.32 62.2792 11.21 62.2342 11.12 62.1442C11.04 62.0542 11 61.9442 11 61.8142C11 61.6742 11.04 61.5592 11.12 61.4692C11.21 61.3792 11.32 61.3342 11.45 61.3342L19.7 61.3342L14.36 57.8092C14.23 57.7092 14.17 57.5942 14.18 57.4642L14.18 57.4342C14.18 57.3142 14.24 57.2042 14.36 57.1042L19.73 53.5792L11.45 53.5792C11.32 53.5792 11.21 53.5342 11.12 53.4442C11.04 53.3642 11 53.2592 11 53.1292C11 52.9992 11.04 52.8942 11.12 52.8142C11.21 52.7342 11.32 52.6942 11.45 52.6942L21.05 52.6942C21.17 52.6942 21.275 52.7342 21.365 52.8142C21.455 52.9042 21.5 53.0142 21.5 53.1442C21.5 53.2142 21.48 53.2892 21.44 53.3692C21.41 53.4492 21.365 53.5092 21.305 53.5492L15.41 57.4792L21.305 61.4392C21.455 61.5492 21.52 61.6842 21.5 61.8442ZM16.25 74.4614C15.22 74.4614 14.295 74.2464 13.475 73.8164C12.655 73.3864 12.01 72.7914 11.54 72.0314C11.08 71.2714 10.85 70.4064 10.85 69.4364C10.85 68.4664 11.08 67.6014 11.54 66.8414C12.01 66.0814 12.655 65.4864 13.475 65.0564C14.295 64.6264 15.22 64.4114 16.25 64.4114C17.29 64.4114 18.22 64.6264 19.04 65.0564C19.86 65.4864 20.5 66.0814 20.96 66.8414C21.42 67.6014 21.65 68.4664 21.65 69.4364C21.65 70.4064 21.42 71.2714 20.96 72.0314C20.5 72.7914 19.86 73.3864 19.04 73.8164C18.22 74.2464 17.29 74.4614 16.25 74.4614ZM16.25 73.5014C17.12 73.5014 17.895 73.3264 18.575 72.9764C19.265 72.6364 19.8 72.1564 20.18 71.5364C20.56 70.9264 20.75 70.2264 20.75 69.4364C20.75 68.6464 20.56 67.9414 20.18 67.3214C19.8 66.7114 19.265 66.2314 18.575 65.8814C17.895 65.5414 17.12 65.3714 16.25 65.3714C15.38 65.3714 14.6 65.5414 13.91 65.8814C13.23 66.2314 12.7 66.7114 12.32 67.3214C11.94 67.9414 11.75 68.6464 11.75 69.4364C11.75 70.2264 11.94 70.9264 12.32 71.5364C12.7 72.1564 13.23 72.6364 13.91 72.9764C14.6 73.3264 15.38 73.5014 16.25 73.5014ZM11.81 84.2508C11.71 84.4008 11.585 84.4758 11.435 84.4758C11.385 84.4758 11.32 84.4558 11.24 84.4158C11.17 84.3758 11.115 84.3208 11.075 84.2508C11.035 84.1808 11.015 84.1058 11.015 84.0258C11.015 83.9258 11.035 83.8408 11.075 83.7708C11.235 83.4908 11.495 83.2658 11.855 83.0958C12.215 82.9258 12.79 82.8408 13.58 82.8408C14.28 82.8408 14.77 82.6458 15.05 82.2558C15.34 81.8658 15.485 81.4008 15.485 80.8608L15.485 77.5308L11.45 77.5308C11.32 77.5308 11.21 77.4908 11.12 77.4108C11.04 77.3308 11 77.2258 11 77.0958C11 76.9558 11.04 76.8358 11.12 76.7358C11.21 76.6358 11.32 76.5858 11.45 76.5858L21.05 76.5858C21.18 76.5858 21.285 76.6258 21.365 76.7058C21.455 76.7958 21.5 76.9058 21.5 77.0358L21.5 81.0858C21.5 81.6558 21.375 82.1658 21.125 82.6158C20.885 83.0658 20.55 83.4158 20.12 83.6658C19.69 83.9258 19.205 84.0558 18.665 84.0558C18.025 84.0558 17.46 83.8858 16.97 83.5458C16.49 83.2158 16.16 82.7808 15.98 82.2408C15.81 82.6808 15.52 83.0408 15.11 83.3208C14.71 83.6008 14.22 83.7458 13.64 83.7558C13.02 83.7658 12.585 83.8058 12.335 83.8758C12.085 83.9558 11.91 84.0808 11.81 84.2508ZM16.31 81.1308C16.34 81.4808 16.455 81.8058 16.655 82.1058C16.855 82.4058 17.125 82.6458 17.465 82.8258C17.805 83.0058 18.195 83.0958 18.635 83.0958C19.205 83.0958 19.675 82.9008 20.045 82.5108C20.425 82.1308 20.615 81.6308 20.615 81.0108L20.615 77.5308L16.31 77.5308L16.31 81.1308ZM11.885 92.5896C11.885 92.7196 11.84 92.8246 11.75 92.9046C11.66 92.9946 11.555 93.0396 11.435 93.0396C11.305 93.0396 11.2 92.9946 11.12 92.9046C11.04 92.8246 11 92.7196 11 92.5896L11 87.0846C11 86.9546 11.04 86.8446 11.12 86.7546C11.21 86.6746 11.32 86.6346 11.45 86.6346L21.05 86.6346C21.18 86.6346 21.285 86.6746 21.365 86.7546C21.455 86.8446 21.5 86.9546 21.5 87.0846L21.5 92.5896C21.5 92.7196 21.455 92.8246 21.365 92.9046C21.285 92.9946 21.18 93.0396 21.05 93.0396C20.92 93.0396 20.815 92.9946 20.735 92.9046C20.655 92.8246 20.615 92.7196 20.615 92.5896L20.615 87.5796L16.85 87.5796L16.85 91.9146C16.85 92.0446 16.805 92.1496 16.715 92.2296C16.635 92.3196 16.53 92.3646 16.4 92.3646C16.27 92.3646 16.165 92.3196 16.085 92.2296C16.005 92.1496 15.965 92.0446 15.965 91.9146L15.965 87.5796L11.885 87.5796L11.885 92.5896Z" fill="#555"/>
</svg>
