<?xml version="1.0" encoding="UTF-8" standalone="no"?><!DOCTYPE svg PUBLIC "-//W3C//DTD SVG 1.1//EN" "http://www.w3.org/Graphics/SVG/1.1/DTD/svg11.dtd"><svg width="100%" height="100%" viewBox="0 0 273 257" version="1.1" xmlns="http://www.w3.org/2000/svg" xmlns:xlink="http://www.w3.org/1999/xlink" xml:space="preserve" xmlns:serif="http://www.serif.com/" style="fill-rule:evenodd;clip-rule:evenodd;stroke-linecap:round;stroke-linejoin:round;stroke-miterlimit:1.5;"><path d="M185.412,27.885c-26.655,-13.224 -75.462,-27.715 -99.802,-27.884c-17.826,-0.124 -38.447,12.359 -46.237,26.872c-5.701,10.621 -15.434,30.474 -23.52,48.794c-10.668,24.172 -12.714,51.376 -15.435,66.568c-3.028,16.905 10.996,39.267 22.86,54.205c11.863,14.939 30.578,26.257 48.321,35.425c19.428,10.039 48.216,23.242 68.244,24.806c17.998,1.407 37.101,-7.05 51.919,-15.417c14.739,-8.323 27.912,-20.503 36.991,-34.788c11.162,-17.564 27.187,-49.411 29.985,-70.598c2.533,-19.181 -2.33,-40.517 -13.199,-56.523c-12.221,-17.997 -36.495,-39.735 -60.127,-51.46Z" style="fill:#ff00cf;fill-opacity:0.14;"/><g id="Server-2" serif:id="Server 2"><g id="Server"><rect x="21.83" y="64.301" width="113.612" height="136.283" style="fill:#666;"/><path d="M140.858,64.301c0,-2.991 -2.425,-5.416 -5.417,-5.416l-113.611,0c-2.992,0 -5.417,2.425 -5.417,5.416l0,136.284c0,2.991 2.425,5.417 5.417,5.417l113.611,0c2.992,0 5.417,-2.426 5.417,-5.417l0,-136.284Zm-5.417,0l-113.611,0l0,136.284l113.611,0l0,-136.284Z" style="fill:#262626;"/><rect x="23.23" y="203.992" width="13.093" height="9.256" style="fill:#4d4d4d;"/><path d="M41.74,203.992c0,-2.992 -2.425,-5.417 -5.416,-5.417l-13.094,0c-2.991,0 -5.416,2.425 -5.416,5.417l0,9.256c0,2.991 2.425,5.416 5.416,5.416l13.094,0c2.991,0 5.416,-2.425 5.416,-5.416l0,-9.256Zm-5.416,0l-13.094,0l0,9.256l13.094,0l0,-9.256Z" style="fill:#262626;"/><rect x="123.749" y="203.992" width="13.093" height="9.256" style="fill:#595959;"/><path d="M142.259,203.992c0,-2.992 -2.425,-5.417 -5.417,-5.417l-13.093,0c-2.992,0 -5.417,2.425 -5.417,5.417l0,9.256c0,2.991 2.425,5.416 5.417,5.416l13.093,0c2.992,0 5.417,-2.425 5.417,-5.416l0,-9.256Zm-5.417,0l-13.093,0l0,9.256l13.093,0l0,-9.256Z" style="fill:#262626;"/><g><rect x="15.604" y="47.635" width="126.062" height="27.257" style="fill:#b3b3b3;"/><path d="M147.083,47.635c0,-2.992 -2.425,-5.417 -5.416,-5.417l-126.063,0c-2.991,0 -5.416,2.425 -5.416,5.417l0,27.256c0,2.992 2.425,5.417 5.416,5.417l126.063,0c2.991,0 5.416,-2.425 5.416,-5.417l0,-27.256Zm-5.416,0l-126.063,0l0,27.256l126.063,0l0,-27.256Z" style="fill:#262626;"/><path d="M71.184,61.263l60.191,0" style="fill:none;stroke:#262626;stroke-width:4.17px;stroke-dasharray:4.17,12.5,0,0;"/><rect x="26.029" y="58.984" width="3.748" height="4.559" style="fill:#ff637c;"/><path d="M33.944,58.984c0,-2.301 -1.866,-4.167 -4.167,-4.167l-3.748,0c-2.301,0 -4.167,1.866 -4.167,4.167l0,4.558c0,2.302 1.866,4.167 4.167,4.167l3.748,0c2.301,0 4.167,-1.865 4.167,-4.167l0,-4.558Zm-4.167,0l-3.748,0l0,4.558l3.748,0l0,-4.558Z" style="fill:#262626;"/><rect x="38.015" y="58.984" width="3.748" height="4.559" style="fill:#ff637c;"/><path d="M45.93,58.984c0,-2.301 -1.865,-4.167 -4.166,-4.167l-3.749,0c-2.301,0 -4.166,1.866 -4.166,4.167l0,4.558c0,2.302 1.865,4.167 4.166,4.167l3.749,0c2.301,0 4.166,-1.865 4.166,-4.167l0,-4.558Zm-4.166,0l-3.749,0l0,4.558l3.749,0l0,-4.558Z" style="fill:#262626;"/><rect x="50.117" y="58.984" width="3.748" height="4.559" style="fill:#b57dcd;"/><path d="M58.032,58.984c0,-2.301 -1.865,-4.167 -4.166,-4.167l-3.749,0c-2.301,0 -4.166,1.866 -4.166,4.167l0,4.558c0,2.302 1.865,4.167 4.166,4.167l3.749,0c2.301,0 4.166,-1.865 4.166,-4.167l0,-4.558Zm-4.166,0l-3.749,0l0,4.558l3.749,0l0,-4.558Z" style="fill:#262626;"/></g><g><rect x="15.604" y="89.279" width="126.062" height="27.257" style="fill:#b3b3b3;"/><path d="M147.083,89.279c0,-2.991 -2.425,-5.416 -5.416,-5.416l-126.063,0c-2.991,0 -5.416,2.425 -5.416,5.416l0,27.257c0,2.992 2.425,5.417 5.416,5.417l126.063,0c2.991,0 5.416,-2.425 5.416,-5.417l0,-27.257Zm-5.416,0l-126.063,0l0,27.257l126.063,0l0,-27.257Z" style="fill:#262626;"/><path d="M71.184,102.908l60.191,0" style="fill:none;stroke:#262626;stroke-width:4.17px;stroke-dasharray:4.17,12.5,0,0;"/><rect x="26.029" y="100.628" width="3.748" height="4.559" style="fill:#ff637c;"/><path d="M33.944,100.628c0,-2.301 -1.866,-4.166 -4.167,-4.166l-3.748,0c-2.301,0 -4.167,1.865 -4.167,4.166l0,4.559c0,2.301 1.866,4.167 4.167,4.167l3.748,0c2.301,0 4.167,-1.866 4.167,-4.167l0,-4.559Zm-4.167,0l-3.748,0l0,4.559l3.748,0l0,-4.559Z" style="fill:#262626;"/><rect x="38.015" y="100.628" width="4.175" height="4.175" style="fill:#b57dcd;"/><path d="M46.357,100.628c0,-2.301 -1.865,-4.166 -4.167,-4.166l-4.175,0c-2.301,0 -4.166,1.865 -4.166,4.166l0,4.175c0,2.301 1.865,4.167 4.166,4.167l4.175,0c2.302,0 4.167,-1.866 4.167,-4.167l0,-4.175Zm-4.167,0l-4.175,0l0,4.175l4.175,0l0,-4.175Z" style="fill:#262626;"/><rect x="50.117" y="100.628" width="4.559" height="4.559" style="fill:#b57dcd;"/><path d="M58.843,100.628c0,-2.301 -1.866,-4.166 -4.167,-4.166l-4.559,0c-2.301,0 -4.166,1.865 -4.166,4.166l0,4.559c0,2.301 1.865,4.167 4.166,4.167l4.559,0c2.301,0 4.167,-1.866 4.167,-4.167l0,-4.559Zm-4.167,0l-4.559,0l0,4.559l4.559,0l0,-4.559Z" style="fill:#262626;"/></g><g><rect x="15.604" y="130.924" width="126.062" height="27.257" style="fill:#b3b3b3;"/><path d="M147.083,130.924c0,-2.992 -2.425,-5.417 -5.416,-5.417l-126.063,0c-2.991,0 -5.416,2.425 -5.416,5.417l0,27.257c0,2.991 2.425,5.416 5.416,5.416l126.063,0c2.991,0 5.416,-2.425 5.416,-5.416l0,-27.257Zm-5.416,0l-126.063,0l0,27.257l126.063,0l0,-27.257Z" style="fill:#262626;"/><path d="M71.184,144.552l60.191,0" style="fill:none;stroke:#262626;stroke-width:4.17px;stroke-dasharray:4.17,12.5,0,0;"/><rect x="26.029" y="142.273" width="3.748" height="4.559" style="fill:#3a8fed;"/><path d="M33.944,142.273c0,-2.301 -1.866,-4.167 -4.167,-4.167l-3.748,0c-2.301,0 -4.167,1.866 -4.167,4.167l0,4.559c0,2.301 1.866,4.166 4.167,4.166l3.748,0c2.301,0 4.167,-1.865 4.167,-4.166l0,-4.559Zm-4.167,0l-3.748,0l0,4.559l3.748,0l0,-4.559Z" style="fill:#262626;"/><rect x="38.015" y="142.273" width="4.559" height="4.559" style="fill:#3a8fed;"/><path d="M46.741,142.273c0,-2.301 -1.866,-4.167 -4.167,-4.167l-4.559,0c-2.301,0 -4.166,1.866 -4.166,4.167l0,4.559c0,2.301 1.865,4.166 4.166,4.166l4.559,0c2.301,0 4.167,-1.865 4.167,-4.166l0,-4.559Zm-4.167,0l-4.559,0l0,4.559l4.559,0l0,-4.559Z" style="fill:#262626;"/><rect x="50.117" y="142.273" width="3.748" height="4.559" style="fill:#ff637c;"/><path d="M58.032,142.273c0,-2.301 -1.865,-4.167 -4.166,-4.167l-3.749,0c-2.301,0 -4.166,1.866 -4.166,4.167l0,4.559c0,2.301 1.865,4.166 4.166,4.166l3.749,0c2.301,0 4.166,-1.865 4.166,-4.166l0,-4.559Zm-4.166,0l-3.749,0l0,4.559l3.749,0l0,-4.559Z" style="fill:#262626;"/></g><g><rect x="15.604" y="172.569" width="126.062" height="27.257" style="fill:#b3b3b3;"/><path d="M147.083,172.569c0,-2.992 -2.425,-5.417 -5.416,-5.417l-126.063,0c-2.991,0 -5.416,2.425 -5.416,5.417l0,27.256c0,2.992 2.425,5.417 5.416,5.417l126.063,0c2.991,0 5.416,-2.425 5.416,-5.417l0,-27.256Zm-5.416,0l-126.063,0l0,27.256l126.063,0l0,-27.256Z" style="fill:#262626;"/><path d="M71.184,186.197l60.191,0" style="fill:none;stroke:#262626;stroke-width:4.17px;stroke-dasharray:4.17,12.5,0,0;"/><rect x="26.029" y="183.918" width="3.748" height="4.559" style="fill:#b57dcd;"/><path d="M33.944,183.918c0,-2.302 -1.866,-4.167 -4.167,-4.167l-3.748,0c-2.301,0 -4.167,1.865 -4.167,4.167l0,4.558c0,2.301 1.866,4.167 4.167,4.167l3.748,0c2.301,0 4.167,-1.866 4.167,-4.167l0,-4.558Zm-4.167,0l-3.748,0l0,4.558l3.748,0l0,-4.558Z" style="fill:#262626;"/><rect x="38.015" y="183.918" width="3.748" height="4.559" style="fill:#3a8fed;"/><path d="M45.93,183.918c0,-2.302 -1.865,-4.167 -4.166,-4.167l-3.749,0c-2.301,0 -4.166,1.865 -4.166,4.167l0,4.558c0,2.301 1.865,4.167 4.166,4.167l3.749,0c2.301,0 4.166,-1.866 4.166,-4.167l0,-4.558Zm-4.166,0l-3.749,0l0,4.558l3.749,0l0,-4.558Z" style="fill:#262626;"/><rect x="50.117" y="183.918" width="3.748" height="4.559" style="fill:#3a8fed;"/><path d="M58.032,183.918c0,-2.302 -1.865,-4.167 -4.166,-4.167l-3.749,0c-2.301,0 -4.166,1.865 -4.166,4.167l0,4.558c0,2.301 1.865,4.167 4.166,4.167l3.749,0c2.301,0 4.166,-1.866 4.166,-4.167l0,-4.558Zm-4.166,0l-3.749,0l0,4.558l3.749,0l0,-4.558Z" style="fill:#262626;"/></g></g><path d="M271.25,40.423c0,-2.992 -2.425,-5.417 -5.417,-5.417l-33.333,0c-2.992,0 -5.417,2.425 -5.417,5.417l0,33.333c0,2.992 2.425,5.417 5.417,5.417l33.333,0c2.992,0 5.417,-2.425 5.417,-5.417l0,-33.333Zm-5.417,0l-33.333,0l0,33.333l33.333,0l0,-33.333Z" style="fill:#262626;"/><rect x="232.5" y="40.423" width="33.333" height="33.333" style="fill:#ff637c;"/><path d="M272.083,113.756c0,-2.991 -2.425,-5.417 -5.416,-5.417l-33.334,0c-2.991,0 -5.416,2.426 -5.416,5.417l0,33.333c0,2.992 2.425,5.417 5.416,5.417l33.334,0c2.991,0 5.416,-2.425 5.416,-5.417l0,-33.333Zm-5.416,0l-33.334,0l0,33.333l33.334,0l0,-33.333Z" style="fill:#262626;"/><rect x="233.333" y="113.756" width="33.333" height="33.333" style="fill:#3a8fed;"/><path d="M272.083,190.423c0,-2.992 -2.425,-5.417 -5.416,-5.417l-33.334,0c-2.991,0 -5.416,2.425 -5.416,5.417l0,33.333c0,2.992 2.425,5.417 5.416,5.417l33.334,0c2.991,0 5.416,-2.425 5.416,-5.417l0,-33.333Zm-5.416,0l-33.334,0l0,33.333l33.334,0l0,-33.333Z" style="fill:#262626;"/><rect x="233.333" y="190.423" width="33.333" height="33.333" style="fill:#8e44ad;"/><path d="M155.734,154.014l38.333,0l-0.833,-22.559l29.167,0" style="fill:none;stroke:#262626;stroke-width:4.17px;stroke-dasharray:4.17,12.5,0,0;"/><path d="M155.734,192.941l33.333,0l0,22.68l33.334,0.05" style="fill:none;stroke:#262626;stroke-width:4.17px;stroke-dasharray:4.17,12.5,0,0;"/><path d="M217.661,54.795l-24.427,0l0,24.993l-48.214,0" style="fill:none;stroke:#262626;stroke-width:4.17px;stroke-dasharray:4.17,12.5,0,0;"/></g></svg>