<?xml version="1.0" encoding="UTF-8" standalone="no"?>
<!DOCTYPE svg PUBLIC "-//W3C//DTD SVG 1.1//EN" "http://www.w3.org/Graphics/SVG/1.1/DTD/svg11.dtd">
<svg width="100%" height="100%" viewBox="0 0 66 62" version="1.1" xmlns="http://www.w3.org/2000/svg" xmlns:xlink="http://www.w3.org/1999/xlink" xml:space="preserve" xmlns:serif="http://www.serif.com/" style="fill-rule:evenodd;clip-rule:evenodd;stroke-linecap:round;stroke-linejoin:round;stroke-miterlimit:1.5;">
    <g transform="matrix(1,0,0,1,-483,-281.299)">
        <g transform="matrix(0.787646,0.379661,-0.379661,0.787646,284.848,32.2255)">
            <path d="M377,143C368.833,142.907 355.038,145.141 349,148C344.578,150.094 340.967,155.638 340.77,160.155C340.626,163.461 340.586,169.529 340.77,175.023C341.013,182.271 343.75,189.241 344.887,193.322C346.153,197.863 352.286,201.72 357,204C361.714,206.28 367.69,206.848 373.17,207C379.17,207.167 387.862,207 393,205C397.618,203.203 401.333,198.835 404,195C406.652,191.186 408.458,186.604 409,181.99C409.667,176.317 409.833,166.532 408,160.96C406.34,155.916 402.595,151.22 398,148.558C392.833,145.564 384.241,143.082 377,143Z" style="fill:rgb(255,0,207);fill-opacity:0.14;"/>
        </g>
        <g id="Server-2" serif:id="Server 2" transform="matrix(1,0,0,1,-68.5017,138.423)">
            <g id="Server" transform="matrix(0.672332,0,0,0.817701,301.778,-21.5868)">
                <g transform="matrix(0.901235,0,0,5,39.4568,-880)">
                    <rect x="377" y="220" width="45" height="8" style="fill:rgb(102,102,102);"/>
                    <path d="M424.145,220C424.145,219.824 423.185,219.682 422,219.682L377,219.682C375.815,219.682 374.855,219.824 374.855,220L374.855,228C374.855,228.176 375.815,228.318 377,228.318L422,228.318C423.185,228.318 424.145,228.176 424.145,228L424.145,220ZM422,220L377,220L377,228L422,228L422,220Z" style="fill:rgb(38,38,38);"/>
                </g>
                <g transform="matrix(1,0,0,1,-0.60394,0)">
                    <rect x="380.326" y="261" width="4.674" height="2.717" style="fill:rgb(77,77,77);"/>
                    <path d="M386.934,261C386.934,260.122 386.068,259.41 385,259.41L380.326,259.41C379.258,259.41 378.393,260.122 378.393,261L378.393,263.717C378.393,264.595 379.258,265.306 380.326,265.306L385,265.306C386.068,265.306 386.934,264.595 386.934,263.717L386.934,261ZM385,261L380.326,261L380.326,263.717L385,263.717L385,261Z" style="fill:rgb(38,38,38);"/>
                </g>
                <g transform="matrix(1,0,0,1,35.2778,0)">
                    <rect x="380.326" y="261" width="4.674" height="2.717" style="fill:rgb(89,89,89);"/>
                    <path d="M386.934,261C386.934,260.122 386.068,259.41 385,259.41L380.326,259.41C379.258,259.41 378.393,260.122 378.393,261L378.393,263.717C378.393,264.595 379.258,265.306 380.326,265.306L385,265.306C386.068,265.306 386.934,264.595 386.934,263.717L386.934,261ZM385,261L380.326,261L380.326,263.717L385,263.717L385,261Z" style="fill:rgb(38,38,38);"/>
                </g>
                <g transform="matrix(1,0,0,1,0,-4.89176)">
                    <rect x="377" y="220" width="45" height="8" style="fill:rgb(179,179,179);"/>
                    <path d="M423.934,220C423.934,219.122 423.068,218.41 422,218.41L377,218.41C375.932,218.41 375.066,219.122 375.066,220L375.066,228C375.066,228.878 375.932,229.59 377,229.59L422,229.59C423.068,229.59 423.934,228.878 423.934,228L423.934,220ZM422,220L377,220L377,228L422,228L422,220Z" style="fill:rgb(38,38,38);"/>
                    <g transform="matrix(0.848378,0,0,1,63.4274,0)">
                        <path d="M393,224L418.326,224" style="fill:none;stroke:rgb(38,38,38);stroke-width:1.42px;stroke-dasharray:1.42,4.26,0,0;"/>
                    </g>
                    <g transform="matrix(1,0,0,1,-1.33799,0.668997)">
                        <rect x="382.059" y="222.662" width="1.338" height="1.338" style="fill:rgb(255,99,124);"/>
                        <path d="M384.884,222.662C384.884,221.987 384.219,221.439 383.397,221.439L382.059,221.439C381.238,221.439 380.572,221.987 380.572,222.662L380.572,224C380.572,224.675 381.238,225.223 382.059,225.223L383.397,225.223C384.219,225.223 384.884,224.675 384.884,224L384.884,222.662ZM383.397,222.662L382.059,222.662L382.059,224L383.397,224L383.397,222.662Z" style="fill:rgb(38,38,38);"/>
                    </g>
                    <g transform="matrix(1,0,0,1,2.94086,0.668997)">
                        <rect x="382.059" y="222.662" width="1.338" height="1.338" style="fill:rgb(255,99,124);"/>
                        <path d="M384.884,222.662C384.884,221.987 384.219,221.439 383.397,221.439L382.059,221.439C381.238,221.439 380.572,221.987 380.572,222.662L380.572,224C380.572,224.675 381.238,225.223 382.059,225.223L383.397,225.223C384.219,225.223 384.884,224.675 384.884,224L384.884,222.662ZM383.397,222.662L382.059,222.662L382.059,224L383.397,224L383.397,222.662Z" style="fill:rgb(38,38,38);"/>
                    </g>
                    <g transform="matrix(1,0,0,1,7.26086,0.668997)">
                        <rect x="382.059" y="222.662" width="1.338" height="1.338" style="fill:rgb(181,125,205);"/>
                        <path d="M384.884,222.662C384.884,221.987 384.219,221.439 383.397,221.439L382.059,221.439C381.238,221.439 380.572,221.987 380.572,222.662L380.572,224C380.572,224.675 381.238,225.223 382.059,225.223L383.397,225.223C384.219,225.223 384.884,224.675 384.884,224L384.884,222.662ZM383.397,222.662L382.059,222.662L382.059,224L383.397,224L383.397,222.662Z" style="fill:rgb(38,38,38);"/>
                    </g>
                </g>
                <g transform="matrix(1,0,0,1,0,7.33118)">
                    <rect x="377" y="220" width="45" height="8" style="fill:rgb(179,179,179);"/>
                    <path d="M423.934,220C423.934,219.122 423.068,218.41 422,218.41L377,218.41C375.932,218.41 375.066,219.122 375.066,220L375.066,228C375.066,228.878 375.932,229.59 377,229.59L422,229.59C423.068,229.59 423.934,228.878 423.934,228L423.934,220ZM422,220L377,220L377,228L422,228L422,220Z" style="fill:rgb(38,38,38);"/>
                    <g transform="matrix(0.848378,0,0,1,63.4274,0)">
                        <path d="M393,224L418.326,224" style="fill:none;stroke:rgb(38,38,38);stroke-width:1.42px;stroke-dasharray:1.42,4.26,0,0;"/>
                    </g>
                    <g transform="matrix(1,0,0,1,-1.33799,0.668997)">
                        <rect x="382.059" y="222.662" width="1.338" height="1.338" style="fill:rgb(255,99,124);"/>
                        <path d="M384.884,222.662C384.884,221.987 384.219,221.439 383.397,221.439L382.059,221.439C381.238,221.439 380.572,221.987 380.572,222.662L380.572,224C380.572,224.675 381.238,225.223 382.059,225.223L383.397,225.223C384.219,225.223 384.884,224.675 384.884,224L384.884,222.662ZM383.397,222.662L382.059,222.662L382.059,224L383.397,224L383.397,222.662Z" style="fill:rgb(38,38,38);"/>
                    </g>
                    <g transform="matrix(1.11383,0,0,0.915817,-40.5495,19.4134)">
                        <rect x="382.059" y="222.662" width="1.338" height="1.338" style="fill:rgb(181,125,205);"/>
                        <path d="M384.732,222.662C384.732,221.925 384.135,221.327 383.397,221.327L382.059,221.327C381.322,221.327 380.724,221.925 380.724,222.662L380.724,224C380.724,224.737 381.322,225.335 382.059,225.335L383.397,225.335C384.135,225.335 384.732,224.737 384.732,224L384.732,222.662ZM383.397,222.662L382.059,222.662L382.059,224L383.397,224L383.397,222.662Z" style="fill:rgb(38,38,38);"/>
                    </g>
                    <g transform="matrix(1.21622,0,0,1,-75.3465,0.668997)">
                        <rect x="382.059" y="222.662" width="1.338" height="1.338" style="fill:rgb(181,125,205);"/>
                        <path d="M384.62,222.662C384.62,221.987 384.073,221.439 383.397,221.439L382.059,221.439C381.384,221.439 380.836,221.987 380.836,222.662L380.836,224C380.836,224.675 381.384,225.223 382.059,225.223L383.397,225.223C384.073,225.223 384.62,224.675 384.62,224L384.62,222.662ZM383.397,222.662L382.059,222.662L382.059,224L383.397,224L383.397,222.662Z" style="fill:rgb(38,38,38);"/>
                    </g>
                </g>
                <g transform="matrix(1,0,0,1,0,19.5541)">
                    <rect x="377" y="220" width="45" height="8" style="fill:rgb(179,179,179);"/>
                    <path d="M423.934,220C423.934,219.122 423.068,218.41 422,218.41L377,218.41C375.932,218.41 375.066,219.122 375.066,220L375.066,228C375.066,228.878 375.932,229.59 377,229.59L422,229.59C423.068,229.59 423.934,228.878 423.934,228L423.934,220ZM422,220L377,220L377,228L422,228L422,220Z" style="fill:rgb(38,38,38);"/>
                    <g transform="matrix(0.848378,0,0,1,63.4274,0)">
                        <path d="M393,224L418.326,224" style="fill:none;stroke:rgb(38,38,38);stroke-width:1.42px;stroke-dasharray:1.42,4.26,0,0;"/>
                    </g>
                    <g transform="matrix(1,0,0,1,-1.33799,0.668997)">
                        <rect x="382.059" y="222.662" width="1.338" height="1.338" style="fill:rgb(58,143,237);"/>
                        <path d="M384.884,222.662C384.884,221.987 384.219,221.439 383.397,221.439L382.059,221.439C381.238,221.439 380.572,221.987 380.572,222.662L380.572,224C380.572,224.675 381.238,225.223 382.059,225.223L383.397,225.223C384.219,225.223 384.884,224.675 384.884,224L384.884,222.662ZM383.397,222.662L382.059,222.662L382.059,224L383.397,224L383.397,222.662Z" style="fill:rgb(38,38,38);"/>
                    </g>
                    <g transform="matrix(1.21622,0,0,1,-79.6665,0.668997)">
                        <rect x="382.059" y="222.662" width="1.338" height="1.338" style="fill:rgb(58,143,237);"/>
                        <path d="M384.62,222.662C384.62,221.987 384.073,221.439 383.397,221.439L382.059,221.439C381.384,221.439 380.836,221.987 380.836,222.662L380.836,224C380.836,224.675 381.384,225.223 382.059,225.223L383.397,225.223C384.073,225.223 384.62,224.675 384.62,224L384.62,222.662ZM383.397,222.662L382.059,222.662L382.059,224L383.397,224L383.397,222.662Z" style="fill:rgb(38,38,38);"/>
                    </g>
                    <g transform="matrix(1,0,0,1,7.26086,0.668997)">
                        <rect x="382.059" y="222.662" width="1.338" height="1.338" style="fill:rgb(255,99,124);"/>
                        <path d="M384.884,222.662C384.884,221.987 384.219,221.439 383.397,221.439L382.059,221.439C381.238,221.439 380.572,221.987 380.572,222.662L380.572,224C380.572,224.675 381.238,225.223 382.059,225.223L383.397,225.223C384.219,225.223 384.884,224.675 384.884,224L384.884,222.662ZM383.397,222.662L382.059,222.662L382.059,224L383.397,224L383.397,222.662Z" style="fill:rgb(38,38,38);"/>
                    </g>
                </g>
                <g transform="matrix(1,0,0,1,0,31.7771)">
                    <rect x="377" y="220" width="45" height="8" style="fill:rgb(179,179,179);"/>
                    <path d="M423.934,220C423.934,219.122 423.068,218.41 422,218.41L377,218.41C375.932,218.41 375.066,219.122 375.066,220L375.066,228C375.066,228.878 375.932,229.59 377,229.59L422,229.59C423.068,229.59 423.934,228.878 423.934,228L423.934,220ZM422,220L377,220L377,228L422,228L422,220Z" style="fill:rgb(38,38,38);"/>
                    <g transform="matrix(0.848378,0,0,1,63.4274,0)">
                        <path d="M393,224L418.326,224" style="fill:none;stroke:rgb(38,38,38);stroke-width:1.42px;stroke-dasharray:1.42,4.26,0,0;"/>
                    </g>
                    <g transform="matrix(1,0,0,1,-1.33799,0.668997)">
                        <rect x="382.059" y="222.662" width="1.338" height="1.338" style="fill:rgb(181,125,205);"/>
                        <path d="M384.884,222.662C384.884,221.987 384.219,221.439 383.397,221.439L382.059,221.439C381.238,221.439 380.572,221.987 380.572,222.662L380.572,224C380.572,224.675 381.238,225.223 382.059,225.223L383.397,225.223C384.219,225.223 384.884,224.675 384.884,224L384.884,222.662ZM383.397,222.662L382.059,222.662L382.059,224L383.397,224L383.397,222.662Z" style="fill:rgb(38,38,38);"/>
                    </g>
                    <g transform="matrix(1,0,0,1,2.94086,0.668997)">
                        <rect x="382.059" y="222.662" width="1.338" height="1.338" style="fill:rgb(58,143,237);"/>
                        <path d="M384.884,222.662C384.884,221.987 384.219,221.439 383.397,221.439L382.059,221.439C381.238,221.439 380.572,221.987 380.572,222.662L380.572,224C380.572,224.675 381.238,225.223 382.059,225.223L383.397,225.223C384.219,225.223 384.884,224.675 384.884,224L384.884,222.662ZM383.397,222.662L382.059,222.662L382.059,224L383.397,224L383.397,222.662Z" style="fill:rgb(38,38,38);"/>
                    </g>
                    <g transform="matrix(1,0,0,1,7.26086,0.668997)">
                        <rect x="382.059" y="222.662" width="1.338" height="1.338" style="fill:rgb(58,143,237);"/>
                        <path d="M384.884,222.662C384.884,221.987 384.219,221.439 383.397,221.439L382.059,221.439C381.238,221.439 380.572,221.987 380.572,222.662L380.572,224C380.572,224.675 381.238,225.223 382.059,225.223L383.397,225.223C384.219,225.223 384.884,224.675 384.884,224L384.884,222.662ZM383.397,222.662L382.059,222.662L382.059,224L383.397,224L383.397,222.662Z" style="fill:rgb(38,38,38);"/>
                    </g>
                </g>
            </g>
            <g transform="matrix(0.737516,0,0,0.737516,215.681,-9.67702)">
                <path d="M543.61,220C543.61,219.027 542.821,218.237 541.847,218.237L531,218.237C530.027,218.237 529.237,219.027 529.237,220L529.237,230.847C529.237,231.821 530.027,232.61 531,232.61L541.847,232.61C542.821,232.61 543.61,231.821 543.61,230.847L543.61,220ZM541.847,220L531,220L531,230.847L541.847,230.847L541.847,220Z" style="fill:rgb(38,38,38);"/>
                <rect x="531" y="220" width="10.847" height="10.847" style="fill:rgb(255,99,124);"/>
            </g>
            <g transform="matrix(0.737516,0,0,0.737516,215.881,7.92298)">
                <path d="M543.61,220C543.61,219.027 542.821,218.237 541.847,218.237L531,218.237C530.027,218.237 529.237,219.027 529.237,220L529.237,230.847C529.237,231.821 530.027,232.61 531,232.61L541.847,232.61C542.821,232.61 543.61,231.821 543.61,230.847L543.61,220ZM541.847,220L531,220L531,230.847L541.847,230.847L541.847,220Z" style="fill:rgb(38,38,38);"/>
                <rect x="531" y="220" width="10.847" height="10.847" style="fill:rgb(58,143,237);"/>
            </g>
            <g transform="matrix(0.737516,0,0,0.737516,215.881,26.323)">
                <path d="M543.61,220C543.61,219.027 542.821,218.237 541.847,218.237L531,218.237C530.027,218.237 529.237,219.027 529.237,220L529.237,230.847C529.237,231.821 530.027,232.61 531,232.61L541.847,232.61C542.821,232.61 543.61,231.821 543.61,230.847L543.61,220ZM541.847,220L531,220L531,230.847L541.847,230.847L541.847,220Z" style="fill:rgb(38,38,38);"/>
                <rect x="531" y="220" width="10.847" height="10.847" style="fill:rgb(142,68,173);"/>
            </g>
            <g transform="matrix(1,0,0,1,70.5017,-67.8191)">
                <path d="M518.376,247.657L527.576,247.657L527.376,242.243L534.376,242.243" style="fill:none;stroke:rgb(38,38,38);stroke-width:1px;stroke-dasharray:1,3,0,0;"/>
            </g>
            <g transform="matrix(1,0,0,1,70.5017,-70.8191)">
                <path d="M518.376,260L526.376,260L526.376,265.443L534.376,265.455" style="fill:none;stroke:rgb(38,38,38);stroke-width:1px;stroke-dasharray:1,3,0,0;"/>
            </g>
            <g transform="matrix(1,0,0,1,71.5017,-67.8191)">
                <path d="M532.239,223.845L526.376,223.845L526.376,229.843L514.805,229.843" style="fill:none;stroke:rgb(38,38,38);stroke-width:1px;stroke-dasharray:1,3,0,0;"/>
            </g>
        </g>
    </g>
</svg>
