<?xml version="1.0" encoding="UTF-8" standalone="no"?><!DOCTYPE svg PUBLIC "-//W3C//DTD SVG 1.1//EN" "http://www.w3.org/Graphics/SVG/1.1/DTD/svg11.dtd"><svg width="100%" height="100%" viewBox="0 0 267 195" version="1.1" xmlns="http://www.w3.org/2000/svg" xmlns:xlink="http://www.w3.org/1999/xlink" xml:space="preserve" xmlns:serif="http://www.serif.com/" style="fill-rule:evenodd;clip-rule:evenodd;stroke-linejoin:round;stroke-miterlimit:2;"><g id="Server-2" serif:id="Server 2"><g id="Server"><rect x="11.642" y="29.295" width="113.612" height="136.283" style="fill:#fff;"/><path d="M130.67,29.295c0,-2.991 -2.425,-5.416 -5.416,-5.416l-113.612,-0c-2.992,-0 -5.417,2.425 -5.417,5.416l0,136.284c0,2.991 2.425,5.417 5.417,5.417l113.612,-0c2.991,-0 5.416,-2.426 5.416,-5.417l0,-136.284Zm-5.416,0l-113.612,0l-0,136.284l113.612,-0l-0,-136.284Z" style="fill:#262626;"/><rect x="13.043" y="168.986" width="13.093" height="9.39" style="fill:#fff;"/><path d="M31.553,168.986c-0,-2.992 -2.426,-5.417 -5.417,-5.417l-13.093,0c-2.992,0 -5.417,2.425 -5.417,5.417l-0,9.389c-0,2.992 2.425,5.417 5.417,5.417l13.093,0c2.991,0 5.417,-2.425 5.417,-5.417l-0,-9.389Zm-5.417,-0l-13.093,-0l-0,9.389l13.093,0l-0,-9.389Z" style="fill:#262626;"/><rect x="113.561" y="168.986" width="13.093" height="9.256" style="fill:#fff;"/><path d="M132.071,168.986c-0,-2.992 -2.425,-5.417 -5.417,-5.417l-13.093,0c-2.991,0 -5.417,2.425 -5.417,5.417l0,9.256c0,2.991 2.426,5.416 5.417,5.416l13.093,0c2.992,0 5.417,-2.425 5.417,-5.416l-0,-9.256Zm-5.417,-0l-13.093,-0l0,9.256l13.093,-0l0,-9.256Z" style="fill:#262626;"/><g><rect x="5.417" y="12.629" width="126.062" height="27.257" style="fill:#fff;"/><path d="M136.896,12.629c-0,-2.992 -2.426,-5.417 -5.417,-5.417l-126.062,0c-2.992,0 -5.417,2.425 -5.417,5.417l-0,27.256c-0,2.992 2.425,5.417 5.417,5.417l126.062,0c2.991,0 5.417,-2.425 5.417,-5.417l-0,-27.256Zm-5.417,-0l-126.062,-0l-0,27.256l126.062,0l-0,-27.256Z" style="fill:#262626;"/><path d="M60.996,26.257l60.191,0" style="fill:none;stroke:#262626;stroke-width:5.42px;stroke-linecap:round;stroke-miterlimit:1.5;"/><rect x="15.841" y="23.978" width="3.748" height="4.559" style="fill:#ff637c;"/><path d="M25.006,23.978c-0,-2.992 -2.425,-5.417 -5.417,-5.417l-3.748,0c-2.992,0 -5.417,2.425 -5.417,5.417l0,4.558c0,2.992 2.425,5.417 5.417,5.417l3.748,0c2.992,0 5.417,-2.425 5.417,-5.417l-0,-4.558Zm-5.417,-0l-3.748,-0l0,4.558l3.748,0l0,-4.558Z" style="fill:#262626;"/><rect x="27.828" y="23.978" width="3.748" height="4.602" style="fill:#3a8fed;"/><path d="M36.993,23.978c-0,-2.992 -2.425,-5.417 -5.417,-5.417l-3.748,0c-2.992,0 -5.417,2.425 -5.417,5.417l0,4.601c0,2.992 2.425,5.417 5.417,5.417l3.748,-0c2.992,-0 5.417,-2.425 5.417,-5.417l-0,-4.601Zm-5.417,-0l-3.748,-0l-0,4.601l3.748,0l-0,-4.601Z" style="fill:#262626;"/><rect x="39.93" y="23.978" width="3.748" height="4.559" style="fill:#3a8fed;"/><path d="M49.095,23.978c-0,-2.992 -2.426,-5.417 -5.417,-5.417l-3.748,0c-2.992,0 -5.417,2.425 -5.417,5.417l0,4.558c0,2.992 2.425,5.417 5.417,5.417l3.748,0c2.991,0 5.417,-2.425 5.417,-5.417l-0,-4.558Zm-5.417,-0l-3.748,-0l-0,4.558l3.748,0l-0,-4.558Z" style="fill:#262626;"/></g><g><rect x="5.417" y="54.273" width="126.062" height="27.257" style="fill:#fff;"/><path d="M136.896,54.273c-0,-2.991 -2.426,-5.416 -5.417,-5.416l-126.062,-0c-2.992,-0 -5.417,2.425 -5.417,5.416l-0,27.257c-0,2.992 2.425,5.417 5.417,5.417l126.062,-0c2.991,-0 5.417,-2.425 5.417,-5.417l-0,-27.257Zm-5.417,0l-126.062,0l-0,27.257l126.062,0l-0,-27.257Z" style="fill:#262626;"/><path d="M60.996,67.902l60.191,-0" style="fill:none;stroke:#262626;stroke-width:5.42px;stroke-linecap:round;stroke-miterlimit:1.5;"/><rect x="15.841" y="65.622" width="3.748" height="4.559" style="fill:#3a8fed;"/><path d="M25.006,65.622c-0,-2.991 -2.425,-5.416 -5.417,-5.416l-3.748,-0c-2.992,-0 -5.417,2.425 -5.417,5.416l0,4.559c0,2.992 2.425,5.417 5.417,5.417l3.748,-0c2.992,-0 5.417,-2.425 5.417,-5.417l-0,-4.559Zm-5.417,0l-3.748,0l0,4.559l3.748,-0l0,-4.559Z" style="fill:#262626;"/><rect x="27.828" y="65.622" width="4.175" height="4.815" style="fill:#ff637c;"/><path d="M37.419,65.622c0,-2.991 -2.425,-5.416 -5.416,-5.416l-4.175,-0c-2.992,-0 -5.417,2.425 -5.417,5.416l0,4.815c0,2.992 2.425,5.417 5.417,5.417l4.175,-0c2.991,-0 5.416,-2.425 5.416,-5.417l0,-4.815Zm-5.416,0l-4.175,0l-0,4.815l4.175,0l-0,-4.815Z" style="fill:#262626;"/><rect x="39.93" y="65.622" width="4.559" height="4.559" style="fill:#8e44ad;"/><path d="M49.905,65.622c0,-2.991 -2.425,-5.416 -5.417,-5.416l-4.558,-0c-2.992,-0 -5.417,2.425 -5.417,5.416l0,4.559c0,2.992 2.425,5.417 5.417,5.417l4.558,-0c2.992,-0 5.417,-2.425 5.417,-5.417l0,-4.559Zm-5.417,0l-4.558,0l-0,4.559l4.558,-0l0,-4.559Z" style="fill:#262626;"/></g><g><rect x="5.417" y="95.918" width="126.062" height="27.257" style="fill:#fff;"/><path d="M136.896,95.918c-0,-2.992 -2.426,-5.417 -5.417,-5.417l-126.062,0c-2.992,0 -5.417,2.425 -5.417,5.417l-0,27.257c-0,2.991 2.425,5.416 5.417,5.416l126.062,0c2.991,0 5.417,-2.425 5.417,-5.416l-0,-27.257Zm-5.417,-0l-126.062,-0l-0,27.257l126.062,-0l-0,-27.257Z" style="fill:#262626;"/><path d="M60.996,109.546l60.191,0" style="fill:none;stroke:#262626;stroke-width:5.42px;stroke-linecap:round;stroke-miterlimit:1.5;"/><rect x="15.841" y="107.267" width="3.748" height="4.559" style="fill:#ff637c;"/><path d="M25.006,107.267c-0,-2.992 -2.425,-5.417 -5.417,-5.417l-3.748,0c-2.992,0 -5.417,2.425 -5.417,5.417l0,4.559c0,2.991 2.425,5.416 5.417,5.416l3.748,0c2.992,0 5.417,-2.425 5.417,-5.416l-0,-4.559Zm-5.417,-0l-3.748,-0l0,4.559l3.748,-0l0,-4.559Z" style="fill:#262626;"/><rect x="27.828" y="107.267" width="4.559" height="4.559" style="fill:#8e44ad;"/><path d="M37.803,107.267c0,-2.992 -2.425,-5.417 -5.417,-5.417l-4.558,0c-2.992,0 -5.417,2.425 -5.417,5.417l0,4.559c0,2.991 2.425,5.416 5.417,5.416l4.558,0c2.992,0 5.417,-2.425 5.417,-5.416l0,-4.559Zm-5.417,-0l-4.558,-0l-0,4.559l4.558,-0l0,-4.559Z" style="fill:#262626;"/><rect x="39.93" y="107.267" width="3.748" height="4.559" style="fill:#ff637c;"/><path d="M49.095,107.267c-0,-2.992 -2.426,-5.417 -5.417,-5.417l-3.748,0c-2.992,0 -5.417,2.425 -5.417,5.417l0,4.559c0,2.991 2.425,5.416 5.417,5.416l3.748,0c2.991,0 5.417,-2.425 5.417,-5.416l-0,-4.559Zm-5.417,-0l-3.748,-0l-0,4.559l3.748,-0l-0,-4.559Z" style="fill:#262626;"/></g><g><rect x="5.417" y="137.563" width="126.062" height="27.257" style="fill:#fff;"/><path d="M136.896,137.563c-0,-2.992 -2.426,-5.417 -5.417,-5.417l-126.062,-0c-2.992,-0 -5.417,2.425 -5.417,5.417l-0,27.256c-0,2.992 2.425,5.417 5.417,5.417l126.062,-0c2.991,-0 5.417,-2.425 5.417,-5.417l-0,-27.256Zm-5.417,-0l-126.062,-0l-0,27.256l126.062,0l-0,-27.256Z" style="fill:#262626;"/><path d="M60.996,151.191l60.191,-0" style="fill:none;stroke:#262626;stroke-width:5.42px;stroke-linecap:round;stroke-miterlimit:1.5;"/><rect x="15.841" y="148.912" width="3.748" height="4.559" style="fill:#3a8fed;"/><path d="M25.006,148.912c-0,-2.992 -2.425,-5.417 -5.417,-5.417l-3.748,-0c-2.992,-0 -5.417,2.425 -5.417,5.417l0,4.558c0,2.992 2.425,5.417 5.417,5.417l3.748,-0c2.992,-0 5.417,-2.425 5.417,-5.417l-0,-4.558Zm-5.417,-0l-3.748,-0l0,4.558l3.748,0l0,-4.558Z" style="fill:#262626;"/><rect x="27.828" y="148.912" width="3.748" height="4.559" style="fill:#ff637c;"/><path d="M36.993,148.912c-0,-2.992 -2.425,-5.417 -5.417,-5.417l-3.748,-0c-2.992,-0 -5.417,2.425 -5.417,5.417l0,4.558c0,2.992 2.425,5.417 5.417,5.417l3.748,-0c2.992,-0 5.417,-2.425 5.417,-5.417l-0,-4.558Zm-5.417,-0l-3.748,-0l-0,4.558l3.748,0l-0,-4.558Z" style="fill:#262626;"/><rect x="39.93" y="148.912" width="3.748" height="4.559" style="fill:#3a8fed;"/><path d="M49.095,148.912c-0,-2.992 -2.426,-5.417 -5.417,-5.417l-3.748,-0c-2.992,-0 -5.417,2.425 -5.417,5.417l0,4.558c0,2.992 2.425,5.417 5.417,5.417l3.748,-0c2.991,-0 5.417,-2.425 5.417,-5.417l-0,-4.558Zm-5.417,-0l-3.748,-0l-0,4.558l3.748,0l-0,-4.558Z" style="fill:#262626;"/></g></g><path d="M266.757,11.551c-0,-1.086 -0.882,-1.968 -1.968,-1.968l-36.343,0c-1.085,0 -1.967,0.882 -1.967,1.968l-0,35.417c-0,1.086 0.882,1.967 1.967,1.967l36.343,0c1.086,0 1.968,-0.881 1.968,-1.967l-0,-35.417Z" style="fill:#ff637c;"/><path d="M261.062,5.417c0,-2.992 -2.425,-5.417 -5.416,-5.417l-33.334,0c-2.991,-0 -5.416,2.425 -5.416,5.417l-0,33.333c-0,2.992 2.425,5.417 5.416,5.417l33.334,-0c2.991,-0 5.416,-2.425 5.416,-5.417l0,-33.333Zm-5.416,-0l-33.334,-0l0,33.333l33.334,0l-0,-33.333Z" style="fill:#262626;"/><path d="M252.449,75.686c-0,-2.908 -2.361,-5.269 -5.27,-5.269l-27.098,-0c-2.908,-0 -5.269,2.361 -5.269,5.269l0,27.098c0,2.908 2.361,5.269 5.269,5.269l27.098,-0c2.909,-0 5.27,-2.361 5.27,-5.269l-0,-27.098Z" style="fill:#3a8fed;"/><path d="M261.896,78.75c-0,-2.992 -2.426,-5.417 -5.417,-5.417l-33.333,0c-2.992,0 -5.417,2.425 -5.417,5.417l-0,33.333c-0,2.992 2.425,5.417 5.417,5.417l33.333,0c2.991,0 5.417,-2.425 5.417,-5.417l-0,-33.333Zm-5.417,0l-33.333,0l-0,33.333l33.333,0l-0,-33.333Z" style="fill:#262626;"/><path d="M264.812,149c0,-1.058 -0.859,-1.917 -1.916,-1.917l-34.5,0c-1.058,0 -1.917,0.859 -1.917,1.917l-0,34.5c-0,1.058 0.859,1.917 1.917,1.917l34.5,-0c1.057,-0 1.916,-0.859 1.916,-1.917l0,-34.5Z" style="fill:#8e44ad;"/><path d="M261.896,155.417c-0,-2.992 -2.426,-5.417 -5.417,-5.417l-33.333,0c-2.992,-0 -5.417,2.425 -5.417,5.417l-0,33.333c-0,2.992 2.425,5.417 5.417,5.417l33.333,-0c2.991,-0 5.417,-2.425 5.417,-5.417l-0,-33.333Zm-5.417,-0l-33.333,-0l-0,33.333l33.333,-0l-0,-33.333Z" style="fill:#262626;"/><path d="M145.546,119.008l38.334,-0l-0.834,-22.559l29.167,-0" style="fill:none;stroke:#262626;stroke-width:5.42px;stroke-linecap:round;stroke-miterlimit:1.5;"/><path d="M145.546,157.935l33.334,0l-0,22.68l33.333,0.05" style="fill:none;stroke:#262626;stroke-width:5.42px;stroke-linecap:round;stroke-miterlimit:1.5;"/><path d="M211.639,19.789l-24.426,0l-0,24.993l-44.974,0" style="fill:none;stroke:#262626;stroke-width:5.42px;stroke-linecap:round;stroke-miterlimit:1.5;"/></g></svg>