<svg width="146" height="146" viewBox="0 0 146 146" fill="none" xmlns="http://www.w3.org/2000/svg">
<g clip-path="url(#clip0)">
<path d="M133.22 53.0365L125.919 46.5168L111.043 52.2339L109.019 60.5868L101.24 95.8772L126.501 106.882L129.636 102.835C133.961 93.9639 136.386 83.9963 136.386 73.4605C136.386 66.3399 135.273 59.479 133.22 53.0365Z" fill="#FE7D43"/>
<path d="M107.212 91.5952L98.3462 95.8774L75.5536 111.932L85.712 134.596L92.9644 136.393V136.396C109.171 130.369 122.212 118.069 129.726 102.648L107.212 91.5952Z" fill="#EE6161"/>
<path d="M84.2831 112.579L79.4471 109.189L50.547 104.8L36.6619 127.108L43.0532 135.157V135.16C51.1833 138.657 60.1417 140.594 69.5525 140.594C77.7872 140.594 85.6742 139.112 92.9648 136.396V136.393L84.2831 112.579Z" fill="#C2A1D5"/>
<path d="M51.8791 104.23L35.8155 78.9958L7.78748 87.6673V99.81C14.5522 115.649 27.2337 128.359 43.0529 135.16V135.157L53.21 111.932L51.8791 104.23Z" fill="#8AC9FE"/>
<path d="M14.2873 41.4622L6.67673 49.8956H6.6739C3.92334 57.2286 2.41943 65.1693 2.41943 73.4606C2.41943 82.8148 4.33324 91.7195 7.7877 99.81H7.79053L31.1717 90.0177L34.2287 82.9957L36.0642 48.455L14.2873 41.4622Z" fill="#75CDD5"/>
<path d="M53.8449 13.0076H40.3222C24.8817 20.4875 12.7402 33.7061 6.67371 49.8957H6.67653L30.3517 58.9474L45.8318 51.1107L66.3036 32.6954L53.8449 13.0076Z" fill="#6CF5C2"/>
<path d="M109.318 60.5871L108.078 55.073L92.7954 58.9475L91.9722 66.0006C92.7553 68.3441 93.1765 70.8544 93.1765 73.4608C93.1765 77.0679 92.368 80.4828 90.9235 83.5387L91.2542 89.1661L101.24 94.4799L107.212 91.5953C109.858 86.1111 111.342 79.9598 111.342 73.4608C111.342 68.9689 110.63 64.6437 109.318 60.5871Z" fill="#FD6930"/>
<path d="M90.9234 83.5386C88.3425 89.003 83.729 93.3168 78.0582 95.5048L75.8784 99.6052L80.4221 111.241L84.2831 112.579C94.3553 108.786 102.573 101.218 107.212 91.5952L90.9234 83.5386Z" fill="#E94444"/>
<path d="M78.0583 95.5046C75.4208 96.5251 72.5515 97.0848 69.5522 97.0848C66.3408 97.0848 63.2821 96.4459 60.492 95.2812L55.7245 95.798L50.0537 107.359L53.2099 111.932C58.2305 114.069 63.7542 115.25 69.5522 115.25C74.7367 115.25 79.7007 114.306 84.2831 112.579L78.0583 95.5046Z" fill="#A274BF"/>
<path d="M47.9321 82.9957L44.2021 80.2986L32.0292 84.5169L31.1715 90.0177C35.4203 99.8581 43.3413 107.737 53.2099 111.932L60.492 95.2814C54.892 92.9577 50.3774 88.5336 47.9321 82.9957Z" fill="#26A6FE"/>
<path d="M101.736 14.5341C92.1815 9.30435 81.2131 6.32764 69.5522 6.32764C59.0729 6.32764 49.1562 8.72767 40.3221 13.0076L51.2085 35.9054L62.0239 40.7558L96.054 46.517L105.956 25.5047L101.736 14.5341Z" fill="#FEE97D"/>
<path d="M143.73 47.8492C144.067 48.8189 143.53 49.8733 142.552 50.1786L133.393 53.0366L116.044 58.4501C112.165 46.3962 103.747 36.3805 92.7955 30.4215L101.61 14.5343L106.274 6.12716C106.766 5.23669 107.897 4.92291 108.776 5.43457C124.991 14.834 137.534 29.8646 143.73 47.8492Z" fill="#FEC165"/>
<path d="M45.9279 73.4607C45.9279 70.6423 46.4198 67.9397 47.3272 65.4351L47.1186 55.5876H36.9885L30.3518 58.9474C28.6782 63.4676 27.7623 68.3581 27.7623 73.4607C27.7623 79.3434 28.9779 84.9407 31.1716 90.0178L47.9322 82.9958C46.6431 80.0812 45.9279 76.8558 45.9279 73.4607Z" fill="#2ABCC8"/>
<path d="M59.6886 38.6459L51.2082 35.9055C41.6166 40.5925 34.0886 48.8499 30.3514 58.9475L47.3269 65.4352C49.3962 59.7079 53.6139 55.0096 59.0105 52.3156V52.3128L62.8991 47.9342L59.6886 38.6459Z" fill="#00F2A6"/>
<path d="M89.4422 36.6971L89.4385 36.6965C83.525 33.4911 76.752 31.6709 69.5522 31.6709C62.9712 31.6709 56.7464 33.1918 51.2085 35.9056L59.0107 52.3157C62.1825 50.7326 65.7642 49.8365 69.5522 49.8365C73.5551 49.8365 77.3233 50.8316 80.6251 52.5899L86.5706 52.8825L92.3881 45.126L89.4422 36.6971Z" fill="#FEDF30"/>
<path d="M116.044 58.4498L109.191 60.5869L91.9723 66.0004C90.0472 60.2081 85.8419 55.3619 80.5273 52.5379L89.3156 36.6968L92.7955 30.4211C103.747 36.3802 112.165 46.3959 116.044 58.4498Z" fill="#FDB441"/>
<path d="M145.564 47.1583C139.246 28.8256 126.498 13.3563 109.668 3.59926C108.746 3.06526 107.673 2.92731 106.644 3.21113C105.616 3.49523 104.765 4.16549 104.247 5.09808L100.59 11.6904C90.9363 6.78941 80.148 4.20761 69.2534 4.20761C50.7551 4.20761 33.3644 11.4111 20.2838 24.4914C7.20348 37.5717 0 54.9625 0 73.4608C0 91.9591 7.20348 109.35 20.2838 122.43C33.3641 135.51 50.7551 142.714 69.2534 142.714C84.8517 142.714 99.5806 137.649 111.848 128.067C112.771 127.346 112.935 126.014 112.214 125.091C111.493 124.168 110.161 124.004 109.238 124.725C104.491 128.433 99.3502 131.419 93.9223 133.649L86.6736 113.764C95.6936 109.851 103.153 102.997 107.833 94.4168L126.782 103.79C123.891 109.257 120.2 114.337 115.767 118.876C114.949 119.714 114.965 121.057 115.802 121.875C116.215 122.277 116.749 122.478 117.283 122.478C117.834 122.478 118.385 122.265 118.801 121.839C131.509 108.826 138.507 91.6448 138.507 73.4605C138.507 66.9948 137.613 60.6061 135.853 54.4364L143.012 52.2026C144.037 51.8823 144.869 51.1778 145.354 50.2184C145.839 49.2603 145.913 48.1734 145.564 47.1583ZM98.5313 15.4012L88.2787 33.8826C82.3764 31.0461 75.8441 29.5498 69.2532 29.5498C63.2175 29.5498 57.3398 30.7756 51.9243 33.1027L42.8489 14.0132C51.0528 10.366 60.0053 8.44738 69.2532 8.44738C79.43 8.44766 89.5059 10.8468 98.5313 15.4012ZM108.924 73.4608C108.924 78.8638 107.836 84.0172 105.872 88.7161L93.3496 82.5218C94.4136 79.702 94.9977 76.6484 94.9977 73.4608C94.9977 71.3771 94.7472 69.3513 94.2776 67.4098L107.589 63.256C108.471 66.5748 108.924 69.997 108.924 73.4608ZM69.2532 99.2047C71.7598 99.2047 74.183 98.8431 76.4756 98.172L81.2522 111.275C77.465 112.479 73.4341 113.131 69.2532 113.131C64.5096 113.131 59.9584 112.293 55.7381 110.759L61.3365 97.9578C63.8753 98.7781 66.5402 99.2047 69.2532 99.2047ZM69.2532 94.9644C65.0001 94.9644 60.8864 93.7222 57.3568 91.3728C56.3818 90.724 55.0659 90.9883 54.4171 91.9628C53.7683 92.9375 54.0326 94.2537 55.0071 94.9025C55.7893 95.4232 56.5952 95.8975 57.4218 96.3264L51.8367 109.097C44.0104 105.257 37.6276 98.9133 33.7358 91.1164L46.6166 85.7207C47.0259 86.4747 47.4711 87.2122 47.9582 87.9277C48.6169 88.8956 49.9353 89.1463 50.9038 88.4874C51.8717 87.8287 52.1228 86.51 51.4635 85.5418C49.0336 81.9714 47.7493 77.7938 47.7493 73.4605C47.7493 61.6034 57.3958 51.9569 69.2529 51.9569C81.11 51.9569 90.7565 61.6034 90.7565 73.4605C90.7565 85.3176 81.1106 94.9644 69.2532 94.9644ZM29.5828 73.4608C29.5828 69.4367 30.1844 65.4858 31.3519 61.7139L44.4102 66.7062C43.8242 68.8597 43.5092 71.1241 43.5092 73.4608C43.5092 76.3419 43.9856 79.1655 44.906 81.84L32.047 87.2266C30.4549 82.936 29.5828 78.2984 29.5828 73.4608ZM69.2532 47.7169C65.894 47.7169 62.6835 48.3645 59.7387 49.5399L53.7463 36.9351C58.5975 34.874 63.8555 33.7905 69.2532 33.7905C75.1263 33.7905 80.9466 35.1035 86.2185 37.5963L79.4379 49.8192C76.3128 48.4677 72.8693 47.7169 69.2532 47.7169ZM92.9425 63.3846C90.91 58.6247 87.4835 54.5969 83.1787 51.8175L93.4344 33.3308C102.545 38.8206 109.451 47.1385 113.152 57.0784L92.9425 63.3846ZM23.2823 27.4899C27.9936 22.7786 33.3019 18.8831 39.0346 15.8663L48.1145 34.9653C44.8888 36.7409 41.8699 38.9309 39.1338 41.5113C38.2818 42.3147 38.2427 43.6563 39.0459 44.5083C39.4631 44.9505 40.0251 45.1738 40.5885 45.1738C41.1103 45.1738 41.6333 44.9821 42.0429 44.596C44.4531 42.3229 47.1067 40.3856 49.9393 38.8034L55.9433 51.4319C51.5551 54.0932 48.0224 58.0285 45.8598 62.7206L32.8225 57.7362C33.8062 55.4605 35.0074 53.27 36.42 51.1917C37.0781 50.2232 36.8265 48.9044 35.8583 48.2463C34.8895 47.5885 33.571 47.8398 32.9129 48.808C31.3143 51.16 29.9631 53.6426 28.8606 56.2215L9.11474 48.6726C12.3408 40.845 17.1151 33.6567 23.2823 27.4899ZM7.63147 52.6455L27.3866 60.1981C26.0405 64.4526 25.3428 68.914 25.3428 73.4611C25.3428 78.8794 26.3319 84.0701 28.1343 88.8659L8.62965 97.0359C5.7482 89.6196 4.24034 81.6562 4.24034 73.4608C4.24034 66.2728 5.40247 59.2639 7.63147 52.6455ZM10.2967 100.935L29.8172 92.7583C34.1392 101.555 41.317 108.704 50.1358 112.986L41.6616 132.364C34.9189 129.2 28.7054 124.855 23.2823 119.432C17.8278 113.977 13.4648 107.723 10.2967 100.935ZM89.9483 135.129C83.3605 137.337 76.4046 138.474 69.2532 138.474C61.0133 138.474 53.0087 136.948 45.5582 134.037L54.036 114.651C58.7795 116.409 63.9058 117.371 69.2532 117.371C73.9438 117.371 78.464 116.629 82.7052 115.261L89.9483 135.129ZM85.218 109.773L80.4335 96.6478C85.0784 94.399 88.949 90.795 91.5296 86.3525L104.028 92.5347C99.835 100.148 93.2153 106.243 85.218 109.773ZM134.266 73.4608C134.266 82.7369 132.322 91.7335 128.636 99.977L109.68 90.6002C111.922 85.3315 113.164 79.5386 113.164 73.4611C113.164 69.5679 112.652 65.7196 111.645 61.9909L131.804 55.7003C133.437 61.4603 134.266 67.4242 134.266 73.4608ZM117.203 55.8142C113.169 44.8297 105.557 35.646 95.4921 29.6216L107.807 7.42263C123.534 16.6244 135.467 31.1026 141.453 48.2472L117.203 55.8142Z" fill="#444E59"/>
</g>
<defs>
<clipPath id="clip0">
<rect width="145.781" height="145.781" fill="white"/>
</clipPath>
</defs>
</svg>
