<svg width="147" height="146" viewBox="0 0 147 146" fill="none" xmlns="http://www.w3.org/2000/svg">
<path d="M94.1717 43.2788H12.17C9.65401 43.2788 7.61438 45.3184 7.61438 47.8345V66.0571C7.61438 68.5731 9.65401 70.6127 12.17 70.6127H94.1717C96.6877 70.6127 98.7274 68.5731 98.7274 66.0571V47.8345C98.7274 45.3184 96.6877 43.2788 94.1717 43.2788Z" fill="#BBBFC2"/>
<path d="M98.7273 47.8345V66.0571C98.7236 67.2642 98.2425 68.4208 97.3889 69.2744C96.5354 70.128 95.3787 70.6091 94.1716 70.6127H85.0603C86.2674 70.6091 87.4241 70.128 88.2776 69.2744C89.1312 68.4208 89.6123 67.2642 89.616 66.0571V47.8345C89.6123 46.6273 89.1312 45.4707 88.2776 44.6171C87.4241 43.7635 86.2674 43.2824 85.0603 43.2788H94.1716C95.3787 43.2824 96.5354 43.7635 97.3889 44.6171C98.2425 45.4707 98.7236 46.6273 98.7273 47.8345Z" fill="#2488FF"/>
<path d="M75.949 70.6125H89.6159V79.7238H75.949V70.6125Z" fill="#ACABB1"/>
<path d="M75.949 34.1675H89.6159V43.2788H75.949V34.1675Z" fill="#ACABB1"/>
<path d="M82.7825 34.1675H89.6159V43.2788H82.7825V34.1675Z" fill="#898890"/>
<path d="M82.7825 70.6125H89.6159V79.7238H82.7825V70.6125Z" fill="#898890"/>
<path d="M94.1717 79.7241H12.17C9.65401 79.7241 7.61438 81.7638 7.61438 84.2798V102.502C7.61438 105.018 9.65401 107.058 12.17 107.058H94.1717C96.6877 107.058 98.7274 105.018 98.7274 102.502V84.2798C98.7274 81.7638 96.6877 79.7241 94.1717 79.7241Z" fill="#BBBFC2"/>
<path d="M98.7273 84.2798V102.502C98.7236 103.709 98.2425 104.866 97.3889 105.72C96.5354 106.573 95.3787 107.054 94.1716 107.058H85.0603C86.2674 107.054 87.4241 106.573 88.2776 105.72C89.1312 104.866 89.6123 103.709 89.616 102.502V84.2798C89.6123 83.0726 89.1312 81.916 88.2776 81.0624C87.4241 80.2089 86.2674 79.7277 85.0603 79.7241H94.1716C95.3787 79.7277 96.5354 80.2089 97.3889 81.0624C98.2425 81.916 98.7236 83.0726 98.7273 84.2798V84.2798Z" fill="#2488FF"/>
<path d="M34.9481 88.8352H44.0594V97.9465H34.9481V88.8352Z" fill="#5A5DED"/>
<path d="M34.9481 52.3901H44.0594V61.5014H34.9481V52.3901Z" fill="#5A5DED"/>
<path d="M94.1717 6.8335H12.17C9.65401 6.8335 7.61438 8.87313 7.61438 11.3891V29.6117C7.61438 32.1278 9.65401 34.1674 12.17 34.1674H94.1717C96.6877 34.1674 98.7274 32.1278 98.7274 29.6117V11.3891C98.7274 8.87313 96.6877 6.8335 94.1717 6.8335Z" fill="#BBBFC2"/>
<path d="M98.7273 11.3891V29.6117C98.7236 30.8189 98.2425 31.9755 97.3889 32.8291C96.5354 33.6827 95.3787 34.1638 94.1716 34.1674H85.0603C86.2674 34.1638 87.4241 33.6827 88.2776 32.8291C89.1312 31.9755 89.6123 30.8189 89.616 29.6117V11.3891C89.6123 10.182 89.1312 9.02537 88.2776 8.1718C87.4241 7.31823 86.2674 6.8371 85.0603 6.8335H94.1716C95.3787 6.8371 96.5354 7.31823 97.3889 8.1718C98.2425 9.02537 98.7236 10.182 98.7273 11.3891V11.3891Z" fill="#A1A1A1"/>
<path d="M34.9481 15.9448H44.0594V25.0561H34.9481V15.9448Z" fill="#5A5DED"/>
<path d="M16.7256 70.6125H30.3925V79.7238H16.7256V70.6125Z" fill="#ACABB1"/>
<path d="M16.7256 34.1675H30.3925V43.2788H16.7256V34.1675Z" fill="#ACABB1"/>
<path d="M23.5591 34.1675H30.3926V43.2788H23.5591V34.1675Z" fill="#898890"/>
<path d="M23.5591 70.6125H30.3926V79.7238H23.5591V70.6125Z" fill="#898890"/>
<path d="M16.7256 88.8352H25.8369V97.9465H16.7256V88.8352Z" fill="#FF637C"/>
<path d="M16.7256 52.3901H25.8369V61.5014H16.7256V52.3901Z" fill="#FF637C"/>
<path d="M16.7256 15.9448H25.8369V25.0561H16.7256V15.9448Z" fill="#FF637C"/>
<path d="M139.728 104.78V127.558C139.728 133.845 121.369 138.947 98.7273 138.947C76.0857 138.947 57.7264 133.845 57.7264 127.558V104.78C57.7264 111.067 76.0857 116.169 98.7273 116.169C121.369 116.169 139.728 111.067 139.728 104.78Z" fill="#E0BDEF"/>
<path d="M139.728 82.002V104.78C139.728 111.067 121.369 116.169 98.7273 116.169C76.0857 116.169 57.7264 111.067 57.7264 104.78V82.002C57.7264 88.2887 76.0857 93.3911 98.7273 93.3911C121.369 93.3911 139.728 88.2887 139.728 82.002Z" fill="#E0BDEF"/>
<path d="M139.728 59.2236V82.0019C139.728 88.2887 121.369 93.391 98.7273 93.391C76.0857 93.391 57.7264 88.2887 57.7264 82.0019V59.2236C57.7264 65.5104 76.0857 70.6128 98.7273 70.6128C121.369 70.6128 139.728 65.5104 139.728 59.2236Z" fill="#E0BDEF"/>
<path d="M98.7273 70.6127C121.371 70.6127 139.728 65.5136 139.728 59.2236C139.728 52.9336 121.371 47.8345 98.7273 47.8345C76.0831 47.8345 57.7264 52.9336 57.7264 59.2236C57.7264 65.5136 76.0831 70.6127 98.7273 70.6127Z" fill="#E0BDEF"/>
<path d="M139.728 104.78V127.558C139.728 133.845 121.369 138.947 98.7273 138.947C97.1784 138.947 95.675 138.925 94.1716 138.856C114.672 138.241 130.617 133.412 130.617 127.558V111.932C136.311 109.973 139.728 107.491 139.728 104.78Z" fill="#B57DCD"/>
<path d="M139.728 82.002V104.78C139.728 107.491 136.311 109.974 130.617 111.933C120.268 114.974 109.512 116.403 98.7273 116.169C97.1784 116.169 95.675 116.147 94.1716 116.078C114.672 115.463 130.617 110.634 130.617 104.78V89.1543C136.311 87.1954 139.728 84.7126 139.728 82.002Z" fill="#B57DCD"/>
<path d="M139.728 59.2236V82.0019C139.728 84.7125 136.311 87.1953 130.617 89.1542C120.268 92.1957 109.512 93.6247 98.7273 93.391C97.1784 93.391 95.675 93.3682 94.1716 93.2999C114.672 92.6849 130.617 87.8559 130.617 82.0019V66.376C136.311 64.4171 139.728 61.9342 139.728 59.2236Z" fill="#B57DCD"/>
<path d="M139.728 59.2236C139.728 61.9342 136.311 64.417 130.617 66.376C120.268 69.4174 109.512 70.8464 98.7273 70.6127C97.1784 70.6127 95.675 70.5899 94.1716 70.5216C114.672 69.9066 130.617 65.0776 130.617 59.2236C130.617 53.3696 114.672 48.5406 94.1716 47.9256C95.675 47.8573 97.1784 47.8345 98.7273 47.8345C121.369 47.8345 139.728 52.9368 139.728 59.2236Z" fill="#B57DCD"/>
<path d="M130.617 104.78V111.932C120.268 114.974 109.512 116.403 98.7273 116.169C97.1784 116.169 95.675 116.146 94.1716 116.078C114.672 115.463 130.617 110.634 130.617 104.78Z" fill="#B57DCD"/>
<path d="M130.617 82.002V89.1543C120.268 92.1958 109.512 93.6248 98.7273 93.3911C97.1784 93.3911 95.675 93.3683 94.1716 93.3C114.672 92.6849 130.617 87.856 130.617 82.002Z" fill="#B57DCD"/>
<path d="M100.595 45.5793C100.133 44.2432 99.266 43.0843 98.1148 42.2638C96.9636 41.4432 95.5853 41.0018 94.1716 41.0009H91.8938V36.4452H94.1716C95.9823 36.4398 97.7172 35.7181 98.9976 34.4378C100.278 33.1574 101 31.4224 101.005 29.6117V11.3891C101 9.57845 100.278 7.84347 98.9976 6.56312C97.7172 5.28276 95.9823 4.56107 94.1716 4.55566H12.1699C10.3592 4.56107 8.62423 5.28276 7.34388 6.56312C6.06352 7.84347 5.34183 9.57845 5.33643 11.3891V29.6117C5.34183 31.4224 6.06352 33.1574 7.34388 34.4378C8.62423 35.7181 10.3592 36.4398 12.1699 36.4452H14.4477V41.0009H12.1699C10.3592 41.0063 8.62423 41.728 7.34388 43.0083C6.06352 44.2887 5.34183 46.0236 5.33643 47.8343V66.0569C5.34183 67.8676 6.06352 69.6026 7.34388 70.8829C8.62423 72.1633 10.3592 72.885 12.1699 72.8904H14.4477V77.446H12.1699C10.3592 77.4515 8.62423 78.1731 7.34388 79.4535C6.06352 80.7339 5.34183 82.4688 5.33643 84.2795V102.502C5.34183 104.313 6.06352 106.048 7.34388 107.328C8.62423 108.608 10.3592 109.33 12.1699 109.336H55.4486V127.558C55.4486 136.533 77.2246 141.225 98.7272 141.225C120.23 141.225 142.006 136.533 142.006 127.558V59.2234C142.006 50.4994 121.483 45.8526 100.595 45.5793ZM12.1699 31.8896C11.5658 31.8896 10.9864 31.6496 10.5592 31.2224C10.1321 30.7952 9.89207 30.2158 9.89207 29.6117V11.3891C9.89207 10.785 10.1321 10.2056 10.5592 9.77847C10.9864 9.3513 11.5658 9.11131 12.1699 9.11131H94.1716C94.7757 9.11131 95.3551 9.3513 95.7822 9.77847C96.2094 10.2056 96.4494 10.785 96.4494 11.3891V29.6117C96.4494 30.2158 96.2094 30.7952 95.7822 31.2224C95.3551 31.6496 94.7757 31.8896 94.1716 31.8896H12.1699ZM87.3381 36.4452V41.0009H78.2268V36.4452H87.3381ZM73.6712 36.4452V41.0009H32.6703V36.4452H73.6712ZM28.1147 36.4452V41.0009H19.0034V36.4452H28.1147ZM55.4486 104.78H12.1699C11.5658 104.78 10.9864 104.54 10.5592 104.113C10.1321 103.686 9.89207 103.106 9.89207 102.502V84.2795C9.89207 83.6754 10.1321 83.096 10.5592 82.6689C10.9864 82.2417 11.5658 82.0017 12.1699 82.0017H55.4486V104.78ZM19.0034 77.446V72.8904H28.1147V77.446H19.0034ZM55.4486 77.446H32.6703V72.8904H55.4486V77.446ZM55.4486 59.2234V68.3347H12.1699C11.5658 68.3347 10.9864 68.0948 10.5592 67.6676C10.1321 67.2404 9.89207 66.661 9.89207 66.0569V47.8343C9.89207 47.2302 10.1321 46.6508 10.5592 46.2237C10.9864 45.7965 11.5658 45.5565 12.1699 45.5565H94.1716C94.2799 45.5683 94.3868 45.5912 94.4905 45.6248C74.4456 46.1943 55.4486 50.8411 55.4486 59.2234ZM137.45 127.558C137.45 130.656 123.783 136.669 98.7272 136.669C73.6712 136.669 60.0042 130.656 60.0042 127.558V111.203C67.4983 115.964 83.1469 118.447 98.7272 118.447C114.308 118.447 129.956 115.964 137.45 111.203V127.558ZM137.45 104.78C137.45 107.878 123.783 113.891 98.7272 113.891C73.6712 113.891 60.0042 107.878 60.0042 104.78V88.4252C67.4983 93.1858 83.1469 95.6686 98.7272 95.6686C114.308 95.6686 129.956 93.1858 137.45 88.4252V104.78ZM137.45 82.0017C137.45 85.0995 123.783 91.113 98.7272 91.113C73.6712 91.113 60.0042 85.0995 60.0042 82.0017V65.6469C67.4983 70.4076 83.1469 72.8904 98.7272 72.8904C114.308 72.8904 129.956 70.4076 137.45 65.6469V82.0017ZM98.7272 68.3347C73.6712 68.3347 60.0042 62.3213 60.0042 59.2234C60.0042 56.1256 73.6712 50.1122 98.7272 50.1122C123.783 50.1122 137.45 56.1256 137.45 59.2234C137.45 62.3213 123.783 68.3347 98.7272 68.3347Z" fill="black"/>
<path d="M96.4495 79.7241H101.005V84.2798H96.4495V79.7241Z" fill="black"/>
<path d="M96.4495 104.78H101.005V109.336H96.4495V104.78Z" fill="black"/>
<path d="M96.4495 125.281H101.005V129.836H96.4495V125.281Z" fill="black"/>
<path d="M25.8369 50.1123H16.7256C16.1215 50.1123 15.5421 50.3523 15.1149 50.7795C14.6877 51.2066 14.4478 51.786 14.4478 52.3901V61.5014C14.4478 62.1055 14.6877 62.6849 15.1149 63.1121C15.5421 63.5393 16.1215 63.7793 16.7256 63.7793H25.8369C26.441 63.7793 27.0204 63.5393 27.4475 63.1121C27.8747 62.6849 28.1147 62.1055 28.1147 61.5014V52.3901C28.1147 51.786 27.8747 51.2066 27.4475 50.7795C27.0204 50.3523 26.441 50.1123 25.8369 50.1123ZM23.5591 59.2236H19.0034V54.668H23.5591V59.2236Z" fill="black"/>
<path d="M44.0595 50.1123H34.9482C34.3441 50.1123 33.7647 50.3523 33.3376 50.7795C32.9104 51.2066 32.6704 51.786 32.6704 52.3901V61.5014C32.6704 62.1055 32.9104 62.6849 33.3376 63.1121C33.7647 63.5393 34.3441 63.7793 34.9482 63.7793H44.0595C44.6637 63.7793 45.243 63.5393 45.6702 63.1121C46.0974 62.6849 46.3374 62.1055 46.3374 61.5014V52.3901C46.3374 51.786 46.0974 51.2066 45.6702 50.7795C45.243 50.3523 44.6637 50.1123 44.0595 50.1123ZM41.7817 59.2236H37.2261V54.668H41.7817V59.2236Z" fill="black"/>
<path d="M25.8369 13.667H16.7256C16.1215 13.667 15.5421 13.907 15.1149 14.3342C14.6877 14.7613 14.4478 15.3407 14.4478 15.9448V25.0561C14.4478 25.6602 14.6877 26.2396 15.1149 26.6668C15.5421 27.094 16.1215 27.3339 16.7256 27.3339H25.8369C26.441 27.3339 27.0204 27.094 27.4475 26.6668C27.8747 26.2396 28.1147 25.6602 28.1147 25.0561V15.9448C28.1147 15.3407 27.8747 14.7613 27.4475 14.3342C27.0204 13.907 26.441 13.667 25.8369 13.667ZM23.5591 22.7783H19.0034V18.2226H23.5591V22.7783Z" fill="black"/>
<path d="M44.0595 13.667H34.9482C34.3441 13.667 33.7647 13.907 33.3376 14.3342C32.9104 14.7613 32.6704 15.3407 32.6704 15.9448V25.0561C32.6704 25.6602 32.9104 26.2396 33.3376 26.6668C33.7647 27.094 34.3441 27.3339 34.9482 27.3339H44.0595C44.6637 27.3339 45.243 27.094 45.6702 26.6668C46.0974 26.2396 46.3374 25.6602 46.3374 25.0561V15.9448C46.3374 15.3407 46.0974 14.7613 45.6702 14.3342C45.243 13.907 44.6637 13.667 44.0595 13.667ZM41.7817 22.7783H37.2261V18.2226H41.7817V22.7783Z" fill="black"/>
<path d="M50.8929 13.667H82.7825V18.2226H50.8929V13.667Z" fill="black"/>
<path d="M87.3381 13.667H91.8938V18.2226H87.3381V13.667Z" fill="black"/>
<path d="M50.8929 22.7783H82.7825V27.334H50.8929V22.7783Z" fill="black"/>
<path d="M87.3381 22.7783H91.8938V27.334H87.3381V22.7783Z" fill="black"/>
<path d="M25.8369 86.5574H16.7256C16.1215 86.5574 15.5421 86.7974 15.1149 87.2245C14.6877 87.6517 14.4478 88.2311 14.4478 88.8352V97.9465C14.4478 98.5506 14.6877 99.13 15.1149 99.5572C15.5421 99.9843 16.1215 100.224 16.7256 100.224H25.8369C26.441 100.224 27.0204 99.9843 27.4475 99.5572C27.8747 99.13 28.1147 98.5506 28.1147 97.9465V88.8352C28.1147 88.2311 27.8747 87.6517 27.4475 87.2245C27.0204 86.7974 26.441 86.5574 25.8369 86.5574ZM23.5591 95.6687H19.0034V91.113H23.5591V95.6687Z" fill="black"/>
<path d="M44.0595 86.5574H34.9482C34.3441 86.5574 33.7647 86.7974 33.3376 87.2245C32.9104 87.6517 32.6704 88.2311 32.6704 88.8352V97.9465C32.6704 98.5506 32.9104 99.13 33.3376 99.5572C33.7647 99.9843 34.3441 100.224 34.9482 100.224H44.0595C44.6637 100.224 45.243 99.9843 45.6702 99.5572C46.0974 99.13 46.3374 98.5506 46.3374 97.9465V88.8352C46.3374 88.2311 46.0974 87.6517 45.6702 87.2245C45.243 86.7974 44.6637 86.5574 44.0595 86.5574ZM41.7817 95.6687H37.2261V91.113H41.7817V95.6687Z" fill="black"/>
</svg>
