<svg width="58" height="59" viewBox="0 0 58 59" fill="none" xmlns="http://www.w3.org/2000/svg">
<path fill-rule="evenodd" clip-rule="evenodd" d="M25.33 5.03795H33.87V7.03795H25.33V5.03795ZM14 10.568C15.069 9.69095 16.023 8.68295 16.84 7.56795C17.671 6.26695 18.273 4.83296 18.62 3.32796C20.84 6.15796 25 11.948 25 16.038C25 21.518 22.44 24.298 21.63 25.038H13.12C12.42 24.548 10 22.478 10 17.038C10 14.138 11.94 12.408 14 10.568ZM40 18.038C41.105 18.038 42 18.934 42 20.038C42 21.143 41.105 22.038 40 22.038C38.895 22.038 38 21.143 38 20.038C38 18.934 38.895 18.038 40 18.038ZM31.16 17.038L39 4.52797V16.178C37.05 16.682 35.778 18.557 36.032 20.555C36.286 22.5529 37.986 24.051 40 24.051C42.014 24.051 43.714 22.5529 43.968 20.555C44.222 18.557 42.95 16.682 41 16.178V4.52797L48.84 17.038L44.41 25.038H35.59L31.16 17.038ZM36 31.038H44V36.038H36V31.038ZM46 29.038H34V27.038H46V29.038ZM24 29.038H12V27.038H24V29.038ZM14 31.038H22V36.038H14V31.038ZM33 56.038H25V49.038H33V56.038ZM27 42.038C27 40.934 27.896 40.038 29 40.038C30.104 40.038 31 40.934 31 42.038C31 43.142 30.104 44.038 29 44.038C27.896 44.038 27 43.142 27 42.038ZM30 33.038H32V35.038H30V33.038ZM56 47.038H2V38.038H56V47.038ZM57 5.03795H46.67V7.03795H56V36.038H46V31.038H47C47.552 31.038 48 30.59 48 30.038V26.038C48 25.486 47.552 25.038 47 25.038H46.7L50.87 17.528C51.049 17.219 51.049 16.838 50.87 16.528L40.87 0.527973C40.746 0.292973 40.534 0.116952 40.28 0.0379519C39.853 -0.0830481 39.396 0.0919446 39.16 0.467945L29.16 16.4679C28.981 16.7779 28.981 17.1589 29.16 17.4679L33.3 25.038H33C32.448 25.038 32 25.486 32 26.038V30.038C32 30.59 32.448 31.038 33 31.038H34V36.038H24V31.038H25C25.552 31.038 26 30.59 26 30.038V26.038C26 25.486 25.552 25.038 25 25.038H24.28C26.138 22.412 27.092 19.254 27 16.038C27 9.72795 19.08 0.747948 18.75 0.377948C18.484 0.0739482 18.061 -0.0400532 17.678 0.0889468C17.295 0.217947 17.028 0.564945 17 0.967945C16.808 2.92094 16.182 4.80696 15.17 6.48796C14.437 7.43496 13.595 8.29095 12.66 9.03795C10.48 11.038 8 13.238 8 17.038C8 21.198 9.28001 23.7479 10.46 25.2179C10.18 25.3979 10.007 25.705 10 26.038V30.038C10 30.59 10.448 31.038 11 31.038H12V36.038H2V7.03795H13V5.03795H1C0.448 5.03795 0 5.48595 0 6.03795V48.038C0 48.59 0.448 49.038 1 49.038H23V56.038H15.5V58.038H42.5V56.038H35V49.038H57C57.552 49.038 58 48.59 58 48.038V6.03795C58 5.48595 57.552 5.03795 57 5.03795ZM26 33.038H28V35.038H26V33.038Z" fill="url(#paint0_linear)"/>
<defs>
<linearGradient id="paint0_linear" x1="0" y1="0" x2="47" y2="58" gradientUnits="userSpaceOnUse">
<stop stop-color="#6C63FF"/>
<stop offset="1" stop-color="#682FA0"/>
</linearGradient>
</defs>
</svg>
