<?xml version="1.0" encoding="UTF-8" standalone="no"?><!DOCTYPE svg PUBLIC "-//W3C//DTD SVG 1.1//EN" "http://www.w3.org/Graphics/SVG/1.1/DTD/svg11.dtd"><svg width="100%" height="100%" viewBox="0 0 265 259" version="1.1" xmlns="http://www.w3.org/2000/svg" xmlns:xlink="http://www.w3.org/1999/xlink" xml:space="preserve" xmlns:serif="http://www.serif.com/" style="fill-rule:evenodd;clip-rule:evenodd;stroke-linecap:round;stroke-linejoin:round;stroke-miterlimit:1.5;"><path d="M28.651,79.115c-11.81,27.311 -23.726,76.81 -22.619,101.125c0.81,17.808 14.356,37.748 29.257,44.767c10.905,5.136 31.24,13.817 49.959,20.932c24.697,9.387 51.971,10.005 67.284,11.927c17.041,2.139 38.637,-13.037 52.934,-25.667c14.297,-12.63 24.619,-31.911 32.846,-50.11c9.007,-19.927 20.684,-49.368 21.197,-69.449c0.462,-18.048 -8.983,-36.682 -18.115,-51.041c-9.083,-14.283 -21.936,-26.8 -36.677,-35.118c-18.125,-10.227 -50.767,-24.562 -72.072,-26.246c-19.287,-1.525 -40.339,4.448 -55.754,16.14c-17.332,13.147 -37.769,38.526 -48.24,62.74Z" style="fill:#0096ff;fill-opacity:0.14;"/><g id="Design-2" serif:id="Design 2"><g><clipPath id="_clip1"><path d="M74.919,30.529l-77.852,8.291l15.773,148.106l77.852,-8.291l-15.773,-148.106Z"/></clipPath><g clip-path="url(#_clip1)"><g id="Paint-Brush" serif:id="Paint Brush"><path d="M64.61,68.586c-0.88,-2.685 -3.677,-4.242 -6.423,-3.576l-7.278,1.766c-2.747,0.666 -4.519,3.331 -4.072,6.121l8.128,50.681c0.046,0.289 0.116,0.574 0.208,0.852l15.383,46.248c0.889,2.674 3.678,4.219 6.416,3.555l7.278,-1.765c2.738,-0.664 4.51,-3.316 4.075,-6.1l-7.515,-48.156c-0.045,-0.289 -0.114,-0.575 -0.205,-0.853l-15.995,-48.773Zm-5.147,1.688l-7.278,1.766l8.128,50.68l15.382,46.249l7.278,-1.765l-7.515,-48.157l-15.995,-48.773Z" style="fill:#262626;"/><path d="M59.463,70.274l-7.278,1.766l8.128,50.68l15.382,46.249l7.278,-1.765l-7.515,-48.157l-15.995,-48.773Z" style="fill:#dbceab;"/><path d="M51.485,34.477c-1.886,-1.653 -4.66,-1.795 -6.704,-0.343c-2.045,1.451 -2.827,4.117 -1.889,6.442c0,0 1.524,4.498 -1.587,10.237c-1.398,2.579 -2.553,4.63 -3.161,6.343c-0.763,2.15 -0.87,4.049 -0.447,5.794c2.344,9.665 11.24,15.378 19.387,13.401c8.148,-1.976 13.438,-11.129 11.093,-20.794c-0.614,-2.532 -2.462,-5.751 -4.947,-8.905c-4.767,-6.051 -11.745,-12.175 -11.745,-12.175Zm-3.569,4.074c0,0 13.413,11.751 14.997,18.283c1.584,6.531 -1.6,12.918 -7.106,14.253c-5.505,1.336 -11.262,-2.883 -12.846,-9.414c-0.495,-2.043 1.052,-4.49 3.106,-8.279c4.492,-8.287 1.849,-14.843 1.849,-14.843Z" style="fill:#262626;"/><path d="M47.916,38.551c0,0 13.413,11.751 14.997,18.283c1.584,6.531 -1.6,12.918 -7.106,14.253c-5.505,1.336 -11.262,-2.883 -12.846,-9.414c-0.495,-2.043 1.052,-4.49 3.106,-8.279c4.492,-8.287 1.849,-14.843 1.849,-14.843Z" style="fill:#262626;"/><clipPath id="_clip2"><path d="M47.916,38.551c0,0 13.413,11.751 14.997,18.283c1.584,6.531 -1.6,12.918 -7.106,14.253c-5.505,1.336 -11.262,-2.883 -12.846,-9.414c-0.495,-2.043 1.052,-4.49 3.106,-8.279c4.492,-8.287 1.849,-14.843 1.849,-14.843Z"/></clipPath><g clip-path="url(#_clip2)"><path d="M35.449,61.407c0.83,2.044 3.164,-4.219 4.901,-4.448c1.737,-0.229 3.553,3.029 5.522,3.076c1.969,0.046 4.136,-2.642 6.292,-2.796c2.155,-0.155 4.613,2.546 6.641,1.87c2.027,-0.676 4.838,-3.313 5.522,-5.925c0.921,-3.516 4.56,-12.985 0,-15.169c-5.278,-2.528 -26.854,-3.899 -31.667,0c-4.813,3.899 1.508,20.235 2.789,23.392Z" style="fill:#ff637c;"/></g><g><path d="M51.108,84.769l15.145,-3.674" style="fill:none;stroke:#262626;stroke-width:5.42px;"/></g></g><g id="Pen"><path d="M10.399,44.536c-1.536,-0.711 -3.316,-0.664 -4.812,0.129c-1.496,0.792 -2.535,2.238 -2.809,3.909l-2.706,16.488c-0.246,1.496 0.146,3.026 1.081,4.219l13.49,17.211c1.618,2.064 4.482,2.672 6.799,1.445l11.043,-5.852c2.318,-1.227 3.423,-3.939 2.624,-6.437l-6.665,-20.827c-0.462,-1.443 -1.507,-2.627 -2.883,-3.264l-15.162,-7.021Zm-2.276,4.915l15.162,7.021l6.665,20.827l-11.044,5.851l-13.489,-17.211l2.706,-16.488Z" style="fill:#262626;"/><path d="M8.123,49.451l15.162,7.021l6.665,20.827l-11.044,5.851l-13.489,-17.211l2.706,-16.488Z" style="fill:#e0bdef;"/><path d="M36.055,76.838c-1.4,-2.643 -4.679,-3.651 -7.322,-2.25l-11.387,6.033c-2.643,1.4 -3.651,4.679 -2.25,7.322l48.069,90.726c1.401,2.644 4.679,3.651 7.323,2.251l11.386,-6.033c2.644,-1.401 3.651,-4.679 2.251,-7.323l-48.07,-90.726Zm-4.786,2.536l-11.387,6.033l48.07,90.726l11.386,-6.033l-48.069,-90.726Z" style="fill:#262626;"/><path d="M31.269,79.374l-11.387,6.033l48.07,90.726l11.386,-6.033l-48.069,-90.726Z" style="fill:#666;"/><path d="M8.123,49.451l8.152,15.387" style="fill:none;stroke:#262626;stroke-width:5.42px;"/><path d="M16.275,64.838c0.629,-0.333 1.476,0.032 1.89,0.814c0.415,0.783 0.241,1.688 -0.387,2.021c-0.629,0.333 -1.476,-0.032 -1.89,-0.814c-0.415,-0.783 -0.241,-1.688 0.387,-2.021Z" style="fill:#fff;stroke:#262626;stroke-width:5.42px;"/></g></g></g><g><path d="M116.913,151.402c-2.785,-0.024 -5.511,0.798 -7.818,2.357c-6.265,4.235 -24.822,16.776 -36.528,24.687c-3.749,2.534 -6.011,6.749 -6.05,11.274c-0.039,4.524 2.151,8.779 5.855,11.376c11.569,8.112 29.906,20.97 36.098,25.312c2.28,1.598 4.991,2.467 7.776,2.491c16.43,0.142 106.322,0.915 134.327,1.156c7.593,0.065 13.802,-6.038 13.867,-13.631c0.111,-12.808 0.32,-37.191 0.431,-49.998c0.065,-7.594 -6.038,-13.803 -13.632,-13.868l-134.326,-1.156Zm-0.047,5.417c-1.688,-0.015 -3.34,0.483 -4.738,1.428c-6.265,4.234 -24.822,16.775 -36.528,24.687c-2.272,1.535 -3.643,4.09 -3.667,6.832c-0.023,2.743 1.304,5.321 3.549,6.895c11.568,8.112 29.906,20.97 36.098,25.312c1.382,0.969 3.025,1.495 4.712,1.51c16.431,0.141 106.323,0.915 134.327,1.156c4.602,0.039 8.365,-3.66 8.405,-8.262c0.11,-12.808 0.32,-37.19 0.43,-49.998c0.04,-4.602 -3.659,-8.365 -8.261,-8.405c-28.005,-0.241 -117.897,-1.014 -134.327,-1.155Z" style="fill:#262626;"/><path d="M116.866,156.819c-1.688,-0.015 -3.34,0.483 -4.738,1.428c-6.265,4.234 -24.822,16.775 -36.528,24.687c-2.272,1.535 -3.643,4.09 -3.667,6.832c-0.023,2.743 1.304,5.321 3.549,6.895c11.568,8.112 29.906,20.97 36.098,25.312c1.382,0.969 3.025,1.495 4.712,1.51c16.431,0.141 106.323,0.915 134.327,1.156c4.602,0.039 8.365,-3.66 8.405,-8.262c0.11,-12.808 0.32,-37.19 0.43,-49.998c0.04,-4.602 -3.659,-8.365 -8.261,-8.405c-28.005,-0.241 -117.897,-1.014 -134.327,-1.155Z" style="fill:#fff;"/><path d="M218.072,152.272c-2.991,-0.025 -5.437,2.379 -5.463,5.37l-0.574,66.665c-0.025,2.991 2.379,5.437 5.37,5.463l41.501,0.357c2.991,0.025 5.437,-2.379 5.463,-5.37l0.573,-66.664c0.026,-2.992 -2.378,-5.438 -5.37,-5.463l-41.5,-0.358Zm-0.046,5.417l-0.574,66.664l41.5,0.357l0.574,-66.664l-41.5,-0.357Z" style="fill:#262626;"/><path d="M218.026,157.689l-0.574,66.664l41.5,0.357l0.574,-66.664l-41.5,-0.357Z" style="fill:#3a8fed;"/><path d="M176.572,151.915c-2.992,-0.025 -5.437,2.379 -5.463,5.37l-0.574,66.664c-0.026,2.992 2.379,5.438 5.37,5.464l41.5,0.357c2.992,0.025 5.438,-2.379 5.463,-5.37l0.574,-66.664c0.026,-2.992 -2.378,-5.438 -5.37,-5.464l-41.5,-0.357Zm-0.047,5.417l-0.573,66.664l41.5,0.357l0.574,-66.664l-41.501,-0.357Z" style="fill:#262626;"/><path d="M176.525,157.332l-0.573,66.664l41.5,0.357l0.574,-66.664l-41.501,-0.357Z" style="fill:#78b3f6;"/><path d="M135.072,151.558c-2.992,-0.025 -5.438,2.379 -5.463,5.37l-0.574,66.664c-0.026,2.992 2.378,5.438 5.37,5.463l41.5,0.358c2.991,0.025 5.437,-2.379 5.463,-5.37l0.574,-66.665c0.025,-2.991 -2.379,-5.437 -5.37,-5.463l-41.5,-0.357Zm-0.047,5.417l-0.574,66.664l41.501,0.357l0.573,-66.664l-41.5,-0.357Z" style="fill:#262626;"/><path d="M135.025,156.975l-0.574,66.664l41.501,0.357l0.573,-66.664l-41.5,-0.357Z" style="fill:#bddafb;"/><path d="M87.821,189.903c-0.049,5.769 5.2,11.133 12.382,11.195c7.183,0.062 12.523,-5.211 12.573,-10.98c0.05,-5.769 -5.199,-11.133 -12.382,-11.195c-7.182,-0.062 -12.523,5.211 -12.573,10.98Zm5.417,0.047c0.027,-3.13 3.213,-5.644 7.11,-5.611c3.897,0.034 7.039,2.602 7.012,5.732c-0.027,3.13 -3.213,5.644 -7.11,5.611c-3.897,-0.034 -7.039,-2.602 -7.012,-5.732Z" style="fill:#262626;"/><path d="M93.238,189.95c0.027,-3.13 3.213,-5.644 7.11,-5.611c3.897,0.034 7.039,2.602 7.012,5.732c-0.027,3.13 -3.213,5.644 -7.11,5.611c-3.897,-0.034 -7.039,-2.602 -7.012,-5.732Z" style="fill:#f2f2f2;"/></g><g><path d="M98.787,134.937c-2.59,1.022 -4.809,2.807 -6.362,5.118c-4.219,6.276 -16.714,24.863 -24.596,36.589c-2.525,3.755 -3.04,8.512 -1.378,12.72c1.662,4.209 5.287,7.331 9.696,8.349c13.767,3.178 35.59,8.216 42.958,9.917c2.713,0.626 5.552,0.414 8.142,-0.608c15.283,-6.034 98.897,-39.047 124.946,-49.332c7.063,-2.789 10.528,-10.775 7.74,-17.839c-4.704,-11.913 -13.658,-34.593 -18.362,-46.506c-2.789,-7.063 -10.775,-10.528 -17.839,-7.74l-124.945,49.332Zm1.989,5.038c-1.57,0.62 -2.914,1.701 -3.856,3.102c-4.219,6.276 -16.714,24.863 -24.596,36.589c-1.53,2.276 -1.842,5.159 -0.835,7.709c1.007,2.551 3.205,4.443 5.877,5.06c13.766,3.178 35.589,8.216 42.957,9.917c1.645,0.38 3.365,0.251 4.935,-0.369c15.283,-6.034 98.897,-39.046 124.946,-49.331c4.281,-1.69 6.381,-6.531 4.691,-10.811c-4.704,-11.914 -13.659,-34.593 -18.362,-46.507c-1.69,-4.281 -6.531,-6.381 -10.812,-4.691c-26.048,10.285 -109.663,43.298 -124.945,49.332Z" style="fill:#262626;"/><path d="M100.776,139.975c-1.57,0.62 -2.914,1.701 -3.856,3.102c-4.219,6.276 -16.714,24.863 -24.596,36.589c-1.53,2.276 -1.842,5.159 -0.835,7.709c1.007,2.551 3.205,4.443 5.877,5.06c13.766,3.178 35.589,8.216 42.957,9.917c1.645,0.38 3.365,0.251 4.935,-0.369c15.283,-6.034 98.897,-39.046 124.946,-49.331c4.281,-1.69 6.381,-6.531 4.691,-10.811c-4.704,-11.914 -13.659,-34.593 -18.362,-46.507c-1.69,-4.281 -6.531,-6.381 -10.812,-4.691c-26.048,10.285 -109.663,43.298 -124.945,49.332Z" style="fill:#fff;"/><path d="M192.881,97.786c-2.782,1.098 -4.147,4.245 -3.049,7.027l24.483,62.009c1.098,2.782 4.245,4.147 7.027,3.049l38.602,-15.241c2.783,-1.099 4.148,-4.245 3.049,-7.028l-24.482,-62.008c-1.099,-2.783 -4.245,-4.148 -7.028,-3.049l-38.602,15.241Zm1.99,5.038l24.482,62.009l38.602,-15.241l-24.483,-62.009l-38.601,15.241Z" style="fill:#262626;"/><path d="M194.871,102.824l24.482,62.009l38.602,-15.241l-24.483,-62.009l-38.601,15.241Z" style="fill:#8e44ad;"/><path d="M154.279,113.027c-2.782,1.098 -4.147,4.245 -3.049,7.027l24.483,62.009c1.098,2.782 4.245,4.147 7.027,3.049l38.602,-15.241c2.783,-1.099 4.148,-4.245 3.049,-7.028l-24.482,-62.008c-1.099,-2.783 -4.245,-4.148 -7.028,-3.049l-38.602,15.241Zm1.99,5.038l24.482,62.009l38.602,-15.241l-24.482,-62.009l-38.602,15.241Z" style="fill:#262626;"/><path d="M156.269,118.065l24.482,62.009l38.602,-15.241l-24.482,-62.009l-38.602,15.241Z" style="fill:#b57dcd;"/><path d="M115.677,128.268c-2.782,1.098 -4.147,4.245 -3.049,7.027l24.483,62.009c1.098,2.782 4.245,4.147 7.027,3.049l38.602,-15.241c2.783,-1.099 4.148,-4.245 3.049,-7.028l-24.482,-62.008c-1.099,-2.783 -4.245,-4.148 -7.028,-3.049l-38.602,15.241Zm1.99,5.038l24.482,62.008l38.602,-15.24l-24.482,-62.009l-38.602,15.241Z" style="fill:#262626;"/><path d="M117.667,133.306l24.482,62.008l38.602,-15.24l-24.482,-62.009l-38.602,15.241Z" style="fill:#e0bdef;"/><path d="M86.268,181.54c2.118,5.366 8.996,8.369 15.677,5.731c6.681,-2.638 9.653,-9.529 7.534,-14.895c-2.118,-5.366 -8.996,-8.369 -15.677,-5.731c-6.681,2.638 -9.653,9.529 -7.534,14.895Zm5.038,-1.989c-1.15,-2.911 0.86,-6.437 4.485,-7.868c3.625,-1.431 7.501,-0.229 8.65,2.682c1.15,2.911 -0.86,6.437 -4.485,7.868c-3.625,1.431 -7.501,0.229 -8.65,-2.682Z" style="fill:#262626;"/><path d="M91.306,179.551c-1.15,-2.911 0.86,-6.437 4.485,-7.868c3.625,-1.431 7.501,-0.229 8.65,2.682c1.15,2.911 -0.86,6.437 -4.485,7.868c-3.625,1.431 -7.501,0.229 -8.65,-2.682Z" style="fill:#f2f2f2;"/></g><g><path d="M74.24,130.409c-1.969,1.968 -3.293,4.489 -3.799,7.227c-1.372,7.437 -5.436,29.461 -8,43.356c-0.821,4.449 0.599,9.018 3.799,12.218c3.199,3.199 7.768,4.62 12.218,3.799c13.894,-2.564 35.919,-6.628 43.355,-8.001c2.739,-0.505 5.259,-1.83 7.228,-3.799c11.618,-11.618 75.184,-75.184 94.987,-94.987c5.37,-5.369 5.37,-14.075 0,-19.445c-9.057,-9.057 -26.299,-26.298 -35.355,-35.355c-5.37,-5.37 -14.076,-5.37 -19.446,0l-94.987,94.987Zm3.83,3.83c-1.193,1.193 -1.996,2.72 -2.302,4.38c-1.372,7.436 -5.436,29.461 -8,43.356c-0.498,2.696 0.363,5.465 2.302,7.404c1.939,1.94 4.708,2.8 7.405,2.303c13.894,-2.564 35.919,-6.628 43.355,-8c1.66,-0.307 3.188,-1.11 4.381,-2.303c11.618,-11.618 75.184,-75.184 94.987,-94.987c3.254,-3.254 3.254,-8.53 0,-11.785c-9.057,-9.057 -26.299,-26.298 -35.356,-35.355c-3.254,-3.255 -8.53,-3.255 -11.785,0c-19.802,19.803 -83.368,83.368 -94.987,94.987Z" style="fill:#262626;"/><path d="M78.07,134.239c-1.193,1.193 -1.996,2.72 -2.302,4.38c-1.372,7.436 -5.436,29.461 -8,43.356c-0.498,2.696 0.363,5.465 2.302,7.404c1.939,1.94 4.708,2.8 7.405,2.303c13.894,-2.564 35.919,-6.628 43.355,-8c1.66,-0.307 3.188,-1.11 4.381,-2.303c11.618,-11.618 75.184,-75.184 94.987,-94.987c3.254,-3.254 3.254,-8.53 0,-11.785c-9.057,-9.057 -26.299,-26.298 -35.356,-35.355c-3.254,-3.255 -8.53,-3.255 -11.785,0c-19.802,19.803 -83.368,83.368 -94.987,94.987Z" style="fill:#fff;"/><path d="M145.773,58.875c-2.115,2.116 -2.115,5.545 0,7.661l47.141,47.14c2.115,2.115 5.545,2.115 7.66,0l29.346,-29.346c2.116,-2.115 2.116,-5.545 0,-7.66l-47.14,-47.141c-2.115,-2.115 -5.545,-2.115 -7.66,0l-29.347,29.346Zm3.831,3.83l47.14,47.141l29.346,-29.346l-47.14,-47.141l-29.346,29.346Z" style="fill:#262626;"/><path d="M149.604,62.705l47.14,47.141l29.346,-29.346l-47.14,-47.141l-29.346,29.346Z" style="fill:#ff637c;"/><path d="M116.427,88.222c-2.115,2.115 -2.115,5.544 0,7.66l47.141,47.14c2.115,2.116 5.545,2.116 7.66,0l29.346,-29.346c2.116,-2.115 2.116,-5.545 0,-7.66l-47.14,-47.141c-2.116,-2.115 -5.545,-2.115 -7.661,0l-29.346,29.347Zm3.83,3.83l47.141,47.14l29.346,-29.346l-47.14,-47.141l-29.347,29.347Z" style="fill:#262626;"/><path d="M120.257,92.052l47.141,47.14l29.346,-29.346l-47.14,-47.141l-29.347,29.347Z" style="fill:#ff9bab;"/><path d="M86.346,118.303c-2.115,2.115 -2.115,5.545 0,7.66l47.141,47.14c2.115,2.116 5.545,2.116 7.66,0l27.49,-27.49c2.116,-2.115 2.116,-5.545 0,-7.66l-47.14,-47.141c-2.116,-2.115 -5.545,-2.115 -7.661,0l-27.49,27.491Zm3.83,3.83l47.141,47.14l27.49,-27.49l-47.14,-47.14l-27.491,27.49Z" style="fill:#262626;"/><path d="M90.176,122.133l47.141,47.14l27.49,-27.49l-47.14,-47.14l-27.491,27.49Z" style="fill:#ffd1d9;"/><path d="M89.158,168.819c-2.439,-2.44 -2.439,-6.4 0,-8.839c2.439,-2.439 6.4,-2.439 8.839,0c2.439,2.439 2.439,6.399 0,8.839c-2.439,2.439 -6.4,2.439 -8.839,0Z" style="fill:#333;"/></g></g></svg>