<?xml version="1.0" encoding="UTF-8" standalone="no"?><!DOCTYPE svg PUBLIC "-//W3C//DTD SVG 1.1//EN" "http://www.w3.org/Graphics/SVG/1.1/DTD/svg11.dtd"><svg width="100%" height="100%" viewBox="0 0 265 211" version="1.1" xmlns="http://www.w3.org/2000/svg" xmlns:xlink="http://www.w3.org/1999/xlink" xml:space="preserve" xmlns:serif="http://www.serif.com/" style="fill-rule:evenodd;clip-rule:evenodd;stroke-linejoin:round;stroke-miterlimit:2;"><g id="Design-2" serif:id="Design 2"><g><clipPath id="_clip1"><path d="M74.919,8.81l-77.852,8.291l15.773,148.105l77.852,-8.291l-15.773,-148.105Z"/></clipPath><g clip-path="url(#_clip1)"><g id="Paint-Brush" serif:id="Paint Brush"><path d="M64.61,46.867c-0.88,-2.685 -3.677,-4.242 -6.423,-3.576l-7.278,1.765c-2.747,0.667 -4.519,3.332 -4.072,6.122l8.128,50.681c0.046,0.289 0.116,0.574 0.208,0.852l15.383,46.248c0.889,2.673 3.678,4.219 6.416,3.555l7.278,-1.766c2.738,-0.664 4.51,-3.315 4.075,-6.099l-7.515,-48.156c-0.045,-0.29 -0.114,-0.575 -0.205,-0.853l-15.995,-48.773Zm-5.147,1.688l-7.278,1.765l8.128,50.681l15.382,46.249l7.278,-1.766l-7.515,-48.156l-15.995,-48.773Z" style="fill:#262626;"/><path d="M51.485,12.757c-1.886,-1.652 -4.66,-1.794 -6.704,-0.342c-2.045,1.451 -2.827,4.116 -1.889,6.442c0,0 1.524,4.498 -1.587,10.237c-1.398,2.579 -2.553,4.629 -3.161,6.343c-0.763,2.15 -0.87,4.048 -0.447,5.794c2.344,9.665 11.24,15.377 19.387,13.401c8.148,-1.976 13.438,-11.129 11.093,-20.794c-0.614,-2.532 -2.462,-5.751 -4.947,-8.905c-4.767,-6.051 -11.745,-12.176 -11.745,-12.176Zm-3.569,4.075c-0,-0 13.413,11.751 14.997,18.282c1.584,6.532 -1.6,12.919 -7.106,14.254c-5.505,1.335 -11.262,-2.883 -12.846,-9.414c-0.495,-2.043 1.052,-4.49 3.106,-8.279c4.492,-8.287 1.849,-14.843 1.849,-14.843Z" style="fill:#262626;"/><path d="M47.916,16.832c-0,-0 13.413,11.751 14.997,18.282c1.584,6.532 -1.6,12.919 -7.106,14.254c-5.505,1.335 -11.262,-2.883 -12.846,-9.414c-0.495,-2.043 1.052,-4.49 3.106,-8.279c4.492,-8.287 1.849,-14.843 1.849,-14.843Z" style="fill:#262626;"/><clipPath id="_clip2"><path d="M47.916,16.832c-0,-0 13.413,11.751 14.997,18.282c1.584,6.532 -1.6,12.919 -7.106,14.254c-5.505,1.335 -11.262,-2.883 -12.846,-9.414c-0.495,-2.043 1.052,-4.49 3.106,-8.279c4.492,-8.287 1.849,-14.843 1.849,-14.843Z"/></clipPath><g clip-path="url(#_clip2)"><path d="M35.449,39.688c0.83,2.044 3.164,-4.219 4.901,-4.448c1.737,-0.229 3.553,3.029 5.522,3.076c1.969,0.046 4.136,-2.642 6.292,-2.797c2.155,-0.154 4.613,2.547 6.641,1.871c2.027,-0.676 4.838,-3.313 5.522,-5.925c0.921,-3.516 4.56,-12.985 0,-15.169c-5.278,-2.529 -26.854,-3.899 -31.667,-0c-4.813,3.898 1.508,20.235 2.789,23.392Z" style="fill:#fff;"/></g><g><path d="M51.108,63.05l15.145,-3.674" style="fill:none;stroke:#262626;stroke-width:5.42px;stroke-linecap:round;stroke-miterlimit:1.5;"/></g></g><g id="Pen"><path d="M10.399,22.817c-1.536,-0.712 -3.316,-0.664 -4.812,0.129c-1.496,0.792 -2.535,2.238 -2.809,3.909l-2.706,16.488c-0.246,1.495 0.146,3.026 1.081,4.218l13.49,17.211c1.618,2.065 4.482,2.673 6.799,1.445l11.043,-5.851c2.318,-1.228 3.423,-3.939 2.624,-6.437l-6.665,-20.827c-0.462,-1.444 -1.507,-2.628 -2.883,-3.265l-15.162,-7.02Zm-2.276,4.915l15.162,7.021l6.665,20.827l-11.044,5.851l-13.489,-17.211l2.706,-16.488Z" style="fill:#262626;"/><path d="M36.055,55.119c-1.4,-2.644 -4.679,-3.651 -7.322,-2.251l-11.387,6.034c-2.643,1.4 -3.651,4.678 -2.25,7.322l48.069,90.726c1.401,2.643 4.679,3.651 7.323,2.25l11.386,-6.033c2.644,-1.4 3.651,-4.678 2.251,-7.322l-48.07,-90.726Zm-4.786,2.536l-11.387,6.033l48.07,90.726l11.386,-6.033l-48.069,-90.726Z" style="fill:#262626;"/><path d="M8.123,27.732l8.152,15.387" style="fill:none;stroke:#262626;stroke-width:5.42px;stroke-linecap:round;stroke-miterlimit:1.5;"/><path d="M16.275,43.119c0.629,-0.333 1.476,0.032 1.89,0.814c0.415,0.782 0.241,1.688 -0.387,2.021c-0.629,0.333 -1.476,-0.032 -1.89,-0.814c-0.415,-0.783 -0.241,-1.688 0.387,-2.021Z" style="fill:none;stroke:#262626;stroke-width:5.42px;stroke-linecap:round;stroke-miterlimit:1.5;"/></g></g></g><g><path d="M116.913,129.683c-2.785,-0.024 -5.511,0.798 -7.818,2.357c-6.265,4.234 -24.822,16.775 -36.528,24.687c-3.749,2.533 -6.011,6.749 -6.05,11.274c-0.039,4.524 2.151,8.778 5.855,11.376c11.569,8.112 29.906,20.97 36.098,25.312c2.28,1.598 4.991,2.467 7.776,2.491c16.43,0.141 106.322,0.915 134.327,1.156c7.593,0.065 13.802,-6.038 13.867,-13.631c0.111,-12.808 0.32,-37.191 0.431,-49.999c0.065,-7.593 -6.038,-13.802 -13.632,-13.867l-134.326,-1.156Zm-0.047,5.416c-1.688,-0.014 -3.34,0.484 -4.738,1.429c-6.265,4.234 -24.822,16.775 -36.528,24.687c-2.272,1.535 -3.643,4.09 -3.667,6.832c-0.023,2.742 1.304,5.321 3.549,6.895c11.568,8.112 29.906,20.97 36.098,25.312c1.382,0.968 3.025,1.495 4.712,1.51c16.431,0.141 106.323,0.914 134.327,1.155c4.602,0.04 8.365,-3.659 8.405,-8.261c0.11,-12.808 0.32,-37.19 0.43,-49.998c0.04,-4.602 -3.659,-8.365 -8.261,-8.405c-28.005,-0.241 -117.897,-1.014 -134.327,-1.156Z" style="fill:#262626;"/><path d="M116.866,135.099c-1.688,-0.014 -3.34,0.484 -4.738,1.429c-6.265,4.234 -24.822,16.775 -36.528,24.687c-2.272,1.535 -3.643,4.09 -3.667,6.832c-0.023,2.742 1.304,5.321 3.549,6.895c11.568,8.112 29.906,20.97 36.098,25.312c1.382,0.968 3.025,1.495 4.712,1.51c16.431,0.141 106.323,0.914 134.327,1.155c4.602,0.04 8.365,-3.659 8.405,-8.261c0.11,-12.808 0.32,-37.19 0.43,-49.998c0.04,-4.602 -3.659,-8.365 -8.261,-8.405c-28.005,-0.241 -117.897,-1.014 -134.327,-1.156Z" style="fill:#fff;"/><path d="M126.692,143.589l-0.574,66.664l41.5,0.357l0.574,-66.664l-41.5,-0.357Z" style="fill:#3a8fed;"/><path d="M218.072,130.553c-2.991,-0.025 -5.437,2.379 -5.463,5.37l-0.574,66.664c-0.025,2.992 2.379,5.438 5.37,5.463l41.501,0.357c2.991,0.026 5.437,-2.378 5.463,-5.369l0.573,-66.665c0.026,-2.991 -2.378,-5.437 -5.37,-5.463l-41.5,-0.357Zm-0.046,5.417l-0.574,66.664l41.5,0.357l0.574,-66.664l-41.5,-0.357Z" style="fill:#262626;"/><path d="M218.026,135.97l-0.574,66.664l41.5,0.357l0.574,-66.664l-41.5,-0.357Z" style="fill:#fff;"/><path d="M176.572,130.196c-2.992,-0.026 -5.437,2.379 -5.463,5.37l-0.574,66.664c-0.026,2.992 2.379,5.438 5.37,5.463l41.5,0.357c2.992,0.026 5.438,-2.378 5.463,-5.369l0.574,-66.665c0.026,-2.991 -2.378,-5.437 -5.37,-5.463l-41.5,-0.357Zm-0.047,5.417l-0.573,66.664l41.5,0.357l0.574,-66.664l-41.501,-0.357Z" style="fill:#262626;"/><path d="M176.525,135.613l-0.573,66.664l41.5,0.357l0.574,-66.664l-41.501,-0.357Z" style="fill:#fff;"/><path d="M129.081,129.808c-2.991,-0.026 -5.437,2.378 -5.463,5.37l-0.573,69.285c-0.026,2.992 2.378,2.816 5.37,2.842l41.5,0.357c2.991,0.026 5.437,-2.378 5.463,-5.37l0.573,-66.664c0.026,-2.991 -2.378,-5.437 -5.369,-5.463l-41.501,-0.357Zm-0.046,5.416l-0.574,66.665l41.5,0.357l0.574,-66.664l-41.5,-0.358Z" style="fill:#262626;"/><path d="M87.821,168.184c-0.049,5.769 5.2,11.133 12.382,11.195c7.183,0.062 12.523,-5.211 12.573,-10.98c0.05,-5.769 -5.199,-11.133 -12.382,-11.195c-7.182,-0.062 -12.523,5.211 -12.573,10.98Zm5.417,0.047c0.027,-3.13 3.213,-5.644 7.11,-5.611c3.897,0.034 7.039,2.602 7.012,5.732c-0.027,3.13 -3.213,5.644 -7.11,5.61c-3.897,-0.033 -7.039,-2.601 -7.012,-5.731Z" style="fill:#262626;"/><path d="M93.238,168.231c0.027,-3.13 3.213,-5.644 7.11,-5.611c3.897,0.034 7.039,2.602 7.012,5.732c-0.027,3.13 -3.213,5.644 -7.11,5.61c-3.897,-0.033 -7.039,-2.601 -7.012,-5.731Z" style="fill:#f2f2f2;"/></g><g><path d="M98.787,113.217c-2.59,1.023 -4.809,2.808 -6.362,5.119c-4.219,6.275 -16.714,24.863 -24.596,36.589c-2.525,3.755 -3.04,8.512 -1.378,12.72c1.662,4.209 5.287,7.33 9.696,8.348c13.767,3.179 35.59,8.217 42.958,9.918c2.713,0.626 5.552,0.414 8.142,-0.609c15.283,-6.034 98.897,-39.047 124.946,-49.331c7.063,-2.789 10.528,-10.775 7.74,-17.839c-4.704,-11.913 -13.658,-34.593 -18.362,-46.506c-2.789,-7.064 -10.775,-10.529 -17.839,-7.74l-124.945,49.331Zm1.989,5.039c-1.57,0.619 -2.914,1.701 -3.856,3.102c-4.219,6.275 -16.714,24.863 -24.596,36.589c-1.53,2.275 -1.842,5.158 -0.835,7.709c1.007,2.551 3.205,4.443 5.877,5.059c13.766,3.179 35.589,8.217 42.957,9.918c1.645,0.379 3.365,0.251 4.935,-0.369c15.283,-6.034 98.897,-39.047 124.946,-49.331c4.281,-1.69 6.381,-6.531 4.691,-10.812c-4.704,-11.913 -13.659,-34.593 -18.362,-46.506c-1.69,-4.281 -6.531,-6.381 -10.812,-4.691c-26.048,10.285 -109.663,43.298 -124.945,49.332Z" style="fill:#262626;"/><path d="M100.776,118.256c-1.57,0.619 -2.914,1.701 -3.856,3.102c-4.219,6.275 -16.714,24.863 -24.596,36.589c-1.53,2.275 -1.842,5.158 -0.835,7.709c1.007,2.551 3.205,4.443 5.877,5.059c13.766,3.179 35.589,8.217 42.957,9.918c1.645,0.379 3.365,0.251 4.935,-0.369c15.283,-6.034 98.897,-39.047 124.946,-49.331c4.281,-1.69 6.381,-6.531 4.691,-10.812c-4.704,-11.913 -13.659,-34.593 -18.362,-46.506c-1.69,-4.281 -6.531,-6.381 -10.812,-4.691c-26.048,10.285 -109.663,43.298 -124.945,49.332Z" style="fill:#fff;"/><path d="M192.881,76.067c-2.782,1.098 -4.147,4.245 -3.049,7.027l24.483,62.009c1.098,2.782 4.245,4.147 7.027,3.049l38.602,-15.241c2.783,-1.099 4.148,-4.245 3.049,-7.028l-24.482,-62.008c-1.099,-2.783 -4.245,-4.148 -7.028,-3.049l-38.602,15.241Zm1.99,5.038l24.482,62.008l38.602,-15.241l-24.483,-62.008l-38.601,15.241Z" style="fill:#262626;"/><path d="M194.871,81.105l24.482,62.008l38.602,-15.241l-24.483,-62.008l-38.601,15.241Z" style="fill:#fff;"/><path d="M170.699,103.917c-1.066,0.421 -1.589,1.627 -1.168,2.692l22.958,58.149c0.42,1.065 1.627,1.588 2.692,1.168l34.742,-13.717c1.065,-0.421 1.588,-1.627 1.168,-2.692l-22.958,-58.149c-0.421,-1.065 -1.627,-1.588 -2.693,-1.168l-34.741,13.717Z" style="fill:#8e44ad;"/><path d="M154.279,91.308c-2.782,1.098 -4.147,4.244 -3.049,7.027l24.483,62.009c1.098,2.782 4.245,4.147 7.027,3.049l38.602,-15.241c2.783,-1.099 4.148,-4.245 3.049,-7.028l-24.482,-62.008c-1.099,-2.783 -4.245,-4.148 -7.028,-3.049l-38.602,15.241Zm1.99,5.038l24.482,62.008l38.602,-15.241l-24.482,-62.008l-38.602,15.241Z" style="fill:#262626;"/><path d="M115.677,106.549c-2.782,1.098 -4.147,4.244 -3.049,7.027l24.483,62.008c1.098,2.783 4.245,4.148 7.027,3.049l38.602,-15.24c2.783,-1.099 4.148,-4.245 3.049,-7.028l-24.482,-62.008c-1.099,-2.783 -4.245,-4.148 -7.028,-3.049l-38.602,15.241Zm1.99,5.038l24.482,62.008l38.602,-15.241l-24.482,-62.008l-38.602,15.241Z" style="fill:#262626;"/><path d="M117.667,111.587l24.482,62.008l38.602,-15.241l-24.482,-62.008l-38.602,15.241Z" style="fill:#fff;"/><path d="M86.268,159.821c2.118,5.366 8.996,8.369 15.677,5.731c6.681,-2.638 9.653,-9.529 7.534,-14.895c-2.118,-5.366 -8.996,-8.369 -15.677,-5.731c-6.681,2.637 -9.653,9.529 -7.534,14.895Zm5.038,-1.989c-1.15,-2.911 0.86,-6.437 4.485,-7.868c3.625,-1.431 7.501,-0.23 8.65,2.682c1.15,2.911 -0.86,6.437 -4.485,7.868c-3.625,1.431 -7.501,0.229 -8.65,-2.682Z" style="fill:#262626;"/><path d="M91.306,157.832c-1.15,-2.911 0.86,-6.437 4.485,-7.868c3.625,-1.431 7.501,-0.23 8.65,2.682c1.15,2.911 -0.86,6.437 -4.485,7.868c-3.625,1.431 -7.501,0.229 -8.65,-2.682Z" style="fill:#f2f2f2;"/></g><g><path d="M74.24,108.689c-1.969,1.969 -3.293,4.49 -3.799,7.228c-1.372,7.436 -5.436,29.461 -8,43.356c-0.821,4.449 0.599,9.018 3.799,12.217c3.199,3.2 7.768,4.62 12.218,3.799c13.894,-2.563 35.919,-6.628 43.355,-8c2.739,-0.505 5.259,-1.83 7.228,-3.799c13.799,-13.799 100.879,-100.879 100.879,-100.879c2.116,-2.116 2.116,-5.545 0,-7.661c0,0 -28.602,-28.602 -41.247,-41.248c-5.37,-5.369 -14.076,-5.369 -19.446,0l-94.987,94.987Zm3.83,3.83c-1.193,1.194 -1.996,2.721 -2.302,4.381c-1.372,7.436 -5.436,29.461 -8,43.355c-0.498,2.697 0.363,5.466 2.302,7.405c1.939,1.939 4.708,2.8 7.405,2.303c13.894,-2.564 35.919,-6.628 43.355,-8.001c1.66,-0.306 3.188,-1.109 4.381,-2.302c13.799,-13.799 100.879,-100.879 100.879,-100.879c0,-0 -28.602,-28.603 -41.248,-41.248c-3.254,-3.255 -8.53,-3.255 -11.785,-0c-19.802,19.802 -83.368,83.368 -94.987,94.986Z" style="fill:#262626;"/><path d="M78.07,112.519c-1.193,1.194 -1.996,2.721 -2.302,4.381c-1.372,7.436 -5.436,29.461 -8,43.355c-0.498,2.697 0.363,5.466 2.302,7.405c1.939,1.939 4.708,2.8 7.405,2.303c13.894,-2.564 35.919,-6.628 43.355,-8.001c1.66,-0.306 3.188,-1.109 4.381,-2.302c13.799,-13.799 100.879,-100.879 100.879,-100.879c0,-0 -28.602,-28.603 -41.248,-41.248c-3.254,-3.255 -8.53,-3.255 -11.785,-0c-19.802,19.802 -83.368,83.368 -94.987,94.986Z" style="fill:#fff;"/><path d="M151.071,27.019c-0.81,0.81 -0.81,2.125 -0,2.935l44.206,44.205c0.81,0.81 2.125,0.81 2.934,0l26.412,-26.411c0.81,-0.81 0.81,-2.125 -0,-2.935l-44.206,-44.206c-0.81,-0.809 -2.125,-0.809 -2.935,0l-26.411,26.412Z" style="fill:#ff637c;"/><path d="M149.207,33.722c-0.718,0.718 -1.139,1.631 -1.269,2.602c-0.215,1.595 0.351,3.348 1.666,4.662l47.14,47.141c2.115,2.115 5.368,2.293 7.264,0.396l26.309,-26.309c1.896,-1.896 1.719,-5.148 -0.397,-7.264l-47.14,-47.14c-2.115,-2.115 -5.368,-2.293 -7.264,-0.397l-26.309,26.309Zm3.83,3.831l47.141,47.14l26.309,-26.309l-47.141,-47.14l-26.309,26.309Z" style="fill:#262626;"/><path d="M116.427,66.502c-2.115,2.116 -2.115,5.545 0,7.661l47.141,47.14c2.115,2.115 5.545,2.115 7.66,0l29.346,-29.346c2.116,-2.115 2.116,-5.545 0,-7.66l-47.14,-47.141c-2.116,-2.115 -5.545,-2.115 -7.661,0l-29.346,29.346Zm3.83,3.83l47.141,47.141l29.346,-29.346l-47.14,-47.141l-29.347,29.346Z" style="fill:#262626;"/><path d="M120.257,70.332l47.141,47.141l29.346,-29.346l-47.14,-47.141l-29.347,29.346Z" style="fill:#fff;"/><path d="M86.346,96.583c-2.115,2.116 -2.115,5.545 0,7.661l47.141,47.14c2.115,2.116 5.545,2.116 7.66,0l27.49,-27.49c2.116,-2.115 2.116,-5.545 0,-7.66l-47.14,-47.141c-2.116,-2.115 -5.545,-2.115 -7.661,0l-27.49,27.49Zm3.83,3.831l47.141,47.14l27.49,-27.49l-47.14,-47.141l-27.491,27.491Z" style="fill:#262626;"/><path d="M90.176,100.414l47.141,47.14l27.49,-27.49l-47.14,-47.141l-27.491,27.491Z" style="fill:#fff;"/><path d="M88.44,148.96c-2.439,-2.439 -2.439,-6.399 -0,-8.839c2.439,-2.439 6.399,-2.439 8.839,0c2.439,2.44 2.439,6.4 -0,8.839c-2.44,2.439 -6.4,2.439 -8.839,0Z" style="fill:#333;"/></g></g></svg>