<?xml version="1.0" encoding="UTF-8" standalone="no"?><!DOCTYPE svg PUBLIC "-//W3C//DTD SVG 1.1//EN" "http://www.w3.org/Graphics/SVG/1.1/DTD/svg11.dtd"><svg width="100%" height="100%" viewBox="0 0 264 259" version="1.1" xmlns="http://www.w3.org/2000/svg" xmlns:xlink="http://www.w3.org/1999/xlink" xml:space="preserve" xmlns:serif="http://www.serif.com/" style="fill-rule:evenodd;clip-rule:evenodd;stroke-linecap:round;stroke-linejoin:round;stroke-miterlimit:1.5;"><path d="M27.818,79.115c-11.81,27.311 -23.726,76.81 -22.62,101.125c0.811,17.808 14.356,37.748 29.257,44.767c10.905,5.136 31.24,13.817 49.959,20.932c24.697,9.387 51.972,10.005 67.285,11.927c17.04,2.139 38.637,-13.037 52.934,-25.667c14.296,-12.63 24.619,-31.911 32.845,-50.11c9.008,-19.927 20.684,-49.368 21.198,-69.449c0.462,-18.048 -8.983,-36.682 -18.115,-51.041c-9.083,-14.283 -21.936,-26.8 -36.678,-35.118c-18.124,-10.227 -50.767,-24.562 -72.071,-26.246c-19.288,-1.525 -40.339,4.448 -55.754,16.14c-17.333,13.147 -37.77,38.526 -48.24,62.74Z" style="fill:#0096ff;fill-opacity:0.14;"/><g id="Design-2" serif:id="Design 2"><g><g id="Paint-Brush" serif:id="Paint Brush"><path d="M62.985,68.846c-0.745,-2.272 -3.111,-3.589 -5.435,-3.026l-7.278,1.765c-2.324,0.564 -3.824,2.819 -3.445,5.18l8.127,50.681c0.039,0.245 0.098,0.486 0.177,0.721l15.382,46.248c0.752,2.262 3.113,3.57 5.429,3.008l7.278,-1.765c2.317,-0.562 3.816,-2.806 3.449,-5.161l-7.516,-48.157c-0.038,-0.244 -0.096,-0.486 -0.173,-0.721l-15.995,-48.773Zm-4.355,1.428l-7.278,1.766l8.128,50.68l15.382,46.249l7.278,-1.765l-7.515,-48.157l-15.995,-48.773Z" style="fill:#262626;"/><path d="M58.63,70.274l-7.278,1.766l8.128,50.68l15.382,46.249l7.278,-1.765l-7.515,-48.157l-15.995,-48.773Z" style="fill:#dbceab;"/><path d="M50.103,35.103c-1.596,-1.398 -3.943,-1.518 -5.673,-0.29c-1.731,1.229 -2.392,3.484 -1.598,5.452c0,0 1.695,4.814 -1.628,10.945c-1.373,2.532 -2.511,4.543 -3.108,6.225c-0.7,1.974 -0.811,3.716 -0.422,5.318c2.227,9.183 10.64,14.666 18.381,12.788c7.741,-1.877 12.706,-10.605 10.479,-19.788c-0.593,-2.443 -2.394,-5.541 -4.792,-8.585c-4.724,-5.997 -11.639,-12.065 -11.639,-12.065Zm-3.02,3.448c0,0 13.413,11.751 14.997,18.283c1.584,6.531 -1.6,12.918 -7.106,14.253c-5.506,1.336 -11.262,-2.883 -12.846,-9.414c-0.496,-2.043 1.052,-4.49 3.106,-8.279c4.492,-8.287 1.849,-14.843 1.849,-14.843Z" style="fill:#262626;"/><path d="M47.083,38.551c0,0 13.413,11.751 14.997,18.283c1.584,6.531 -1.6,12.918 -7.106,14.253c-5.506,1.336 -11.262,-2.883 -12.846,-9.414c-0.496,-2.043 1.052,-4.49 3.106,-8.279c4.492,-8.287 1.849,-14.843 1.849,-14.843Z" style="fill:#262626;"/><clipPath id="_clip1"><path d="M47.083,38.551c0,0 13.413,11.751 14.997,18.283c1.584,6.531 -1.6,12.918 -7.106,14.253c-5.506,1.336 -11.262,-2.883 -12.846,-9.414c-0.496,-2.043 1.052,-4.49 3.106,-8.279c4.492,-8.287 1.849,-14.843 1.849,-14.843Z"/></clipPath><g clip-path="url(#_clip1)"><path d="M34.616,61.407c0.83,2.044 3.163,-4.219 4.9,-4.448c1.738,-0.229 3.554,3.029 5.523,3.076c1.969,0.046 4.136,-2.642 6.291,-2.796c2.156,-0.155 4.614,2.546 6.641,1.87c2.028,-0.676 4.839,-3.313 5.523,-5.925c0.92,-3.516 4.56,-12.985 0,-15.169c-5.278,-2.528 -26.854,-3.899 -31.667,0c-4.813,3.899 1.507,20.235 2.789,23.392Z" style="fill:#ff637c;"/></g><g><path d="M50.275,84.769l15.145,-3.674" style="fill:none;stroke:#262626;stroke-width:4.58px;"/></g></g><g id="Pen"><path d="M9.216,45.292c-1.3,-0.602 -2.806,-0.561 -4.072,0.109c-1.266,0.671 -2.145,1.894 -2.377,3.308l-2.706,16.488c-0.208,1.265 0.124,2.56 0.915,3.57l13.489,17.211c1.369,1.746 3.793,2.261 5.754,1.222l11.043,-5.851c1.961,-1.039 2.896,-3.333 2.219,-5.447l-6.664,-20.827c-0.391,-1.221 -1.275,-2.223 -2.439,-2.762l-15.162,-7.021Zm-1.926,4.159l15.162,7.021l6.664,20.827l-11.043,5.851l-13.49,-17.211l2.707,-16.488Z" style="fill:#262626;"/><path d="M7.29,49.451l15.162,7.021l6.664,20.827l-11.043,5.851l-13.49,-17.211l2.707,-16.488Z" style="fill:#e0bdef;"/><path d="M34.485,77.228c-1.185,-2.237 -3.959,-3.089 -6.195,-1.904l-11.387,6.033c-2.237,1.185 -3.089,3.959 -1.904,6.196l48.069,90.726c1.185,2.237 3.959,3.089 6.196,1.904l11.387,-6.033c2.237,-1.185 3.089,-3.959 1.904,-6.196l-48.07,-90.726Zm-4.05,2.146l-11.386,6.033l48.069,90.726l11.387,-6.033l-48.07,-90.726Z" style="fill:#262626;"/><path d="M30.435,79.374l-11.386,6.033l48.069,90.726l11.387,-6.033l-48.07,-90.726Z" style="fill:#666;"/><path d="M7.29,49.451l8.152,15.387" style="fill:none;stroke:#262626;stroke-width:4.58px;"/><path d="M15.442,64.838c0.629,-0.333 1.475,0.032 1.89,0.814c0.414,0.783 0.241,1.688 -0.388,2.021c-0.628,0.333 -1.475,-0.032 -1.889,-0.814c-0.415,-0.783 -0.241,-1.688 0.387,-2.021Z" style="fill:#fff;stroke:#262626;stroke-width:4.58px;"/></g></g><g><path d="M116.072,152.235c-2.616,-0.022 -5.176,0.75 -7.344,2.215c-6.265,4.234 -24.821,16.775 -36.528,24.686c-3.521,2.38 -5.647,6.341 -5.683,10.591c-0.037,4.25 2.02,8.247 5.5,10.687c11.569,8.112 29.907,20.97 36.098,25.312c2.142,1.501 4.689,2.317 7.305,2.34c16.43,0.141 106.322,0.915 134.326,1.156c7.134,0.061 12.966,-5.672 13.028,-12.805c0.11,-12.808 0.32,-37.191 0.43,-49.999c0.061,-7.133 -5.672,-12.965 -12.805,-13.027l-134.327,-1.156Zm-0.039,4.584c-1.688,-0.015 -3.34,0.483 -4.738,1.428c-6.266,4.234 -24.822,16.775 -36.528,24.687c-2.272,1.535 -3.643,4.09 -3.667,6.832c-0.024,2.743 1.303,5.321 3.549,6.895c11.568,8.112 29.906,20.97 36.097,25.312c1.382,0.969 3.026,1.495 4.713,1.51c16.43,0.141 106.323,0.915 134.327,1.156c4.602,0.039 8.365,-3.66 8.405,-8.262c0.11,-12.808 0.32,-37.19 0.43,-49.998c0.039,-4.602 -3.659,-8.365 -8.262,-8.405c-28.004,-0.241 -117.896,-1.014 -134.326,-1.155Z" style="fill:#262626;"/><path d="M116.033,156.819c-1.688,-0.015 -3.34,0.483 -4.738,1.428c-6.266,4.234 -24.822,16.775 -36.528,24.687c-2.272,1.535 -3.643,4.09 -3.667,6.832c-0.024,2.743 1.303,5.321 3.549,6.895c11.568,8.112 29.906,20.97 36.097,25.312c1.382,0.969 3.026,1.495 4.713,1.51c16.43,0.141 106.323,0.915 134.327,1.156c4.602,0.039 8.365,-3.66 8.405,-8.262c0.11,-12.808 0.32,-37.19 0.43,-49.998c0.039,-4.602 -3.659,-8.365 -8.262,-8.405c-28.004,-0.241 -117.896,-1.014 -134.326,-1.155Z" style="fill:#fff;"/><path d="M217.232,153.106c-2.532,-0.022 -4.601,2.012 -4.623,4.543l-0.574,66.665c-0.021,2.531 2.013,4.601 4.544,4.622l41.5,0.357c2.532,0.022 4.601,-2.012 4.623,-4.543l0.574,-66.665c0.021,-2.531 -2.013,-4.6 -4.544,-4.622l-41.5,-0.357Zm-0.04,4.583l-0.573,66.664l41.5,0.357l0.573,-66.664l-41.5,-0.357Z" style="fill:#262626;"/><path d="M217.192,157.689l-0.573,66.664l41.5,0.357l0.573,-66.664l-41.5,-0.357Z" style="fill:#3a8fed;"/><path d="M175.731,152.749c-2.531,-0.022 -4.6,2.012 -4.622,4.543l-0.574,66.665c-0.022,2.531 2.013,4.6 4.544,4.622l41.5,0.357c2.531,0.022 4.601,-2.012 4.623,-4.543l0.573,-66.665c0.022,-2.531 -2.012,-4.6 -4.543,-4.622l-41.501,-0.357Zm-0.039,4.583l-0.574,66.664l41.501,0.357l0.573,-66.664l-41.5,-0.357Z" style="fill:#262626;"/><path d="M175.692,157.332l-0.574,66.664l41.501,0.357l0.573,-66.664l-41.5,-0.357Z" style="fill:#78b3f6;"/><path d="M134.231,152.392c-2.531,-0.022 -4.601,2.012 -4.622,4.543l-0.574,66.665c-0.022,2.531 2.012,4.6 4.544,4.622l41.5,0.357c2.531,0.022 4.601,-2.012 4.622,-4.544l0.574,-66.664c0.022,-2.531 -2.012,-4.601 -4.544,-4.622l-41.5,-0.357Zm-0.039,4.583l-0.574,66.664l41.5,0.357l0.574,-66.664l-41.5,-0.357Z" style="fill:#262626;"/><path d="M134.192,156.975l-0.574,66.664l41.5,0.357l0.574,-66.664l-41.5,-0.357Z" style="fill:#bddafb;"/><path d="M87.821,189.91c-0.046,5.363 4.88,10.297 11.556,10.355c6.677,0.057 11.686,-4.792 11.732,-10.154c0.047,-5.363 -4.879,-10.297 -11.555,-10.355c-6.677,-0.057 -11.686,4.792 -11.733,10.154Zm4.584,0.04c0.027,-3.13 3.212,-5.644 7.109,-5.611c3.897,0.034 7.039,2.602 7.012,5.732c-0.027,3.13 -3.212,5.644 -7.109,5.611c-3.897,-0.034 -7.039,-2.602 -7.012,-5.732Z" style="fill:#262626;"/><path d="M92.405,189.95c0.027,-3.13 3.212,-5.644 7.109,-5.611c3.897,0.034 7.039,2.602 7.012,5.732c-0.027,3.13 -3.212,5.644 -7.109,5.611c-3.897,-0.034 -7.039,-2.602 -7.012,-5.732Z" style="fill:#f2f2f2;"/></g><g><path d="M98.259,135.712c-2.433,0.96 -4.517,2.637 -5.976,4.808c-4.219,6.276 -16.714,24.863 -24.596,36.589c-2.371,3.527 -2.855,7.996 -1.294,11.949c1.561,3.954 4.967,6.886 9.108,7.843c13.767,3.178 35.59,8.216 42.958,9.917c2.549,0.588 5.216,0.389 7.649,-0.572c15.283,-6.034 98.897,-39.046 124.946,-49.331c6.635,-2.62 9.89,-10.122 7.27,-16.758c-4.703,-11.913 -13.658,-34.593 -18.361,-46.506c-2.62,-6.635 -10.123,-9.89 -16.758,-7.271l-124.946,49.332Zm1.683,4.263c-1.569,0.62 -2.914,1.701 -3.855,3.102c-4.219,6.276 -16.714,24.863 -24.596,36.589c-1.53,2.276 -1.842,5.159 -0.835,7.709c1.007,2.551 3.204,4.443 5.876,5.06c13.767,3.178 35.59,8.216 42.958,9.917c1.644,0.38 3.365,0.251 4.935,-0.369c15.282,-6.034 98.897,-39.046 124.945,-49.331c4.281,-1.69 6.381,-6.531 4.691,-10.811c-4.703,-11.914 -13.658,-34.593 -18.362,-46.507c-1.69,-4.281 -6.53,-6.381 -10.811,-4.691c-26.048,10.285 -109.663,43.298 -124.946,49.332Z" style="fill:#262626;"/><path d="M99.942,139.975c-1.569,0.62 -2.914,1.701 -3.855,3.102c-4.219,6.276 -16.714,24.863 -24.596,36.589c-1.53,2.276 -1.842,5.159 -0.835,7.709c1.007,2.551 3.204,4.443 5.876,5.06c13.767,3.178 35.59,8.216 42.958,9.917c1.644,0.38 3.365,0.251 4.935,-0.369c15.282,-6.034 98.897,-39.046 124.945,-49.331c4.281,-1.69 6.381,-6.531 4.691,-10.811c-4.703,-11.914 -13.658,-34.593 -18.362,-46.507c-1.69,-4.281 -6.53,-6.381 -10.811,-4.691c-26.048,10.285 -109.663,43.298 -124.946,49.332Z" style="fill:#fff;"/><path d="M192.354,98.561c-2.354,0.93 -3.51,3.592 -2.58,5.946l24.482,62.009c0.93,2.354 3.592,3.509 5.947,2.58l38.602,-15.241c2.354,-0.93 3.509,-3.592 2.58,-5.947l-24.483,-62.008c-0.929,-2.354 -3.592,-3.51 -5.946,-2.58l-38.602,15.241Zm1.683,4.263l24.483,62.009l38.602,-15.241l-24.483,-62.009l-38.602,15.241Z" style="fill:#262626;"/><path d="M194.037,102.824l24.483,62.009l38.602,-15.241l-24.483,-62.009l-38.602,15.241Z" style="fill:#8e44ad;"/><path d="M153.752,113.802c-2.354,0.929 -3.509,3.592 -2.58,5.946l24.482,62.009c0.93,2.354 3.592,3.509 5.947,2.58l38.602,-15.241c2.354,-0.93 3.509,-3.592 2.58,-5.947l-24.483,-62.008c-0.929,-2.355 -3.592,-3.51 -5.946,-2.58l-38.602,15.241Zm1.683,4.263l24.483,62.009l38.602,-15.241l-24.483,-62.009l-38.602,15.241Z" style="fill:#262626;"/><path d="M155.435,118.065l24.483,62.009l38.602,-15.241l-24.483,-62.009l-38.602,15.241Z" style="fill:#b57dcd;"/><path d="M115.15,129.043c-2.354,0.929 -3.509,3.592 -2.58,5.946l24.483,62.009c0.929,2.354 3.591,3.509 5.946,2.58l38.602,-15.241c2.354,-0.93 3.509,-3.592 2.58,-5.947l-24.483,-62.008c-0.929,-2.355 -3.592,-3.51 -5.946,-2.58l-38.602,15.241Zm1.683,4.263l24.483,62.008l38.602,-15.24l-24.483,-62.009l-38.602,15.241Z" style="fill:#262626;"/><path d="M116.833,133.306l24.483,62.008l38.602,-15.24l-24.483,-62.009l-38.602,15.241Z" style="fill:#e0bdef;"/><path d="M86.209,181.234c1.97,4.988 8.387,7.714 14.597,5.262c6.21,-2.452 9.034,-8.826 7.065,-13.814c-1.969,-4.988 -8.387,-7.714 -14.597,-5.262c-6.21,2.452 -9.034,8.826 -7.065,13.814Zm4.263,-1.683c-1.149,-2.911 0.861,-6.437 4.485,-7.868c3.625,-1.431 7.501,-0.229 8.651,2.682c1.149,2.911 -0.86,6.437 -4.485,7.868c-3.625,1.431 -7.501,0.229 -8.651,-2.682Z" style="fill:#262626;"/><path d="M90.472,179.551c-1.149,-2.911 0.861,-6.437 4.485,-7.868c3.625,-1.431 7.501,-0.229 8.651,2.682c1.149,2.911 -0.86,6.437 -4.485,7.868c-3.625,1.431 -7.501,0.229 -8.651,-2.682Z" style="fill:#f2f2f2;"/></g><g><path d="M73.996,130.998c-1.849,1.849 -3.094,4.217 -3.569,6.789c-1.372,7.437 -5.436,29.462 -8,43.356c-0.771,4.18 0.563,8.472 3.569,11.477c3.005,3.006 7.297,4.34 11.477,3.569c13.894,-2.564 35.919,-6.628 43.356,-8c2.572,-0.475 4.94,-1.719 6.789,-3.569c11.619,-11.618 75.185,-75.184 94.987,-94.987c5.045,-5.044 5.045,-13.222 0,-18.267c-9.057,-9.057 -26.298,-26.298 -35.355,-35.355c-5.044,-5.044 -13.223,-5.044 -18.267,0l-94.987,94.987Zm3.241,3.241c-1.193,1.193 -1.996,2.72 -2.302,4.38c-1.373,7.436 -5.437,29.461 -8.001,43.356c-0.497,2.696 0.364,5.465 2.303,7.404c1.939,1.94 4.708,2.8 7.405,2.303c13.894,-2.564 35.919,-6.628 43.355,-8c1.66,-0.307 3.187,-1.11 4.38,-2.303c11.619,-11.618 75.185,-75.184 94.987,-94.987c3.255,-3.254 3.255,-8.53 0,-11.785c-9.056,-9.057 -26.298,-26.298 -35.355,-35.355c-3.254,-3.255 -8.531,-3.255 -11.785,0c-19.803,19.803 -83.369,83.368 -94.987,94.987Z" style="fill:#262626;"/><path d="M77.237,134.239c-1.193,1.193 -1.996,2.72 -2.302,4.38c-1.373,7.436 -5.437,29.461 -8.001,43.356c-0.497,2.696 0.364,5.465 2.303,7.404c1.939,1.94 4.708,2.8 7.405,2.303c13.894,-2.564 35.919,-6.628 43.355,-8c1.66,-0.307 3.187,-1.11 4.38,-2.303c11.619,-11.618 75.185,-75.184 94.987,-94.987c3.255,-3.254 3.255,-8.53 0,-11.785c-9.056,-9.057 -26.298,-26.298 -35.355,-35.355c-3.254,-3.255 -8.531,-3.255 -11.785,0c-19.803,19.803 -83.369,83.368 -94.987,94.987Z" style="fill:#fff;"/><path d="M145.529,59.465c-1.79,1.789 -1.79,4.691 0,6.481l47.141,47.141c1.79,1.79 4.692,1.79 6.482,0l29.346,-29.346c1.79,-1.79 1.79,-4.692 0,-6.482l-47.141,-47.141c-1.79,-1.79 -4.692,-1.79 -6.481,0l-29.347,29.347Zm3.241,3.24l47.141,47.141l29.346,-29.346l-47.141,-47.141l-29.346,29.346Z" style="fill:#262626;"/><path d="M148.77,62.705l47.141,47.141l29.346,-29.346l-47.141,-47.141l-29.346,29.346Z" style="fill:#ff637c;"/><path d="M116.183,88.811c-1.79,1.79 -1.79,4.692 0,6.482l47.141,47.14c1.79,1.79 4.692,1.79 6.481,0l29.347,-29.346c1.79,-1.79 1.79,-4.692 0,-6.482l-47.141,-47.14c-1.79,-1.79 -4.692,-1.79 -6.482,0l-29.346,29.346Zm3.241,3.241l47.141,47.14l29.346,-29.346l-47.141,-47.141l-29.346,29.347Z" style="fill:#262626;"/><path d="M119.424,92.052l47.141,47.14l29.346,-29.346l-47.141,-47.141l-29.346,29.347Z" style="fill:#ff9bab;"/><path d="M86.102,118.892c-1.79,1.79 -1.79,4.692 0,6.482l47.14,47.14c1.79,1.79 4.692,1.79 6.482,0l27.491,-27.49c1.789,-1.79 1.789,-4.692 0,-6.482l-47.141,-47.14c-1.79,-1.79 -4.692,-1.79 -6.482,0l-27.49,27.49Zm3.241,3.241l47.14,47.14l27.491,-27.49l-47.141,-47.14l-27.49,27.49Z" style="fill:#262626;"/><path d="M89.343,122.133l47.14,47.14l27.491,-27.49l-47.141,-47.14l-27.49,27.49Z" style="fill:#ffd1d9;"/><path d="M88.325,168.819c-2.44,-2.44 -2.44,-6.4 0,-8.839c2.439,-2.439 6.399,-2.439 8.838,0c2.44,2.439 2.44,6.399 0,8.839c-2.439,2.439 -6.399,2.439 -8.838,0Z" style="fill:#333;"/></g></g></svg>