<?xml version="1.0" encoding="UTF-8" standalone="no"?>
<!DOCTYPE svg PUBLIC "-//W3C//DTD SVG 1.1//EN" "http://www.w3.org/Graphics/SVG/1.1/DTD/svg11.dtd">
<svg width="100%" height="100%" viewBox="0 0 64 62" version="1.1" xmlns="http://www.w3.org/2000/svg" xmlns:xlink="http://www.w3.org/1999/xlink" xml:space="preserve" xmlns:serif="http://www.serif.com/" style="fill-rule:evenodd;clip-rule:evenodd;stroke-linecap:round;stroke-linejoin:round;stroke-miterlimit:1.5;">
    <g transform="matrix(1,0,0,1,-344.973,-281)">
        <g transform="matrix(0.337889,-0.806449,0.806449,0.337889,109.143,555.701)">
            <path d="M377,143C368.833,142.907 355.038,145.141 349,148C344.578,150.094 340.967,155.638 340.77,160.155C340.626,163.461 340.586,169.529 340.77,175.023C341.013,182.271 343.75,189.241 344.887,193.322C346.153,197.863 352.286,201.72 357,204C361.714,206.28 367.69,206.848 373.17,207C379.17,207.167 387.862,207 393,205C397.618,203.203 401.333,198.835 404,195C406.652,191.186 408.458,186.604 409,181.99C409.667,176.317 409.833,166.532 408,160.96C406.34,155.916 402.595,151.22 398,148.558C392.833,145.564 384.241,143.082 377,143Z" style="fill:rgb(0,150,255);fill-opacity:0.14;"/>
        </g>
        <g id="Design-2" serif:id="Design 2" transform="matrix(0.995821,-0.0913287,0.0913287,0.995821,-19.3955,167.476)">
            <g transform="matrix(0.999893,-0.0146408,0.0146408,0.999893,3.44399,8.51242)">
                <clipPath id="_clip1">
                    <rect x="345.292" y="152.1" width="18.79" height="35.746"/>
                </clipPath>
                <g clip-path="url(#_clip1)">
                    <g id="Paint-Brush" serif:id="Paint Brush" transform="matrix(0.962988,-0.127716,0.127716,0.962988,-71.655,59.2597)">
                        <g transform="matrix(0.770055,0,0,0.849715,135.222,27.2535)">
                            <path d="M379.434,158.876C379.362,158.057 378.608,157.425 377.701,157.425L375.299,157.425C374.392,157.425 373.638,158.057 373.566,158.876L372.268,173.753C372.26,173.838 372.26,173.924 372.268,174.008L373.567,188.131C373.642,188.947 374.395,189.575 375.299,189.575L377.701,189.575C378.605,189.575 379.358,188.947 379.433,188.131L380.732,174.008C380.74,173.924 380.74,173.838 380.732,173.753L379.434,158.876ZM377.701,159L375.299,159L374,173.878L375.299,188L377.701,188L379,173.878L377.701,159Z" style="fill:rgb(38,38,38);"/>
                            <path d="M377.701,159L375.299,159L374,173.878L375.299,188L377.701,188L379,173.878L377.701,159Z" style="fill:rgb(219,206,171);"/>
                        </g>
                        <g transform="matrix(0.5546,0,0,0.657884,190.788,59.6146)">
                            <path d="M424.546,142.402C423.903,141.632 422.717,141.335 421.679,141.683C420.642,142.032 420.024,142.936 420.185,143.867C420.185,143.867 420.373,145.644 418.423,147.463C417.547,148.281 416.832,148.927 416.389,149.498C415.833,150.215 415.587,150.899 415.587,151.573C415.587,155.308 418.838,158.18 422.573,158.18C426.308,158.18 429.559,155.308 429.559,151.573C429.559,150.595 429.097,149.256 428.352,147.885C426.924,145.255 424.546,142.402 424.546,142.402ZM422.573,143.573C422.573,143.573 427.146,149.049 427.146,151.573C427.146,154.097 425.097,156.146 422.573,156.146C420.049,156.146 418,154.097 418,151.573C418,150.784 418.927,150.027 420.214,148.826C423.029,146.2 422.573,143.573 422.573,143.573Z" style="fill:rgb(38,38,38);"/>
                            <path d="M422.573,143.573C422.573,143.573 427.146,149.049 427.146,151.573C427.146,154.097 425.097,156.146 422.573,156.146C420.049,156.146 418,154.097 418,151.573C418,150.784 418.927,150.027 420.214,148.826C423.029,146.2 422.573,143.573 422.573,143.573Z" style="fill:rgb(38,38,38);"/>
                            <clipPath id="_clip2">
                                <path d="M422.573,143.573C422.573,143.573 427.146,149.049 427.146,151.573C427.146,154.097 425.097,156.146 422.573,156.146C420.049,156.146 418,154.097 418,151.573C418,150.784 418.927,150.027 420.214,148.826C423.029,146.2 422.573,143.573 422.573,143.573Z"/>
                            </clipPath>
                            <g clip-path="url(#_clip2)">
                                <g transform="matrix(1.80385,0.368832,-0.43752,1.52065,-93.3888,-430.467)">
                                    <path d="M353.624,296.485C353.823,296.975 354.383,295.472 354.8,295.417C355.217,295.362 355.653,296.144 356.125,296.155C356.598,296.167 357.118,295.521 357.635,295.484C358.152,295.447 358.742,296.095 359.229,295.933C359.715,295.771 360.39,295.138 360.554,294.511C360.775,293.667 361.649,291.395 360.554,290.871C359.288,290.264 354.109,289.935 352.954,290.871C351.799,291.806 353.316,295.727 353.624,296.485Z" style="fill:rgb(255,99,124);"/>
                                </g>
                            </g>
                        </g>
                        <g transform="matrix(0.793917,0,0,1,87.0928,6.08022)">
                            <path d="M423.381,159.272L428.23,159.272" style="fill:none;stroke:rgb(38,38,38);stroke-width:1.48px;"/>
                        </g>
                    </g>
                    <g id="Pen" transform="matrix(0.574156,-0.230078,0.286437,0.714799,88.9877,136.309)">
                        <g transform="matrix(0.434211,0,0,0.5,209.178,75.882)">
                            <path d="M390.354,140.957C389.438,140.117 388.013,139.624 386.5,139.624C384.987,139.624 383.562,140.117 382.646,140.957L373.611,149.249C372.792,150.001 372.462,150.958 372.701,151.888L376.152,165.305C376.566,166.914 378.573,168.085 380.916,168.085L392.084,168.085C394.427,168.085 396.434,166.914 396.848,165.305L400.299,151.888C400.538,150.958 400.208,150.001 399.389,149.249L390.354,140.957ZM386.5,143L395.535,151.292L392.084,164.708L380.916,164.708L377.465,151.292L386.5,143Z" style="fill:rgb(38,38,38);"/>
                            <path d="M386.5,143L395.535,151.292L392.084,164.708L380.916,164.708L377.465,151.292L386.5,143Z" style="fill:rgb(224,189,239);"/>
                        </g>
                        <g transform="matrix(1,0,0,1.10345,0.5,-16.4483)">
                            <path d="M381.102,159C381.102,158.155 380.161,157.47 379,157.47L374,157.47C372.839,157.47 371.898,158.155 371.898,159L371.898,188C371.898,188.845 372.839,189.53 374,189.53L379,189.53C380.161,189.53 381.102,188.845 381.102,188L381.102,159ZM379,159L374,159L374,188L379,188L379,159Z" style="fill:rgb(38,38,38);"/>
                            <rect x="374" y="159" width="5" height="29" style="fill:rgb(102,102,102);"/>
                        </g>
                        <path d="M377,147.382L377,152.809" style="fill:none;stroke:rgb(38,38,38);stroke-width:1.86px;"/>
                        <g transform="matrix(1,0,0,1,0.5,0)">
                            <circle cx="376.5" cy="153.309" r="0.5" style="fill:white;stroke:rgb(38,38,38);stroke-width:1.86px;"/>
                        </g>
                    </g>
                </g>
            </g>
            <g transform="matrix(0.0499467,-0.497499,0.619413,0.0621863,220.452,368.142)">
                <g transform="matrix(1,0,0,1.16667,0,-46)">
                    <path d="M395.6,228.856C395.6,227.936 395.194,227.038 394.436,226.28C392.378,224.221 386.282,218.125 382.436,214.28C381.205,213.048 379.172,212.313 377,212.313C374.828,212.313 372.795,213.048 371.564,214.28C367.718,218.125 361.622,224.221 359.564,226.28C358.806,227.038 358.4,227.936 358.4,228.856C358.4,234.286 358.4,263.992 358.4,273.246C358.4,275.756 361.355,277.79 365,277.79C371.148,277.79 382.852,277.79 389,277.79C392.645,277.79 395.6,275.756 395.6,273.246L395.6,228.856ZM393,228.856C393,228.299 392.754,227.754 392.295,227.295C390.236,225.236 384.14,219.14 380.295,215.295C379.548,214.548 378.316,214.102 377,214.102C375.684,214.102 374.452,214.548 373.705,215.295C369.86,219.14 363.764,225.236 361.705,227.295C361.246,227.754 361,228.299 361,228.856C361,234.286 361,263.992 361,273.246C361,274.767 362.791,276 365,276C371.148,276 382.852,276 389,276C391.209,276 393,274.767 393,273.246C393,263.992 393,234.286 393,228.856Z" style="fill:rgb(38,38,38);"/>
                    <path d="M393,228.856C393,228.299 392.754,227.754 392.295,227.295C390.236,225.236 384.14,219.14 380.295,215.295C379.548,214.548 378.316,214.102 377,214.102C375.684,214.102 374.452,214.548 373.705,215.295C369.86,219.14 363.764,225.236 361.705,227.295C361.246,227.754 361,228.299 361,228.856C361,234.286 361,263.992 361,273.246C361,274.767 362.791,276 365,276C371.148,276 382.852,276 389,276C391.209,276 393,274.767 393,273.246C393,263.992 393,234.286 393,228.856Z" style="fill:white;"/>
                </g>
                <g transform="matrix(0.744126,0,0,1,100.559,0)">
                    <path d="M396.494,260C396.494,258.847 394.93,257.912 393,257.912L349.997,257.912C348.067,257.912 346.502,258.847 346.502,260L346.502,276C346.502,277.153 348.067,278.088 349.997,278.088L393,278.088C394.93,278.088 396.494,277.153 396.494,276L396.494,260ZM393,260L349.997,260L349.997,276L393,276L393,260Z" style="fill:rgb(38,38,38);"/>
                    <rect x="349.997" y="260" width="43.003" height="16" style="fill:rgb(58,143,237);"/>
                </g>
                <g transform="matrix(0.744126,0,0,1,100.559,-16)">
                    <path d="M396.494,260C396.494,258.847 394.93,257.912 393,257.912L349.997,257.912C348.067,257.912 346.502,258.847 346.502,260L346.502,276C346.502,277.153 348.067,278.088 349.997,278.088L393,278.088C394.93,278.088 396.494,277.153 396.494,276L396.494,260ZM393,260L349.997,260L349.997,276L393,276L393,260Z" style="fill:rgb(38,38,38);"/>
                    <rect x="349.997" y="260" width="43.003" height="16" style="fill:rgb(120,179,246);"/>
                </g>
                <g transform="matrix(0.744126,0,0,1,100.559,-32)">
                    <path d="M396.494,260C396.494,258.847 394.93,257.912 393,257.912L349.997,257.912C348.067,257.912 346.502,258.847 346.502,260L346.502,276C346.502,277.153 348.067,278.088 349.997,278.088L393,278.088C394.93,278.088 396.494,277.153 396.494,276L396.494,260ZM393,260L349.997,260L349.997,276L393,276L393,260Z" style="fill:rgb(38,38,38);"/>
                    <rect x="349.997" y="260" width="43.003" height="16" style="fill:rgb(189,218,251);"/>
                </g>
                <g transform="matrix(1.33333,0,0,1.33333,-119.94,-95.0871)">
                    <path d="M372.705,228.749C370.628,228.749 368.713,230.28 368.713,232.357C368.713,234.434 370.628,235.965 372.705,235.965C374.782,235.965 376.697,234.434 376.697,232.357C376.697,230.28 374.782,228.749 372.705,228.749ZM372.705,230.315C373.832,230.315 374.747,231.23 374.747,232.357C374.747,233.484 373.832,234.399 372.705,234.399C371.578,234.399 370.663,233.484 370.663,232.357C370.663,231.23 371.578,230.315 372.705,230.315Z" style="fill:rgb(38,38,38);"/>
                    <circle cx="372.705" cy="232.357" r="2.042" style="fill:rgb(242,242,242);"/>
                </g>
            </g>
            <g transform="matrix(-0.140377,-0.47989,0.597489,-0.174777,296.618,409.212)">
                <g transform="matrix(1,0,0,1.16667,0,-46)">
                    <path d="M395.6,228.856C395.6,227.936 395.194,227.038 394.436,226.28C392.378,224.221 386.282,218.125 382.436,214.28C381.205,213.048 379.172,212.313 377,212.313C374.828,212.313 372.795,213.048 371.564,214.28C367.718,218.125 361.622,224.221 359.564,226.28C358.806,227.038 358.4,227.936 358.4,228.856C358.4,234.286 358.4,263.992 358.4,273.246C358.4,275.756 361.355,277.79 365,277.79C371.148,277.79 382.852,277.79 389,277.79C392.645,277.79 395.6,275.756 395.6,273.246L395.6,228.856ZM393,228.856C393,228.299 392.754,227.754 392.295,227.295C390.236,225.236 384.14,219.14 380.295,215.295C379.548,214.548 378.316,214.102 377,214.102C375.684,214.102 374.452,214.548 373.705,215.295C369.86,219.14 363.764,225.236 361.705,227.295C361.246,227.754 361,228.299 361,228.856C361,234.286 361,263.992 361,273.246C361,274.767 362.791,276 365,276C371.148,276 382.852,276 389,276C391.209,276 393,274.767 393,273.246C393,263.992 393,234.286 393,228.856Z" style="fill:rgb(38,38,38);"/>
                    <path d="M393,228.856C393,228.299 392.754,227.754 392.295,227.295C390.236,225.236 384.14,219.14 380.295,215.295C379.548,214.548 378.316,214.102 377,214.102C375.684,214.102 374.452,214.548 373.705,215.295C369.86,219.14 363.764,225.236 361.705,227.295C361.246,227.754 361,228.299 361,228.856C361,234.286 361,263.992 361,273.246C361,274.767 362.791,276 365,276C371.148,276 382.852,276 389,276C391.209,276 393,274.767 393,273.246C393,263.992 393,234.286 393,228.856Z" style="fill:white;"/>
                </g>
                <g transform="matrix(0.744126,0,0,1,100.559,0)">
                    <path d="M396.494,260C396.494,258.847 394.93,257.912 393,257.912L349.997,257.912C348.067,257.912 346.502,258.847 346.502,260L346.502,276C346.502,277.153 348.067,278.088 349.997,278.088L393,278.088C394.93,278.088 396.494,277.153 396.494,276L396.494,260ZM393,260L349.997,260L349.997,276L393,276L393,260Z" style="fill:rgb(38,38,38);"/>
                    <rect x="349.997" y="260" width="43.003" height="16" style="fill:rgb(142,68,173);"/>
                </g>
                <g transform="matrix(0.744126,0,0,1,100.559,-16)">
                    <path d="M396.494,260C396.494,258.847 394.93,257.912 393,257.912L349.997,257.912C348.067,257.912 346.502,258.847 346.502,260L346.502,276C346.502,277.153 348.067,278.088 349.997,278.088L393,278.088C394.93,278.088 396.494,277.153 396.494,276L396.494,260ZM393,260L349.997,260L349.997,276L393,276L393,260Z" style="fill:rgb(38,38,38);"/>
                    <rect x="349.997" y="260" width="43.003" height="16" style="fill:rgb(181,125,205);"/>
                </g>
                <g transform="matrix(0.744126,0,0,1,100.559,-32)">
                    <path d="M396.494,260C396.494,258.847 394.93,257.912 393,257.912L349.997,257.912C348.067,257.912 346.502,258.847 346.502,260L346.502,276C346.502,277.153 348.067,278.088 349.997,278.088L393,278.088C394.93,278.088 396.494,277.153 396.494,276L396.494,260ZM393,260L349.997,260L349.997,276L393,276L393,260Z" style="fill:rgb(38,38,38);"/>
                    <rect x="349.997" y="260" width="43.003" height="16" style="fill:rgb(224,189,239);"/>
                </g>
                <g transform="matrix(1.33333,0,0,1.33333,-119.94,-95.0871)">
                    <path d="M372.705,228.749C370.628,228.749 368.713,230.28 368.713,232.357C368.713,234.434 370.628,235.965 372.705,235.965C374.782,235.965 376.697,234.434 376.697,232.357C376.697,230.28 374.782,228.749 372.705,228.749ZM372.705,230.315C373.832,230.315 374.747,231.23 374.747,232.357C374.747,233.484 373.832,234.399 372.705,234.399C371.578,234.399 370.663,233.484 370.663,232.357C370.663,231.23 371.578,230.315 372.705,230.315Z" style="fill:rgb(38,38,38);"/>
                    <circle cx="372.705" cy="232.357" r="2.042" style="fill:rgb(242,242,242);"/>
                </g>
            </g>
            <g transform="matrix(-0.319786,-0.384365,0.478556,-0.398151,388.11,419.168)">
                <g transform="matrix(1,0,0,1.16667,0,-46)">
                    <path d="M395.6,228.856C395.6,227.936 395.194,227.038 394.436,226.28C392.378,224.221 386.282,218.125 382.436,214.28C381.205,213.048 379.172,212.313 377,212.313C374.828,212.313 372.795,213.048 371.564,214.28C367.718,218.125 361.622,224.221 359.564,226.28C358.806,227.038 358.4,227.936 358.4,228.856C358.4,234.286 358.4,263.992 358.4,273.246C358.4,275.756 361.355,277.79 365,277.79C371.148,277.79 382.852,277.79 389,277.79C392.645,277.79 395.6,275.756 395.6,273.246L395.6,228.856ZM393,228.856C393,228.299 392.754,227.754 392.295,227.295C390.236,225.236 384.14,219.14 380.295,215.295C379.548,214.548 378.316,214.102 377,214.102C375.684,214.102 374.452,214.548 373.705,215.295C369.86,219.14 363.764,225.236 361.705,227.295C361.246,227.754 361,228.299 361,228.856C361,234.286 361,263.992 361,273.246C361,274.767 362.791,276 365,276C371.148,276 382.852,276 389,276C391.209,276 393,274.767 393,273.246C393,263.992 393,234.286 393,228.856Z" style="fill:rgb(38,38,38);"/>
                    <path d="M393,228.856C393,228.299 392.754,227.754 392.295,227.295C390.236,225.236 384.14,219.14 380.295,215.295C379.548,214.548 378.316,214.102 377,214.102C375.684,214.102 374.452,214.548 373.705,215.295C369.86,219.14 363.764,225.236 361.705,227.295C361.246,227.754 361,228.299 361,228.856C361,234.286 361,263.992 361,273.246C361,274.767 362.791,276 365,276C371.148,276 382.852,276 389,276C391.209,276 393,274.767 393,273.246C393,263.992 393,234.286 393,228.856Z" style="fill:white;"/>
                </g>
                <g transform="matrix(0.744126,0,0,1,100.559,0)">
                    <path d="M396.494,260C396.494,258.847 394.93,257.912 393,257.912L349.997,257.912C348.067,257.912 346.502,258.847 346.502,260L346.502,276C346.502,277.153 348.067,278.088 349.997,278.088L393,278.088C394.93,278.088 396.494,277.153 396.494,276L396.494,260ZM393,260L349.997,260L349.997,276L393,276L393,260Z" style="fill:rgb(38,38,38);"/>
                    <rect x="349.997" y="260" width="43.003" height="16" style="fill:rgb(255,99,124);"/>
                </g>
                <g transform="matrix(0.744126,0,0,1,100.559,-16)">
                    <path d="M396.494,260C396.494,258.847 394.93,257.912 393,257.912L349.997,257.912C348.067,257.912 346.502,258.847 346.502,260L346.502,276C346.502,277.153 348.067,278.088 349.997,278.088L393,278.088C394.93,278.088 396.494,277.153 396.494,276L396.494,260ZM393,260L349.997,260L349.997,276L393,276L393,260Z" style="fill:rgb(38,38,38);"/>
                    <rect x="349.997" y="260" width="43.003" height="16" style="fill:rgb(255,155,171);"/>
                </g>
                <g transform="matrix(0.744126,4.73391e-17,1.03942e-16,0.936758,100.559,-15.9578)">
                    <path d="M396.494,260C396.494,258.769 394.93,257.771 393,257.771L349.997,257.771C348.067,257.771 346.502,258.769 346.502,260L346.502,276C346.502,277.231 348.067,278.229 349.997,278.229L393,278.229C394.93,278.229 396.494,277.231 396.494,276L396.494,260ZM393,260L349.997,260L349.997,276L393,276L393,260Z" style="fill:rgb(38,38,38);"/>
                    <rect x="349.997" y="260" width="43.003" height="16" style="fill:rgb(255,209,217);"/>
                </g>
                <g transform="matrix(1.46939,1.63135e-16,1.4803e-16,1.18018,-170.148,-57.2188)">
                    <circle cx="372.705" cy="232.357" r="2.042" style="fill:rgb(51,51,51);"/>
                </g>
            </g>
        </g>
    </g>
</svg>
