<svg width="577" height="241" viewBox="0 0 577 241" fill="none" xmlns="http://www.w3.org/2000/svg">
<path d="M325.277 232.271H217.846V238.681H325.277V232.271Z" fill="#444E59"/>
<path d="M399.898 190.383H146.429C141.394 190.383 137.273 186.263 137.273 181.227V11.4592C137.273 6.42342 141.394 2.30322 146.429 2.30322H399.898C404.934 2.30322 409.054 6.42342 409.054 11.4592V181.15C409.054 186.263 405.01 190.383 399.898 190.383Z" fill="#BBBFC2"/>
<path d="M392.945 158.168V19.5312L154.431 19.5312L154.431 158.168L392.945 158.168Z" fill="#E0BDEF"/>
<path opacity="0.4" d="M400.508 190.383H360.756V118.05C360.756 112.251 365.41 107.597 371.209 107.597H400.508V190.383Z" fill="#848484"/>
<path opacity="0.4" d="M156.577 120.492H137.273V177.488C137.273 184.584 143.377 190.383 150.55 190.383H172.753V136.973C172.677 128.046 165.428 120.492 156.577 120.492Z" fill="#848484"/>
<path d="M400.661 190.383H146.735C141.699 190.383 137.579 186.263 137.579 181.227V11.4592C137.579 6.42342 141.699 2.30322 146.735 2.30322H400.661C405.697 2.30322 409.817 6.42342 409.817 11.4592V181.15C409.817 186.263 405.697 190.383 400.661 190.383Z" stroke="#444E59" stroke-width="3.052" stroke-miterlimit="10" stroke-linecap="round" stroke-linejoin="round"/>
<path d="M392.638 158.166V19.5293L154.811 19.5293L154.811 158.166L392.638 158.166Z" stroke="#444E59" stroke-width="3.052" stroke-miterlimit="10" stroke-linecap="round" stroke-linejoin="round"/>
<path opacity="0.32" d="M346.412 151.47H215.328C212.353 151.47 209.987 149.028 209.987 146.129V52.5849C209.987 49.6092 212.429 47.2439 215.328 47.2439H346.412C349.387 47.2439 351.753 49.6855 351.753 52.5849V146.052C351.753 149.028 349.387 151.47 346.412 151.47Z" fill="#848484"/>
<path d="M340.308 146.281H209.224C206.249 146.281 203.883 143.84 203.883 140.94V47.4728C203.883 44.4971 206.325 42.1318 209.224 42.1318H340.308C343.283 42.1318 345.649 44.5734 345.649 47.4728V140.94C345.725 143.916 343.283 146.281 340.308 146.281Z" fill="#AFB1B2"/>
<path d="M340.308 146.281H209.224C206.249 146.281 203.883 143.84 203.883 140.94V47.4728C203.883 44.4971 206.325 42.1318 209.224 42.1318H340.308C343.283 42.1318 345.649 44.5734 345.649 47.4728V140.94C345.725 143.916 343.283 146.281 340.308 146.281Z" stroke="#444E59" stroke-width="3.052" stroke-miterlimit="10" stroke-linecap="round" stroke-linejoin="round"/>
<path d="M305.668 232.271H241.728L249.663 190.383H297.732L305.668 232.271Z" fill="#AEAEAF"/>
<path opacity="0.32" d="M299.869 202.209L297.732 190.383H249.663L247.527 202.209H299.869Z" fill="#848484"/>
<path d="M305.668 232.271H241.728L249.663 190.383H297.732L305.668 232.271Z" stroke="#444E59" stroke-width="3.052" stroke-miterlimit="10" stroke-linecap="round" stroke-linejoin="round"/>
<path d="M325.277 232.271H217.846V238.681H325.277V232.271Z" stroke="#444E59" stroke-width="3.052" stroke-miterlimit="10" stroke-linecap="round" stroke-linejoin="round"/>
<path d="M273.316 175.886C275.929 175.886 278.047 173.768 278.047 171.155C278.047 168.543 275.929 166.425 273.316 166.425C270.704 166.425 268.586 168.543 268.586 171.155C268.586 173.768 270.704 175.886 273.316 175.886Z" fill="#444E59"/>
<path d="M329.549 136.667H198.466C195.49 136.667 193.125 134.226 193.125 131.326V37.7827C193.125 34.807 195.567 32.4417 198.466 32.4417H329.549C332.525 32.4417 334.89 34.8833 334.89 37.7827V131.25C334.967 134.226 332.525 136.667 329.549 136.667Z" fill="white"/>
<path d="M329.549 136.667H198.466C195.49 136.667 193.125 134.226 193.125 131.326V37.7827C193.125 34.807 195.567 32.4417 198.466 32.4417H329.549C332.525 32.4417 334.89 34.8833 334.89 37.7827V131.25C334.967 134.226 332.525 136.667 329.549 136.667Z" stroke="#444E59" stroke-width="3.052" stroke-miterlimit="10" stroke-linecap="round" stroke-linejoin="round"/>
<path d="M334.967 48.5411H193.125V38.0117C193.125 34.9597 195.643 32.3655 198.771 32.3655H329.702C332.601 32.3655 334.967 34.7308 334.967 37.6302V48.5411Z" fill="#BBBFC2"/>
<path d="M334.967 48.5411H193.125V38.0117C193.125 34.9597 195.643 32.3655 198.771 32.3655H329.702C332.601 32.3655 334.967 34.7308 334.967 37.6302V48.5411Z" stroke="#444E59" stroke-width="3.052" stroke-miterlimit="10" stroke-linecap="round" stroke-linejoin="round"/>
<path d="M206.783 43.0475C208.173 43.0475 209.301 41.9202 209.301 40.5296C209.301 39.139 208.173 38.0117 206.783 38.0117C205.392 38.0117 204.265 39.139 204.265 40.5296C204.265 41.9202 205.392 43.0475 206.783 43.0475Z" fill="#444E59"/>
<path d="M215.099 43.0475C216.49 43.0475 217.617 41.9202 217.617 40.5296C217.617 39.139 216.49 38.0117 215.099 38.0117C213.709 38.0117 212.582 39.139 212.582 40.5296C212.582 41.9202 213.709 43.0475 215.099 43.0475Z" fill="#444E59"/>
<path d="M223.34 43.0475C224.73 43.0475 225.858 41.9202 225.858 40.5296C225.858 39.139 224.73 38.0117 223.34 38.0117C221.949 38.0117 220.822 39.139 220.822 40.5296C220.822 41.9202 221.949 43.0475 223.34 43.0475Z" fill="#444E59"/>
<path d="M321.614 76.4668H205.409C204.57 76.4668 203.883 75.7801 203.883 74.9408V58.6888C203.883 57.8495 204.57 57.1628 205.409 57.1628H321.614C322.454 57.1628 323.14 57.8495 323.14 58.6888V74.9408C323.14 75.7801 322.454 76.4668 321.614 76.4668Z" fill="#8E44AD"/>
<path opacity="0.2" d="M238.829 96.839H205.333C204.494 96.839 203.807 96.1523 203.807 95.313V86.5385C203.807 85.6992 204.494 85.0125 205.333 85.0125H238.829C239.668 85.0125 240.355 85.6992 240.355 86.5385V95.313C240.355 96.1523 239.744 96.839 238.829 96.839Z" fill="#444E59"/>
<path opacity="0.2" d="M209.224 105.461H236.082" stroke="#444E59" stroke-width="3.052" stroke-miterlimit="10" stroke-linecap="round" stroke-linejoin="round"/>
<path opacity="0.2" d="M209.224 114.083H236.082" stroke="#444E59" stroke-width="3.052" stroke-miterlimit="10" stroke-linecap="round" stroke-linejoin="round"/>
<path opacity="0.2" d="M280.794 96.839H247.298C246.459 96.839 245.772 96.1523 245.772 95.313V86.5385C245.772 85.6992 246.459 85.0125 247.298 85.0125H280.794C281.633 85.0125 282.32 85.6992 282.32 86.5385V95.313C282.32 96.1523 281.633 96.839 280.794 96.839Z" fill="#444E59"/>
<path opacity="0.2" d="M251.113 105.461H276.902" stroke="#444E59" stroke-width="3.052" stroke-miterlimit="10" stroke-linecap="round" stroke-linejoin="round"/>
<path opacity="0.2" d="M251.113 114.083H276.902" stroke="#444E59" stroke-width="3.052" stroke-miterlimit="10" stroke-linecap="round" stroke-linejoin="round"/>
<g opacity="0.2">
<path opacity="0.2" d="M322.682 115.151H289.187C288.347 115.151 287.661 114.464 287.661 113.625V86.6146C287.661 85.7753 288.347 85.0886 289.187 85.0886H322.682C323.522 85.0886 324.208 85.7753 324.208 86.6146V113.625C324.208 114.464 323.522 115.151 322.682 115.151Z" fill="#444E59"/>
</g>
<g opacity="0.09">
<path opacity="0.09" d="M321.614 123.773H289.721C288.5 123.773 287.584 122.781 287.584 121.636C287.584 120.492 288.576 119.5 289.721 119.5H321.614C322.835 119.5 323.751 120.492 323.751 121.636C323.751 122.781 322.759 123.773 321.614 123.773Z" fill="#444E59"/>
</g>
<path d="M81.8796 206.024H20.3818C19.6188 206.024 18.9321 206.253 18.398 206.787L3.51949 219.758C2.14609 220.979 2.14609 223.116 3.51949 224.26L18.398 237.46C18.9321 237.918 19.6188 238.376 20.3818 238.376H81.8796C85.3894 238.376 88.2888 235.171 88.2888 231.661V212.205C88.2125 208.847 85.3894 206.024 81.8796 206.024ZM18.7032 225.786C16.6431 225.786 14.8882 224.107 14.8882 221.971C14.8882 219.835 16.5668 218.156 18.7032 218.156C20.8396 218.156 22.5182 219.835 22.5182 221.971C22.5182 224.107 20.8396 225.786 18.7032 225.786Z" fill="white"/>
<path d="M52.4278 206.024H34.4973V238.452H52.4278V206.024Z" fill="#FFD1D9"/>
<path d="M70.3583 206.024H52.4278V238.452H70.3583V206.024Z" fill="#FF9BAB"/>
<path d="M80.2773 238.452H70.3583V206.024H80.5825C84.779 206.024 88.2888 209.458 88.2888 213.731V230.517C88.2125 234.866 84.6264 238.452 80.2773 238.452Z" fill="#FF637C"/>
<path opacity="0.4" d="M83.5582 207.627C83.253 207.551 82.9478 207.551 82.6426 207.551H21.1448C20.3818 207.551 19.6951 207.779 19.161 208.314L4.28249 221.285C2.90909 222.505 2.90909 224.642 4.28249 225.786L13.5911 233.95L23.6627 236.468C24.1205 236.621 24.6546 236.621 25.1887 236.621C26.1806 236.621 27.0962 236.392 28.0118 235.934L82.7952 208.008C83.0241 207.932 83.3293 207.779 83.5582 207.627ZM19.4662 227.312C17.4061 227.312 15.6512 225.634 15.6512 223.497C15.6512 221.361 17.3298 219.682 19.4662 219.682C21.6026 219.682 23.2812 221.361 23.2812 223.497C23.2812 225.634 21.6026 227.312 19.4662 227.312Z" fill="#848484"/>
<path d="M81.8796 206.024H20.3818C19.6188 206.024 18.9321 206.253 18.398 206.787L3.51949 219.758C2.14609 220.979 2.14609 223.116 3.51949 224.26L18.398 237.46C18.9321 237.918 19.6188 238.376 20.3818 238.376H81.8796C85.3894 238.376 88.2888 235.171 88.2888 231.661V212.205C88.2125 208.847 85.3894 206.024 81.8796 206.024ZM18.7032 225.786C16.6431 225.786 14.8882 224.107 14.8882 221.971C14.8882 219.835 16.5668 218.156 18.7032 218.156C20.8396 218.156 22.5182 219.835 22.5182 221.971C22.5182 224.107 20.8396 225.786 18.7032 225.786Z" stroke="#444E59" stroke-width="3.052" stroke-miterlimit="10" stroke-linecap="round" stroke-linejoin="round"/>
<path d="M52.4278 206.024H34.4973V238.452H52.4278V206.024Z" stroke="#444E59" stroke-width="3.052" stroke-miterlimit="10" stroke-linecap="round" stroke-linejoin="round"/>
<path d="M70.3583 206.024H52.4278V238.452H70.3583V206.024Z" stroke="#444E59" stroke-width="3.052" stroke-miterlimit="10" stroke-linecap="round" stroke-linejoin="round"/>
<path d="M80.2773 238.452H70.3583V206.024H80.5825C84.779 206.024 88.2888 209.458 88.2888 213.731V230.517C88.2125 234.866 84.6264 238.452 80.2773 238.452Z" stroke="#444E59" stroke-width="3.052" stroke-miterlimit="10" stroke-linecap="round" stroke-linejoin="round"/>
<path d="M66.0092 175.199L11.2258 203.125C10.5391 203.43 10.0813 204.041 9.77609 204.727L2.45129 223.039C1.76459 224.718 2.7565 226.625 4.5114 227.083L23.6627 231.966C24.3494 232.119 25.1124 232.043 25.7991 231.737L80.5825 203.812C83.7108 202.209 84.9316 198.394 83.3293 195.342L74.4785 178.022C72.8762 174.818 69.0612 173.597 66.0092 175.199Z" fill="white"/>
<path d="M55.6904 180.426L39.7179 188.575L54.2828 217.122L70.2553 208.972L55.6904 180.426Z" fill="#B57DCD"/>
<path d="M66.0092 175.199L11.2258 203.125C10.5391 203.43 10.0813 204.041 9.77609 204.727L2.45129 223.039C1.76459 224.718 2.7565 226.625 4.5114 227.083L23.6627 231.966C24.3494 232.119 25.1124 232.043 25.7991 231.737L80.5825 203.812C83.7108 202.209 84.9316 198.394 83.3293 195.342L74.4785 178.022C72.8762 174.818 69.0612 173.597 66.0092 175.199Z" stroke="#444E59" stroke-width="3.052" stroke-miterlimit="10" stroke-linecap="round" stroke-linejoin="round"/>
<path d="M17.0246 222.581C19.4687 222.581 21.45 220.6 21.45 218.156C21.45 215.712 19.4687 213.731 17.0246 213.731C14.5805 213.731 12.5992 215.712 12.5992 218.156C12.5992 220.6 14.5805 222.581 17.0246 222.581Z" fill="#444E59"/>
<path d="M39.6832 188.616L23.7107 196.766L38.2756 225.312L54.2481 217.163L39.6832 188.616Z" fill="#E0BDEF" stroke="#444E59" stroke-width="3.052" stroke-miterlimit="10" stroke-linecap="round" stroke-linejoin="round"/>
<path d="M39.6832 188.616L23.7107 196.766L38.2756 225.312L54.2481 217.163L39.6832 188.616Z" stroke="#444E59" stroke-width="3.052" stroke-miterlimit="10" stroke-linecap="round" stroke-linejoin="round"/>
<path d="M55.6904 180.426L39.7179 188.575L54.2828 217.122L70.2553 208.972L55.6904 180.426Z" stroke="#444E59" stroke-width="3.052" stroke-miterlimit="10" stroke-linecap="round" stroke-linejoin="round"/>
<path d="M79.3617 204.346L70.2057 209L55.6324 180.464L64.7884 175.81C68.5271 173.902 73.1051 175.352 75.0889 179.167L82.7189 194.122C84.6264 197.86 83.1004 202.438 79.3617 204.346Z" fill="#8E44AD"/>
<path d="M79.3617 204.346L70.2057 209L55.6324 180.464L64.7884 175.81C68.5271 173.902 73.1051 175.352 75.0889 179.167L82.7189 194.122C84.6264 197.86 83.1004 202.438 79.3617 204.346Z" stroke="#444E59" stroke-width="3.052" stroke-miterlimit="10" stroke-linecap="round" stroke-linejoin="round"/>
<path d="M156.501 238.681H105.152C100.955 238.681 97.5215 235.247 97.5215 231.051V128.122C97.5215 123.925 100.955 120.492 105.152 120.492H156.501C160.698 120.492 164.131 123.925 164.131 128.122V231.051C164.131 235.323 160.698 238.681 156.501 238.681Z" fill="white"/>
<path d="M165.2 155.971H97.5215V127.969C97.5215 123.849 100.879 120.492 104.999 120.492H157.264C161.614 120.492 165.123 124.078 165.123 128.351V155.971H165.2Z" fill="#8E44AD"/>
<path d="M156.501 238.681H105.152C100.955 238.681 97.5215 235.247 97.5215 231.051V128.122C97.5215 123.925 100.955 120.492 105.152 120.492H156.501C160.698 120.492 164.131 123.925 164.131 128.122V231.051C164.131 235.323 160.698 238.681 156.501 238.681Z" stroke="#444E59" stroke-width="3.052" stroke-miterlimit="10" stroke-linecap="round" stroke-linejoin="round"/>
<path d="M156.577 238.681H105.38C101.031 238.681 97.4448 235.095 97.4448 230.746V216.096H164.131V231.127C164.131 235.324 160.697 238.681 156.577 238.681Z" fill="#BBBFC2"/>
<path d="M156.73 238.681H105.38C101.031 238.681 97.4448 235.095 97.4448 230.746V216.096H164.131V231.28C164.131 235.4 160.774 238.681 156.73 238.681Z" stroke="#444E59" stroke-width="3.052" stroke-miterlimit="10" stroke-linecap="round" stroke-linejoin="round"/>
<path d="M131.322 230.745C133.429 230.745 135.137 229.037 135.137 226.93C135.137 224.824 133.429 223.115 131.322 223.115C129.215 223.115 127.507 224.824 127.507 226.93C127.507 229.037 129.215 230.745 131.322 230.745Z" fill="#444E59"/>
<path opacity="0.3" d="M112.552 167.798H150.168" stroke="#444E59" stroke-width="3.052" stroke-miterlimit="10" stroke-linecap="round" stroke-linejoin="round"/>
<path opacity="0.3" d="M120.03 179.625H143.683" stroke="#444E59" stroke-width="3.052" stroke-miterlimit="10" stroke-linecap="round" stroke-linejoin="round"/>
<path opacity="0.3" d="M112.552 190.383H150.168" stroke="#444E59" stroke-width="3.052" stroke-miterlimit="10" stroke-linecap="round" stroke-linejoin="round"/>
<path opacity="0.62" d="M131.322 149.486C136.042 149.486 139.868 145.66 139.868 140.94C139.868 136.221 136.042 132.395 131.322 132.395C126.602 132.395 122.776 136.221 122.776 140.94C122.776 145.66 126.602 149.486 131.322 149.486Z" fill="white"/>
<path d="M143.683 202.209C143.683 204.575 141.775 206.482 139.41 206.482H123.31C120.945 206.482 119.038 204.575 119.038 202.209C119.038 199.844 120.945 197.937 123.31 197.937H139.41C141.775 197.86 143.683 199.768 143.683 202.209Z" fill="#FF637C"/>
<path d="M554.177 224.718H369.302V113.625C369.302 110.344 371.972 107.674 375.253 107.674H548.302C551.506 107.674 554.1 110.268 554.1 113.472V224.718H554.177Z" fill="#BBBFC2"/>
<path d="M554.634 224.947H369.836V113.549C369.836 110.191 372.583 107.445 375.94 107.445H548.53C551.888 107.445 554.634 110.191 554.634 113.549V224.947Z" stroke="#444E59" stroke-width="3.052" stroke-miterlimit="10" stroke-linecap="round" stroke-linejoin="round"/>
<path opacity="0.71" d="M544.507 215.124V117.307L380.081 117.307V215.124L544.507 215.124Z" fill="#5D5D5D"/>
<path opacity="0.32" d="M420.27 196.487H406.078C405.239 196.487 404.552 195.8 404.552 194.961V146.358C404.552 145.518 405.239 144.832 406.078 144.832H420.27C421.109 144.832 421.796 145.518 421.796 146.358V195.037C421.796 195.8 421.109 196.487 420.27 196.487Z" fill="#848484"/>
<path opacity="0.32" d="M522.741 206.329H440.795C439.116 206.329 437.743 204.956 437.743 203.277V140.635C437.743 138.956 439.116 137.583 440.795 137.583H522.741C524.42 137.583 525.793 138.956 525.793 140.635V203.277C525.793 204.956 524.496 206.329 522.741 206.329Z" fill="#848484"/>
<path d="M544.362 214.662V117.684L380.089 117.684V214.662L544.362 214.662Z" stroke="#444E59" stroke-width="3.052" stroke-miterlimit="10" stroke-linecap="round" stroke-linejoin="round"/>
<path d="M574.778 224.947H349.616V232.119C349.616 235.476 352.363 238.223 355.72 238.223H568.674C572.031 238.223 574.778 235.476 574.778 232.119V224.947Z" fill="white"/>
<path opacity="0.8" d="M358.238 238.681H566.232C570.429 238.681 573.862 235.476 574.625 231.127H349.769C350.532 235.476 354.042 238.681 358.238 238.681Z" fill="#BBBFC2"/>
<path d="M574.778 224.947H349.616V232.119C349.616 235.476 352.363 238.223 355.72 238.223H568.674C572.031 238.223 574.778 235.476 574.778 232.119V224.947Z" stroke="#444E59" stroke-width="3.052" stroke-miterlimit="10" stroke-linecap="round" stroke-linejoin="round"/>
<path d="M417.676 140.94H400.508V158.108H417.676V140.94Z" fill="#FF637C"/>
<path d="M417.981 141.093H400.814V158.26H417.981V141.093Z" stroke="#444E59" stroke-width="3.052" stroke-miterlimit="10" stroke-linecap="round" stroke-linejoin="round"/>
<path d="M417.981 141.093H400.814V158.26H417.981V141.093Z" stroke="#444E59" stroke-width="3.052" stroke-miterlimit="10" stroke-linecap="round" stroke-linejoin="round"/>
<path d="M417.676 158.108H400.508V175.275H417.676V158.108Z" fill="#B57DCD"/>
<path d="M417.981 158.337H400.814V175.504H417.981V158.337Z" stroke="#444E59" stroke-width="3.052" stroke-miterlimit="10" stroke-linecap="round" stroke-linejoin="round"/>
<path d="M417.676 175.275H400.508V192.443H417.676V175.275Z" fill="#5A5DED"/>
<path d="M417.981 175.504H400.814V192.672H417.981V175.504Z" stroke="#444E59" stroke-width="3.052" stroke-miterlimit="10" stroke-linecap="round" stroke-linejoin="round"/>
<path d="M517.782 201.065H435.759C434.08 201.065 432.707 199.691 432.707 198.013V135.37C432.707 133.692 434.08 132.318 435.759 132.318H517.782C519.46 132.318 520.834 133.692 520.834 135.37V198.013C520.834 199.768 519.46 201.065 517.782 201.065Z" fill="white"/>
<path d="M517.782 201.065H435.759C434.08 201.065 432.707 199.691 432.707 198.013V135.37C432.707 133.692 434.08 132.318 435.759 132.318H517.782C519.46 132.318 520.834 133.692 520.834 135.37V198.013C520.834 199.768 519.46 201.065 517.782 201.065Z" stroke="#444E59" stroke-width="3.052" stroke-miterlimit="10" stroke-linecap="round" stroke-linejoin="round"/>
<g opacity="0.3">
<g opacity="0.3">
<path opacity="0.3" d="M495.044 182.982V184.126H493.9" stroke="#444E59" stroke-width="1.526" stroke-linejoin="round"/>
<path opacity="0.3" d="M492.45 184.126H460.48" stroke="#444E59" stroke-width="1.526" stroke-linejoin="round" stroke-dasharray="2.18 2.18"/>
<path opacity="0.3" d="M459.717 184.126H458.573V182.982" stroke="#444E59" stroke-width="1.526" stroke-linejoin="round"/>
<path opacity="0.3" d="M458.573 181.379V151.622" stroke="#444E59" stroke-width="1.526" stroke-linejoin="round" stroke-dasharray="2.29 2.29"/>
<path opacity="0.3" d="M458.573 150.859V149.715H459.717" stroke="#444E59" stroke-width="1.526" stroke-linejoin="round"/>
<path opacity="0.3" d="M461.167 149.715H493.137" stroke="#444E59" stroke-width="1.526" stroke-linejoin="round" stroke-dasharray="2.18 2.18"/>
<path opacity="0.3" d="M493.9 149.715H495.044V150.859" stroke="#444E59" stroke-width="1.526" stroke-linejoin="round"/>
<path opacity="0.3" d="M495.044 152.385V182.219" stroke="#444E59" stroke-width="1.526" stroke-linejoin="round" stroke-dasharray="2.29 2.29"/>
</g>
</g>
<path d="M461.473 147.045H456.055V152.462H461.473V147.045Z" fill="white"/>
<path d="M461.167 146.815H455.826V152.156H461.167V146.815Z" stroke="#444E59" stroke-width="0.763" stroke-miterlimit="10" stroke-linejoin="round"/>
<path d="M461.473 181.38H456.055V186.797H461.473V181.38Z" fill="white"/>
<path d="M461.167 181.227H455.826V186.568H461.167V181.227Z" stroke="#444E59" stroke-width="0.763" stroke-miterlimit="10" stroke-linejoin="round"/>
<path d="M497.791 147.045H492.374V152.462H497.791V147.045Z" fill="white"/>
<path d="M497.715 146.815H492.374V152.156H497.715V146.815Z" stroke="#444E59" stroke-width="0.763" stroke-miterlimit="10" stroke-linejoin="round"/>
<path d="M497.791 181.38H492.374V186.797H497.791V181.38Z" fill="white"/>
<path d="M497.715 181.227H492.374V186.568H497.715V181.227Z" stroke="#444E59" stroke-width="0.763" stroke-miterlimit="10" stroke-linejoin="round"/>
<path d="M409.436 167.188L414.853 178.785L420.118 181.532L423.78 177.87L421.109 172.529L409.436 167.188Z" fill="white"/>
<path d="M409.436 167.188L414.853 178.785L420.118 181.532L423.78 177.87L421.109 172.529L409.436 167.188Z" stroke="#444E59" stroke-width="0.763" stroke-miterlimit="10" stroke-linejoin="round"/>
<path d="M416.303 175.199C417.103 175.199 417.752 174.55 417.752 173.749C417.752 172.949 417.103 172.3 416.303 172.3C415.502 172.3 414.853 172.949 414.853 173.749C414.853 174.55 415.502 175.199 416.303 175.199Z" fill="#444E59"/>
<path d="M409.436 167.188L415.463 173.215" stroke="#444E59" stroke-width="0.763" stroke-miterlimit="10" stroke-linecap="round" stroke-linejoin="round"/>
<path d="M423.803 177.809L420.134 181.478L422.778 184.121L426.446 180.453L423.803 177.809Z" fill="white"/>
<path d="M423.803 177.809L420.134 181.478L422.778 184.121L426.446 180.453L423.803 177.809Z" stroke="#444E59" stroke-width="0.763" stroke-miterlimit="10" stroke-linejoin="round"/>
</svg>
