<?xml version="1.0" encoding="UTF-8" standalone="no"?><!DOCTYPE svg PUBLIC "-//W3C//DTD SVG 1.1//EN" "http://www.w3.org/Graphics/SVG/1.1/DTD/svg11.dtd"><svg width="100%" height="100%" viewBox="0 0 5163 2690" version="1.1" xmlns="http://www.w3.org/2000/svg" xmlns:xlink="http://www.w3.org/1999/xlink" xml:space="preserve" xmlns:serif="http://www.serif.com/" style="fill-rule:evenodd;clip-rule:evenodd;stroke-linecap:round;stroke-linejoin:round;stroke-miterlimit:1.5;"><g id="Desktop-Shizz" serif:id="Desktop Shizz"><g><g id="Monitor"><g id="Base"><path d="M2980.59,2668.01l-399.994,0l99.999,-470.252l199.996,0l99.999,470.252Z" style="fill:#bfbfbf;"/><clipPath id="_clip1"><path d="M2980.59,2668.01l-399.994,0l99.999,-470.252l199.996,0l99.999,470.252Z"/></clipPath><g clip-path="url(#_clip1)"><rect x="2470.36" y="2381.56" width="594.787" height="124.217" style="fill:#262626;fill-opacity:0.3;"/></g><path d="M2980.59,2668.01l-399.994,0l99.999,-470.252l199.996,0l99.999,470.252Z" style="fill:none;stroke:#1a1a1a;stroke-width:27.08px;"/><rect x="2241.71" y="2634.42" width="1077.76" height="41.987" style="fill:#1a1a1a;stroke:#1a1a1a;stroke-width:27.08px;"/></g><g id="Screen"><path d="M3904.55,1062.16c0,-57.53 -46.637,-104.167 -104.166,-104.167c-376.345,0 -1663.24,0 -2039.58,0c-57.529,0 -104.166,46.637 -104.166,104.167c0,270.97 0,995.587 0,1266.56c0,57.53 46.637,104.167 104.166,104.167c376.345,0 1663.24,0 2039.58,0c57.529,0 104.166,-46.637 104.166,-104.167c0,-270.97 0,-995.587 0,-1266.56Z" style="fill:#ccc;stroke:#1a1a1a;stroke-width:27.08px;"/><rect x="1801.41" y="1099.33" width="1958.36" height="1102.94" style="fill:#1a1a1a;stroke:#f2f2f2;stroke-width:27.08px;"/><g><rect x="1801.41" y="1099.33" width="1958.36" height="1102.94" style="fill:#1a1a1a;stroke:#000;stroke-width:27.08px;"/><rect x="1801.41" y="1099.33" width="442.284" height="1102.94" style="fill:#0d0d0d;stroke:#1a1a1a;stroke-width:27.08px;"/><path d="M1857.82,1244.56l315.901,0" style="fill:none;stroke:#262626;stroke-width:27.08px;"/><path d="M1857.82,1810.17l276.413,0" style="fill:none;stroke:#262626;stroke-width:27.08px;"/><path d="M1901.27,1337.82l197.438,0" style="fill:none;stroke:#262626;stroke-width:27.08px;"/><path d="M1901.27,1416.05l251.029,0" style="fill:none;stroke:#262626;stroke-width:27.08px;"/><path d="M1901.27,1497.28l160.771,0" style="fill:none;stroke:#262626;stroke-width:27.08px;"/><path d="M1901.27,1578.51l225.644,0" style="fill:none;stroke:#262626;stroke-width:27.08px;"/><path d="M1901.27,1909.45l225.644,0" style="fill:none;stroke:#262626;stroke-width:27.08px;"/><path d="M1901.27,1990.68l188.977,0" style="fill:none;stroke:#262626;stroke-width:27.08px;"/><path d="M2378.36,1379.94l693.854,0" style="fill:none;stroke:#262626;stroke-width:27.08px;"/><path d="M2488.36,1467.19l719.239,0" style="fill:none;stroke:#262626;stroke-width:27.08px;"/><path d="M2488.36,1557.45l499.236,0" style="fill:none;stroke:#262626;stroke-width:27.08px;"/><path d="M2488.36,1650.8l640.263,0" style="fill:#262626;stroke:#262626;stroke-width:27.08px;"/><path d="M2378.36,1756.1l693.854,0" style="fill:none;stroke:#262626;stroke-width:27.08px;"/><path d="M2378.36,1900.52l524.621,0" style="fill:none;stroke:#262626;stroke-width:27.08px;"/><path d="M2488.36,1993.78l499.236,0" style="fill:none;stroke:#262626;stroke-width:27.08px;"/><path d="M2572.98,2090.06l499.237,0" style="fill:none;stroke:#262626;stroke-width:27.08px;"/><path d="M2378.36,1244.56l315.901,0" style="fill:none;stroke:#262626;stroke-width:27.08px;"/></g><rect id="Glare" x="1801.41" y="1099.33" width="1958.36" height="1102.94" style="fill:none;"/><clipPath id="_clip2"><rect x="1801.41" y="1099.33" width="1958.36" height="1102.94"/></clipPath><g clip-path="url(#_clip2)"><g opacity="0.03"><path d="M2926.95,898.117l-361.924,-155.64l-687.896,1575.68l361.924,155.641l687.896,-1575.68Z" style="fill:#fff;"/><path d="M3148.76,993.503l-163.166,-70.167l-687.896,1575.68l163.166,70.166l687.896,-1575.68Z" style="fill:#fff;"/></g></g><rect x="1801.41" y="1099.33" width="1958.36" height="1102.94" style="fill:none;stroke:#1a1a1a;stroke-width:27.08px;"/></g><ellipse id="Power-Button" serif:id="Power Button" cx="2780.59" cy="2315.09" rx="46.527" ry="46.885" style="fill:#1a1a1a;"/></g><g id="Window"><path d="M3445.98,717.147c0,-14.958 -12.126,-27.084 -27.084,-27.084l-1294.82,0c-14.958,0 -27.084,12.126 -27.084,27.084l0,774.997c0,14.957 12.126,27.083 27.084,27.083l1294.82,0c14.958,0 27.084,-12.126 27.084,-27.083l0,-774.997Zm-27.084,0l-1294.82,0l0,774.997l1294.82,0l0,-774.997Z" style="fill:#1a1a1a;"/><rect x="2124.08" y="717.147" width="1294.82" height="774.997" style="fill:#f2f2f2;"/><g><path d="M2620.42,932.002l323.705,0" style="fill:#262626;stroke:#262626;stroke-width:27.08px;"/><path d="M2474.76,1035.59l593.46,0" style="fill:#262626;stroke:#262626;stroke-width:27.08px;"/><path d="M2474.76,1104.64l593.46,0" style="fill:none;stroke:#262626;stroke-width:27.08px;"/></g><g><path d="M2560,1251.22c0,-14.958 -12.126,-27.083 -27.084,-27.083l-272.171,0c-14.958,0 -27.083,12.125 -27.083,27.083l0,178.425c0,14.958 12.125,27.083 27.083,27.083l272.171,0c14.958,0 27.084,-12.125 27.084,-27.083l0,-178.425Zm-27.084,0l-272.171,0l0,178.425l272.171,0l0,-178.425Z" style="fill:#262626;"/><rect x="2260.74" y="1251.22" width="272.171" height="178.425" style="fill:#ff6780;"/><path d="M2934.66,1251.22c0,-14.958 -12.126,-27.083 -27.084,-27.083l-272.171,0c-14.958,0 -27.083,12.125 -27.083,27.083l0,178.425c0,14.958 12.125,27.083 27.083,27.083l272.171,0c14.958,0 27.084,-12.125 27.084,-27.083l0,-178.425Zm-27.084,0l-272.171,0l0,178.425l272.171,0l0,-178.425Z" style="fill:#262626;"/><rect x="2635.4" y="1251.22" width="272.171" height="178.425" style="fill:#9149af;"/><path d="M3309.31,1251.22c0,-14.958 -12.126,-27.083 -27.084,-27.083l-272.171,0c-14.958,0 -27.083,12.125 -27.083,27.083l0,178.425c0,14.958 12.125,27.083 27.083,27.083l272.171,0c14.958,0 27.084,-12.125 27.084,-27.083l0,-178.425Zm-27.084,0l-272.171,0l0,178.425l272.171,0l0,-178.425Z" style="fill:#262626;"/><rect x="3010.06" y="1251.22" width="272.171" height="178.425" style="fill:#3a8fed;"/></g><path d="M3445.98,717.147c0,-14.958 -12.126,-27.084 -27.084,-27.084l-1294.82,0c-14.958,0 -27.084,12.126 -27.084,27.084l0,51.669c0,14.958 12.126,27.084 27.084,27.084l1294.82,0c14.958,0 27.084,-12.126 27.084,-27.084l0,-51.669Zm-27.084,0l-1294.82,0l0,51.669l1294.82,0l0,-51.669Z" style="fill:#1a1a1a;"/><rect x="2124.08" y="717.147" width="1294.82" height="51.67" style="fill:#404040;"/><g><ellipse cx="2171.86" cy="742.956" rx="15.415" ry="16.442" style="fill:#f27d7d;"/><ellipse cx="2221.19" cy="742.956" rx="15.415" ry="16.442" style="fill:#f0f27d;"/><ellipse cx="2270.51" cy="742.956" rx="15.415" ry="16.442" style="fill:#7df299;"/></g></g></g><g id="Laptop"><path d="M1983.37,1620.38c0,-5.526 -2.195,-10.825 -6.102,-14.732c-3.907,-3.907 -9.206,-6.102 -14.731,-6.102c-177.082,0 -1427.59,0 -1604.68,0c-5.525,0 -10.824,2.195 -14.731,6.102c-3.907,3.907 -6.102,9.206 -6.102,14.732c0,142.025 0,962.14 0,962.14l1646.34,0l0,-962.14Z" style="fill:#404040;stroke:#1a1a1a;stroke-width:27.08px;"/><path d="M2045.02,2582.53l-1769.64,0l0,52.213c0,23.012 18.654,41.666 41.666,41.667c240.232,0 1446.07,0 1686.31,0c23.012,-0.001 41.667,-18.655 41.667,-41.667c0,-25.089 0,-52.213 0,-52.213Z" style="fill:#bfbfbf;stroke:#1a1a1a;stroke-width:27.08px;"/><path d="M1258.37,2582.53l-196.336,0l0,0.004c0,9.256 3.677,18.133 10.222,24.678c6.545,6.545 15.422,10.222 24.678,10.222c35.697,0 90.839,0 126.535,0c9.257,0 18.134,-3.677 24.679,-10.222c6.545,-6.545 10.222,-15.422 10.222,-24.678c0,-0.003 0,-0.004 0,-0.004Z" style="stroke:#1a1a1a;stroke-width:27.08px;"/><rect x="393.98" y="1663.06" width="1532.44" height="855.96" style="fill:#262626;"/><clipPath id="_clip3"><rect x="393.98" y="1663.06" width="1532.44" height="855.96"/></clipPath><g clip-path="url(#_clip3)"><g id="Shapes"><path d="M1226.05,1958.84c0,-14.958 -12.125,-27.083 -27.083,-27.083l-349.403,0c-14.957,0 -27.083,12.125 -27.083,27.083l0,349.403c0,14.957 12.126,27.083 27.083,27.083l349.403,0c14.958,0 27.083,-12.126 27.083,-27.083l0,-349.403Zm-27.083,0l-349.403,0l0,349.403l349.403,0l0,-349.403Z" style="fill:#0d0d0d;"/><rect x="849.568" y="1958.84" width="349.403" height="349.403" style="fill:#ff637c;"/><path d="M1234.22,1791.05c-113.355,0 -205.386,92.03 -205.386,205.386c0,113.355 92.031,205.385 205.386,205.385c113.355,0 205.385,-92.03 205.385,-205.385c0,-113.356 -92.03,-205.386 -205.385,-205.386Zm0,27.083c98.408,0 178.302,79.895 178.302,178.303c0,98.407 -79.894,178.302 -178.302,178.302c-98.408,0 -178.302,-79.895 -178.302,-178.302c0,-98.408 79.894,-178.303 178.302,-178.303Z" style="fill:#0d0d0d;"/><circle cx="1234.22" cy="1996.44" r="178.302" style="fill:#8e44ad;"/><path d="M1320.36,2002.43c-4.588,-9.175 -13.966,-14.971 -24.224,-14.971c-10.259,0 -19.637,5.796 -24.224,14.971l-174.702,349.403c-4.197,8.395 -3.749,18.366 1.186,26.35c4.935,7.985 13.652,12.845 23.038,12.845l349.403,0c9.387,0 18.104,-4.86 23.039,-12.845c4.934,-7.984 5.383,-17.955 1.185,-26.35l-174.701,-349.403Zm-24.224,12.112l174.701,349.403l-349.403,0l174.702,-349.403Z" style="fill:#0d0d0d;"/><path d="M1296.14,2014.54l174.701,349.403l-349.403,0l174.702,-349.403Z" style="fill:#3a8fed;"/></g><g opacity="0.04"><path d="M1309.95,1246.61l-326.453,-140.386l-761.034,1743.21l326.453,140.386l761.034,-1743.21Z" style="fill:#fff;"/><path d="M1510.02,1332.64l-147.173,-63.29l-761.034,1743.21l147.174,63.29l761.033,-1743.21Z" style="fill:#fff;"/></g></g><rect x="393.98" y="1663.06" width="1532.44" height="855.96" style="fill:none;stroke:#1a1a1a;stroke-width:27.08px;"/></g><g id="Plant"><g><path d="M4836.01,1979.39c28.549,73.384 19.192,172.395 -32.095,261.912c-51.288,89.517 -131.7,147.188 -209.041,158.965c-28.55,-73.384 -19.193,-172.395 32.095,-261.912c51.287,-89.516 131.7,-147.188 209.041,-158.965Z" style="fill:#4e9354;"/><clipPath id="_clip4"><path d="M4836.01,1979.39c28.549,73.384 19.192,172.395 -32.095,261.912c-51.288,89.517 -131.7,147.188 -209.041,158.965c-28.55,-73.384 -19.193,-172.395 32.095,-261.912c51.287,-89.516 131.7,-147.188 209.041,-158.965Z"/></clipPath><g clip-path="url(#_clip4)"><path d="M4812.5,1849.58c48.212,30.521 30.763,144.691 -38.94,254.795c-69.703,110.105 -165.435,174.717 -213.646,144.196c-48.212,-30.521 -30.763,-144.691 38.94,-254.796c69.703,-110.104 165.435,-174.716 213.646,-144.195Z" style="fill:#fff;fill-opacity:0.1;"/></g><path d="M4836.01,1979.39c28.549,73.384 19.192,172.395 -32.095,261.912c-51.288,89.517 -131.7,147.188 -209.041,158.965c-28.55,-73.384 -19.193,-172.395 32.095,-261.912c51.287,-89.516 131.7,-147.188 209.041,-158.965Z" style="fill:none;stroke:#1a1a1a;stroke-width:27.08px;"/><path d="M4321.9,1979.39c-28.55,73.384 -19.193,172.395 32.095,261.912c51.287,89.517 131.7,147.188 209.041,158.965c28.549,-73.384 19.192,-172.395 -32.095,-261.912c-51.288,-89.516 -131.7,-147.188 -209.041,-158.965Z" style="fill:#4e9354;"/><clipPath id="_clip5"><path d="M4321.9,1979.39c-28.55,73.384 -19.193,172.395 32.095,261.912c51.287,89.517 131.7,147.188 209.041,158.965c28.549,-73.384 19.192,-172.395 -32.095,-261.912c-51.288,-89.516 -131.7,-147.188 -209.041,-158.965Z"/></clipPath><g clip-path="url(#_clip5)"><path d="M4203.21,1900.19c52.639,-22.022 149.67,89.881 216.546,249.736c66.875,159.855 78.433,307.516 25.793,329.538c-52.639,22.021 -149.67,-89.882 -216.545,-249.737c-66.876,-159.855 -78.434,-307.516 -25.794,-329.537Z" style="fill:#fff;fill-opacity:0.1;"/></g><path d="M4321.9,1979.39c-28.55,73.384 -19.193,172.395 32.095,261.912c51.287,89.517 131.7,147.188 209.041,158.965c28.549,-73.384 19.192,-172.395 -32.095,-261.912c-51.288,-89.516 -131.7,-147.188 -209.041,-158.965Z" style="fill:none;stroke:#1a1a1a;stroke-width:27.08px;"/><path d="M4584.04,1914.28c61.136,49.167 102.16,139.628 102.16,242.993c0,103.365 -41.024,193.826 -102.16,242.993c-61.136,-49.167 -102.16,-139.628 -102.16,-242.993c0,-103.365 41.024,-193.826 102.16,-242.993Z" style="fill:#5aa760;"/><clipPath id="_clip6"><path d="M4584.04,1914.28c61.136,49.167 102.16,139.628 102.16,242.993c0,103.365 -41.024,193.826 -102.16,242.993c-61.136,-49.167 -102.16,-139.628 -102.16,-242.993c0,-103.365 41.024,-193.826 102.16,-242.993Z"/></clipPath><g clip-path="url(#_clip6)"><path d="M4531.45,1841.32c56.715,6.265 81.095,207.479 54.41,449.054c-26.686,241.574 -94.397,432.615 -151.113,426.35c-56.715,-6.265 -81.095,-207.479 -54.409,-449.054c26.686,-241.574 94.397,-432.615 151.112,-426.35Z" style="fill:#fff;fill-opacity:0.1;"/></g><path d="M4584.04,1914.28c61.136,49.167 102.16,139.628 102.16,242.993c0,103.365 -41.024,193.826 -102.16,242.993c-61.136,-49.167 -102.16,-139.628 -102.16,-242.993c0,-103.365 41.024,-193.826 102.16,-242.993Z" style="fill:none;stroke:#1a1a1a;stroke-width:27.08px;"/></g><path d="M4838.65,2345.8l-497.799,0l124.45,330.6l248.9,0l124.449,-330.6Z" style="fill:#485bd3;"/><clipPath id="_clip7"><path d="M4838.65,2345.8l-497.799,0l124.45,330.6l248.9,0l124.449,-330.6Z"/></clipPath><g clip-path="url(#_clip7)"><rect x="4327.58" y="2381.64" width="524.348" height="77.395" style="fill-opacity:0.2;"/></g><path d="M4838.65,2345.8l-497.799,0l124.45,330.6l248.9,0l124.449,-330.6Z" style="fill:none;stroke:#1a1a1a;stroke-width:27.08px;"/><path d="M4851.93,2381.63c0,-9.501 -3.775,-18.614 -10.493,-25.332c-6.719,-6.719 -15.831,-10.493 -25.332,-10.493c-95.771,0 -356.928,0 -452.698,0c-9.502,0 -18.614,3.774 -25.332,10.493c-6.719,6.718 -10.493,15.831 -10.493,25.332c0,0.004 0,0.008 0,0.012c0,9.501 3.774,18.613 10.493,25.332c6.718,6.718 15.83,10.493 25.332,10.493c95.77,0 356.927,0 452.698,0c9.501,0 18.613,-3.775 25.332,-10.493c6.718,-6.719 10.493,-15.831 10.493,-25.332c0,-0.004 0,-0.008 0,-0.012Z" style="fill:#485bd3;stroke:#1a1a1a;stroke-width:27.08px;"/></g><g id="Cup"><path d="M4320.45,2337.95l110.561,0c71.238,0 128.987,52.85 128.987,118.044c0,0 0,0 0,0c0,65.194 -57.749,118.045 -128.987,118.045l-110.561,0l0,-59.539l112.831,0c35.307,0 63.93,-26.194 63.93,-58.506c0,0 0,0 0,0c0,-32.312 -28.623,-58.506 -63.93,-58.506l-112.831,0l0,-59.538Z" style="fill:#f2f2f2;stroke:#1a1a1a;stroke-width:27.08px;"/><path d="M4417.06,2277.24c0,-23.012 -18.655,-41.667 -41.667,-41.667l-281.759,0c-23.012,0 -41.666,18.655 -41.666,41.667l0,357.497c0,23.012 18.654,41.667 41.666,41.667l281.759,0c23.012,0 41.667,-18.655 41.667,-41.667l0,-357.497Z" style="fill:#f2f2f2;"/><clipPath id="_clip8"><path d="M4417.06,2277.24c0,-23.012 -18.655,-41.667 -41.667,-41.667l-281.759,0c-23.012,0 -41.666,18.655 -41.666,41.667l0,357.497c0,23.012 18.654,41.667 41.666,41.667l281.759,0c23.012,0 41.667,-18.655 41.667,-41.667l0,-357.497Z"/></clipPath><g clip-path="url(#_clip8)"><path d="M4261.96,2166.67c66.768,50.44 66.876,169.235 0.242,265.118c-66.635,95.882 -174.94,132.776 -241.708,82.335c-66.768,-50.44 -66.876,-169.235 -0.242,-265.118c66.635,-95.882 174.94,-132.775 241.708,-82.335Z" style="fill:#fff;fill-opacity:0.7;"/></g><path d="M4417.06,2277.24c0,-23.012 -18.655,-41.667 -41.667,-41.667l-281.759,0c-23.012,0 -41.666,18.655 -41.666,41.667l0,357.497c0,23.012 18.654,41.667 41.666,41.667l281.759,0c23.012,0 41.667,-18.655 41.667,-41.667l0,-357.497Z" style="fill:none;stroke:#1a1a1a;stroke-width:27.08px;"/><path d="M4170.86,2367.33c-1.606,-38.885 -4.817,-116.657 0,-133.718c2.903,-10.284 17.233,-21.332 24.653,1.959" style="fill:none;stroke:#1a1a1a;stroke-width:27.08px;"/><path d="M4211.08,2335.32l-41.938,-19.504l-43.598,19.504l0,83.536l85.536,0l0,-83.536Z" style="fill:#bbd9ba;stroke:#1a1a1a;stroke-width:27.08px;"/></g></g><g id="Shapes1" serif:id="Shapes"><path d="M1239.76,18.827l64.655,29.112l-24.997,77.445l68.771,30.966l-26.588,82.375l64.864,29.206" style="fill:none;stroke:#e6e6e6;stroke-width:37.65px;"/><path d="M5143.19,289.346l-82.849,2.482l-5.642,68.909l-88.123,2.64l-6.001,73.295l-83.116,2.491" style="fill:none;stroke:#e6e6e6;stroke-width:37.65px;"/><g><path d="M893.461,958.043l0,91.667" style="fill:none;stroke:#e6e6e6;stroke-width:37.65px;"/><path d="M939.294,1003.88l-91.666,0" style="fill:none;stroke:#e6e6e6;stroke-width:37.65px;"/></g><g><path d="M4041.41,144.587l0,95.833" style="fill:none;stroke:#e6e6e6;stroke-width:37.65px;"/><path d="M4089.33,192.504l-95.833,0" style="fill:none;stroke:#e6e6e6;stroke-width:37.65px;"/></g><g><path d="M72.994,590.476l0,108.334" style="fill:none;stroke:#e6e6e6;stroke-width:37.65px;"/><path d="M127.16,644.643l-108.333,0" style="fill:none;stroke:#e6e6e6;stroke-width:37.65px;"/></g><g><path d="M4887.2,1289.82l0,125" style="fill:none;stroke:#e6e6e6;stroke-width:37.65px;"/><path d="M4949.7,1352.32l-125,0" style="fill:none;stroke:#e6e6e6;stroke-width:37.65px;"/></g></g></svg>