<?xml version="1.0" encoding="UTF-8" standalone="no"?>
<!DOCTYPE svg PUBLIC "-//W3C//DTD SVG 1.1//EN" "http://www.w3.org/Graphics/SVG/1.1/DTD/svg11.dtd">
<svg width="100%" height="100%" viewBox="0 0 1239 647" version="1.1" xmlns="http://www.w3.org/2000/svg" xmlns:xlink="http://www.w3.org/1999/xlink" xml:space="preserve" xmlns:serif="http://www.serif.com/" style="fill-rule:evenodd;clip-rule:evenodd;stroke-linecap:round;stroke-linejoin:round;stroke-miterlimit:1.5;">
    <g transform="matrix(1,0,0,1,-25.9731,-188.572)">
        <g id="Desktop-Shizz" serif:id="Desktop Shizz" transform="matrix(1.25,0,0,1.33333,12.0279,-1434.76)">
            <g transform="matrix(1,0,0,1,-0.617429,1158.3)">
                <g id="Monitor" transform="matrix(0.533324,0,0,0.503842,140.845,60.126)">
                    <g id="Base">
                        <g transform="matrix(1,0,0,1,31.0175,-94.6667)">
                            <path d="M800,1046L656,1046L692,878L764,878L800,1046Z" style="fill:rgb(191,191,191);"/>
                            <clipPath id="_clip1">
                                <path d="M800,1046L656,1046L692,878L764,878L800,1046Z"/>
                            </clipPath>
                            <g clip-path="url(#_clip1)">
                                <g transform="matrix(1,0,0,0.869393,-39.0175,246.741)">
                                    <rect x="655.333" y="801.623" width="214.127" height="51.044" style="fill:rgb(38,38,38);fill-opacity:0.3;"/>
                                </g>
                            </g>
                            <path d="M800,1046L656,1046L692,878L764,878L800,1046Z" style="fill:none;stroke:rgb(26,26,26);stroke-width:13.5px;"/>
                        </g>
                        <g transform="matrix(1,0,0,1.25,37.0175,-233.167)">
                            <rect x="528" y="938" width="388" height="12" style="fill:rgb(26,26,26);stroke:rgb(26,26,26);stroke-width:11.92px;"/>
                        </g>
                    </g>
                    <g id="Screen">
                        <g transform="matrix(0.961962,0,0,1.03252,41.6977,1.3191)">
                            <path d="M1166.32,364.463C1166.32,344.558 1148.86,328.421 1127.33,328.421C986.488,328.421 504.88,328.421 364.036,328.421C342.506,328.421 325.053,344.558 325.053,364.463C325.053,458.219 325.053,708.939 325.053,802.695C325.053,822.6 342.506,838.737 364.036,838.737C504.88,838.737 986.488,838.737 1127.33,838.737C1148.86,838.737 1166.32,822.6 1166.32,802.695C1166.32,708.939 1166.32,458.219 1166.32,364.463Z" style="fill:rgb(204,204,204);stroke:rgb(26,26,26);stroke-width:13.53px;"/>
                        </g>
                        <g transform="matrix(0.838052,0,0,0.772131,134.095,137.333)">
                            <rect x="325.053" y="328.421" width="841.263" height="510.316" style="fill:rgb(26,26,26);stroke:rgb(242,242,242);stroke-width:16.76px;"/>
                        </g>
                        <g transform="matrix(0.541544,0,0,0.541544,347.976,-332.401)">
                            <g transform="matrix(1.54752,0,0,1.42579,-394.946,867.397)">
                                <rect x="325.053" y="328.421" width="841.263" height="510.316" style="fill:rgb(26,26,26);stroke:black;stroke-width:16.76px;"/>
                            </g>
                            <g transform="matrix(1.87503,0,0,1.89813,-267.383,-1413.17)">
                                <rect x="200.244" y="1448.18" width="156.808" height="383.328" style="fill:rgb(13,13,13);"/>
                            </g>
                            <g transform="matrix(1.87503,0,0,1.98475,-642.389,-1573.81)">
                                <path d="M420.244,1514.18L532.244,1514.18" style="fill:none;stroke:rgb(26,26,26);stroke-width:12.91px;"/>
                            </g>
                            <g transform="matrix(1.64065,0,0,1.98475,-543.893,-1200.67)">
                                <path d="M420.244,1514.18L532.244,1514.18" style="fill:none;stroke:rgb(26,26,26);stroke-width:13.68px;"/>
                            </g>
                            <g transform="matrix(1.1719,0,0,1.98475,-318.017,-1512.28)">
                                <path d="M420.244,1514.18L532.244,1514.18" style="fill:none;stroke:rgb(26,26,26);stroke-width:15.27px;"/>
                            </g>
                            <g transform="matrix(1.48998,0,0,1.98475,-451.691,-1460.68)">
                                <path d="M420.244,1514.18L532.244,1514.18" style="fill:none;stroke:rgb(26,26,26);stroke-width:14.19px;"/>
                            </g>
                            <g transform="matrix(0.954258,0,0,1.98475,-226.557,-1407.09)">
                                <path d="M420.244,1514.18L532.244,1514.18" style="fill:none;stroke:rgb(26,26,26);stroke-width:15.97px;"/>
                            </g>
                            <g transform="matrix(1.33931,0,0,1.98475,-388.372,-1353.5)">
                                <path d="M420.244,1514.18L532.244,1514.18" style="fill:none;stroke:rgb(26,26,26);stroke-width:14.71px;"/>
                            </g>
                            <g transform="matrix(1.33931,0,0,1.98475,-388.372,-1135.18)">
                                <path d="M420.244,1514.18L532.244,1514.18" style="fill:none;stroke:rgb(26,26,26);stroke-width:14.71px;"/>
                            </g>
                            <g transform="matrix(1.12167,0,0,1.98475,-296.911,-1081.59)">
                                <path d="M420.244,1514.18L532.244,1514.18" style="fill:none;stroke:rgb(26,26,26);stroke-width:15.44px;"/>
                            </g>
                            <g transform="matrix(4.11837,0,0,1.98475,-1239.1,-1484.49)">
                                <path d="M420.244,1514.18L532.244,1514.18" style="fill:none;stroke:rgb(51,51,51);stroke-width:7.73px;"/>
                            </g>
                            <g transform="matrix(4.26905,0,0,1.98475,-1229.29,-1426.93)">
                                <path d="M420.244,1514.18L532.244,1514.18" style="fill:none;stroke:rgb(51,51,51);stroke-width:7.51px;"/>
                            </g>
                            <g transform="matrix(2.96322,0,0,1.98475,-680.525,-1367.39)">
                                <path d="M420.244,1514.18L532.244,1514.18" style="fill:none;stroke:rgb(51,51,51);stroke-width:9.9px;"/>
                            </g>
                            <g transform="matrix(3.80029,0,0,1.98475,-1032.3,-1305.81)">
                                <path d="M420.244,1514.18L532.244,1514.18" style="fill:none;stroke:rgb(51,51,51);stroke-width:8.24px;"/>
                            </g>
                            <g transform="matrix(4.11837,0,0,1.98475,-1239.1,-1236.34)">
                                <path d="M420.244,1514.18L532.244,1514.18" style="fill:none;stroke:rgb(51,51,51);stroke-width:7.73px;"/>
                            </g>
                            <g transform="matrix(3.11389,0,0,1.98475,-816.97,-1141.07)">
                                <path d="M420.244,1514.18L532.244,1514.18" style="fill:none;stroke:rgb(51,51,51);stroke-width:9.57px;"/>
                            </g>
                            <g transform="matrix(2.96322,0,0,1.98475,-680.525,-1079.55)">
                                <path d="M420.244,1514.18L532.244,1514.18" style="fill:none;stroke:rgb(51,51,51);stroke-width:9.9px;"/>
                            </g>
                            <g transform="matrix(2.96322,0,0,1.98475,-624.274,-1016.03)">
                                <path d="M420.244,1514.18L532.244,1514.18" style="fill:none;stroke:rgb(51,51,51);stroke-width:9.9px;"/>
                            </g>
                            <g transform="matrix(1.87503,0,0,1.98475,-296.347,-1573.81)">
                                <path d="M420.244,1514.18L532.244,1514.18" style="fill:none;stroke:rgb(51,51,51);stroke-width:12.91px;"/>
                            </g>
                        </g>
                        <g id="Glare" transform="matrix(1.74596,0,0,1.75929,-110.647,-2066.58)">
                            <rect x="296.2" y="1396.87" width="403.803" height="223.971" style="fill:none;"/>
                            <clipPath id="_clip2">
                                <rect x="296.2" y="1396.87" width="403.803" height="223.971"/>
                            </clipPath>
                            <g clip-path="url(#_clip2)">
                                <g transform="matrix(0.525539,0.222574,-0.185655,0.418808,235.312,1126.97)">
                                    <g opacity="0.03">
                                        <rect x="490" y="211" width="142" height="764" style="fill:white;"/>
                                        <g transform="matrix(0.450828,0,0,1,434.103,0)">
                                            <rect x="490" y="211" width="142" height="764" style="fill:white;"/>
                                        </g>
                                    </g>
                                </g>
                            </g>
                            <rect x="296.2" y="1396.87" width="403.803" height="223.971" style="fill:none;stroke:rgb(26,26,26);stroke-width:7.7px;"/>
                        </g>
                    </g>
                    <g id="Power-Button" serif:id="Power Button" transform="matrix(0.797619,0,0,0.797619,155.22,166.417)">
                        <circle cx="757" cy="826" r="21" style="fill:rgb(26,26,26);"/>
                    </g>
                </g>
                <g id="Window" transform="matrix(6.21514,0,0,6.21514,-1873.79,-731.072)">
                    <g transform="matrix(1,0,0,1.19394,0,-29.0194)">
                        <path d="M410.163,148.201C410.163,147.696 409.642,147.287 409,147.287L369,147.287C368.358,147.287 367.837,147.696 367.837,148.201L367.837,167C367.837,167.504 368.358,167.913 369,167.913L409,167.913C409.642,167.913 410.163,167.504 410.163,167L410.163,148.201ZM409,148.201L369,148.201L369,167L409,167L409,148.201Z" style="fill:rgb(26,26,26);"/>
                        <rect x="369" y="148.201" width="40" height="18.799" style="fill:rgb(242,242,242);"/>
                    </g>
                    <g>
                        <g transform="matrix(0.294118,0,0,1,274.922,-8.8541)">
                            <path d="M372,163L406,163" style="fill:none;stroke:rgb(38,38,38);stroke-width:1.06px;"/>
                        </g>
                        <g transform="matrix(0.539216,0,0,1,179.245,-5.8541)">
                            <path d="M372,163L406,163" style="fill:none;stroke:rgb(38,38,38);stroke-width:0.98px;"/>
                        </g>
                        <g transform="matrix(0.539216,0,0,1,179.245,-3.8541)">
                            <path d="M372,163L406,163" style="fill:none;stroke:rgb(38,38,38);stroke-width:0.98px;"/>
                        </g>
                    </g>
                    <g transform="matrix(0.840799,0,0,0.840799,61.9291,34.8713)">
                        <g transform="matrix(1,0,0,1,-1.76545,-0.145898)">
                            <path d="M382.988,153C382.988,152.488 382.546,152.074 382,152.074L372,152.074C371.454,152.074 371.012,152.488 371.012,153L371.012,159.146C371.012,159.658 371.454,160.072 372,160.072L382,160.072C382.546,160.072 382.988,159.658 382.988,159.146L382.988,153ZM382,153L372,153L372,159.146L382,159.146L382,153Z" style="fill:rgb(38,38,38);"/>
                            <rect x="372" y="153" width="10" height="6.146" style="fill:rgb(204,204,204);"/>
                        </g>
                        <g transform="matrix(1,0,0,1,12,-0.145898)">
                            <path d="M382.988,153C382.988,152.488 382.546,152.074 382,152.074L372,152.074C371.454,152.074 371.012,152.488 371.012,153L371.012,159.146C371.012,159.658 371.454,160.072 372,160.072L382,160.072C382.546,160.072 382.988,159.658 382.988,159.146L382.988,153ZM382,153L372,153L372,159.146L382,159.146L382,153Z" style="fill:rgb(38,38,38);"/>
                            <rect x="372" y="153" width="10" height="6.146" style="fill:rgb(204,204,204);"/>
                        </g>
                        <g transform="matrix(1,0,0,1,25.7654,-0.145898)">
                            <path d="M382.988,153C382.988,152.488 382.546,152.074 382,152.074L372,152.074C371.454,152.074 371.012,152.488 371.012,153L371.012,159.146C371.012,159.658 371.454,160.072 372,160.072L382,160.072C382.546,160.072 382.988,159.658 382.988,159.146L382.988,153ZM382,153L372,153L372,159.146L382,159.146L382,153Z" style="fill:rgb(38,38,38);"/>
                            <rect x="372" y="153" width="10" height="6.146" style="fill:rgb(204,204,204);"/>
                        </g>
                    </g>
                    <g transform="matrix(0.951538,0,0,0.531406,20.3486,68.3946)">
                        <path d="M409.668,149.657C409.668,148.524 409.121,147.605 408.445,147.605L366.408,147.605C365.733,147.605 365.186,148.524 365.186,149.657L365.186,152.473C365.186,153.607 365.733,154.525 366.408,154.525L408.445,154.525C409.121,154.525 409.668,153.607 409.668,152.473L409.668,149.657ZM408.445,149.657L366.408,149.657L366.408,152.473L408.445,152.473L408.445,149.657Z" style="fill:rgb(26,26,26);"/>
                        <rect x="366.408" y="149.657" width="42.037" height="2.816" style="fill:rgb(64,64,64);"/>
                    </g>
                    <g transform="matrix(0.190476,0,0,0.190476,299.714,122.861)">
                        <circle cx="371.5" cy="135.5" r="2.5" style="fill:rgb(242,125,125);"/>
                        <g transform="matrix(1,0,0,1,8,0)">
                            <circle cx="371.5" cy="135.5" r="2.5" style="fill:rgb(240,242,125);"/>
                        </g>
                        <g transform="matrix(1,0,0,1,16,0)">
                            <circle cx="371.5" cy="135.5" r="2.5" style="fill:rgb(125,242,153);"/>
                        </g>
                    </g>
                </g>
            </g>
            <g id="Laptop" transform="matrix(0.61479,0,0,0.61479,-80.8575,1129.68)">
                <g transform="matrix(1,0,0,1,32.3368,-250.611)">
                    <path d="M736.741,867.877C736.741,866.259 736.056,864.707 734.835,863.563C733.615,862.419 731.96,861.777 730.235,861.777C674.932,861.777 284.395,861.777 229.092,861.777C227.366,861.777 225.711,862.419 224.491,863.563C223.271,864.707 222.585,866.259 222.585,867.877C222.585,909.459 222.585,1149.58 222.585,1149.58L736.741,1149.58L736.741,867.877Z" style="fill:rgb(64,64,64);stroke:rgb(26,26,26);stroke-width:11.37px;"/>
                </g>
                <g transform="matrix(0.982227,0,0,1,12.2758,12.9347)">
                    <path d="M790.097,886.029L227.436,886.029L227.436,901.317C227.436,908.054 233.367,913.516 240.684,913.516C317.066,913.516 700.467,913.516 776.849,913.516C784.166,913.516 790.097,908.054 790.097,901.317C790.097,893.971 790.097,886.029 790.097,886.029Z" style="fill:rgb(191,191,191);stroke:rgb(26,26,26);stroke-width:11.47px;"/>
                </g>
                <g transform="matrix(0.607088,0,0,0.444318,260.969,448.566)">
                    <path d="M464,1013.68L363,1013.68L363,1013.69C363,1019.78 364.892,1025.63 368.258,1029.95C371.625,1034.26 376.192,1036.68 380.953,1036.68C399.317,1036.68 427.683,1036.68 446.047,1036.68C450.808,1036.68 455.375,1034.26 458.742,1029.95C462.108,1025.63 464,1019.78 464,1013.69C464,1013.68 464,1013.68 464,1013.68Z" style="stroke:rgb(26,26,26);stroke-width:21.59px;"/>
                </g>
                <g transform="matrix(1.0137,0,0,1.00649,-15.2087,-11.4124)">
                    <rect x="284.025" y="637.036" width="472.118" height="248.994" style="fill:rgb(38,38,38);"/>
                    <clipPath id="_clip3">
                        <rect x="284.025" y="637.036" width="472.118" height="248.994"/>
                    </clipPath>
                    <g clip-path="url(#_clip3)">
                        <g id="Shapes" transform="matrix(0.450395,7.13399e-17,-2.0148e-16,0.425268,389.703,152.935)">
                            <g transform="matrix(1,0,0,1,0,11.4004)">
                                <path d="M334.526,1329.26C334.526,1319.03 326.231,1310.74 316,1310.74L77,1310.74C66.769,1310.74 58.474,1319.03 58.474,1329.26L58.474,1568.26C58.474,1578.5 66.769,1586.79 77,1586.79L316,1586.79C326.231,1586.79 334.526,1578.5 334.526,1568.26L334.526,1329.26ZM316,1329.26L77,1329.26L77,1568.26L316,1568.26L316,1329.26Z" style="fill:rgb(13,13,13);"/>
                                <rect x="77" y="1329.26" width="239" height="239" style="fill:rgb(255,99,124);"/>
                            </g>
                            <g transform="matrix(0.980204,0,0,0.980204,-195.805,-84.0174)">
                                <path d="M546.741,1336.36C467.638,1336.36 403.416,1400.59 403.416,1479.69C403.416,1558.79 467.638,1623.02 546.741,1623.02C625.845,1623.02 690.067,1558.79 690.067,1479.69C690.067,1400.59 625.845,1336.36 546.741,1336.36ZM546.741,1355.26C615.414,1355.26 671.168,1411.02 671.168,1479.69C671.168,1548.36 615.414,1604.12 546.741,1604.12C478.069,1604.12 422.315,1548.36 422.315,1479.69C422.315,1411.02 478.069,1355.26 546.741,1355.26Z" style="fill:rgb(13,13,13);"/>
                                <circle cx="546.741" cy="1479.69" r="124.426" style="fill:rgb(142,68,173);"/>
                            </g>
                            <g transform="matrix(1,0,0,1,217.963,49.5)">
                                <path d="M181.07,1320.98C177.932,1314.7 171.517,1310.74 164.5,1310.74C157.483,1310.74 151.068,1314.7 147.93,1320.98L28.43,1559.98C25.559,1565.72 25.866,1572.54 29.241,1578C32.617,1583.47 38.579,1586.79 45,1586.79L284,1586.79C290.421,1586.79 296.383,1583.47 299.759,1578C303.134,1572.54 303.441,1565.72 300.57,1559.98L181.07,1320.98ZM164.5,1329.26L284,1568.26L45,1568.26L164.5,1329.26Z" style="fill:rgb(13,13,13);"/>
                                <path d="M164.5,1329.26L284,1568.26L45,1568.26L164.5,1329.26Z" style="fill:rgb(58,143,237);"/>
                            </g>
                        </g>
                        <g transform="matrix(0.708267,0.287588,-0.306885,0.66373,183.348,194.09)">
                            <g opacity="0.03">
                                <rect x="490" y="211" width="142" height="764" style="fill:white;"/>
                                <g transform="matrix(0.450828,0,0,1,434.103,0)">
                                    <rect x="490" y="211" width="142" height="764" style="fill:white;"/>
                                </g>
                            </g>
                        </g>
                    </g>
                    <rect x="284.025" y="637.036" width="472.118" height="248.994" style="fill:none;stroke:rgb(26,26,26);stroke-width:11.26px;"/>
                </g>
            </g>
            <g id="Plant" transform="matrix(0.182052,0,0,0.171988,775.602,1303.6)">
                <g transform="matrix(1,0,0,1,-22.7763,57)">
                    <g transform="matrix(1.09132,0.630071,-0.848769,1.47011,1544.75,-1213.22)">
                        <path d="M655.5,1574.19C706.666,1604.5 741,1660.27 741,1724C741,1787.73 706.666,1843.5 655.5,1873.81C604.334,1843.5 570,1787.73 570,1724C570,1660.27 604.334,1604.5 655.5,1574.19Z" style="fill:rgb(78,147,84);"/>
                        <clipPath id="_clip4">
                            <path d="M655.5,1574.19C706.666,1604.5 741,1660.27 741,1724C741,1787.73 706.666,1843.5 655.5,1873.81C604.334,1843.5 570,1787.73 570,1724C570,1660.27 604.334,1604.5 655.5,1574.19Z"/>
                        </clipPath>
                        <g clip-path="url(#_clip4)">
                            <g transform="matrix(3.47716,0.0963663,-0.153418,2.57203,-3086.99,-122.759)">
                                <ellipse cx="1076.81" cy="643.333" rx="24.813" ry="56.667" style="fill:white;fill-opacity:0.1;"/>
                            </g>
                        </g>
                        <path d="M655.5,1574.19C706.666,1604.5 741,1660.27 741,1724C741,1787.73 706.666,1843.5 655.5,1873.81C604.334,1843.5 570,1787.73 570,1724C570,1660.27 604.334,1604.5 655.5,1574.19Z" style="fill:none;stroke:rgb(26,26,26);stroke-width:26.36px;"/>
                    </g>
                    <g transform="matrix(-1.09132,0.630071,0.848769,1.47011,-238.977,-1213.22)">
                        <path d="M655.5,1574.19C706.666,1604.5 741,1660.27 741,1724C741,1787.73 706.666,1843.5 655.5,1873.81C604.334,1843.5 570,1787.73 570,1724C570,1660.27 604.334,1604.5 655.5,1574.19Z" style="fill:rgb(78,147,84);"/>
                        <clipPath id="_clip5">
                            <path d="M655.5,1574.19C706.666,1604.5 741,1660.27 741,1724C741,1787.73 706.666,1843.5 655.5,1873.81C604.334,1843.5 570,1787.73 570,1724C570,1660.27 604.334,1604.5 655.5,1574.19Z"/>
                        </clipPath>
                        <g clip-path="url(#_clip5)">
                            <g transform="matrix(-2.32775,1.92492,2.58761,1.7086,1548.64,-1579.23)">
                                <ellipse cx="1076.81" cy="643.333" rx="24.813" ry="56.667" style="fill:white;fill-opacity:0.1;"/>
                            </g>
                        </g>
                        <path d="M655.5,1574.19C706.666,1604.5 741,1660.27 741,1724C741,1787.73 706.666,1843.5 655.5,1873.81C604.334,1843.5 570,1787.73 570,1724C570,1660.27 604.334,1604.5 655.5,1574.19Z" style="fill:none;stroke:rgb(26,26,26);stroke-width:26.36px;"/>
                    </g>
                    <g transform="matrix(1.26014,0,0,1.69754,-167.765,-1226.37)">
                        <path d="M655.5,1574.19C706.666,1604.5 741,1660.27 741,1724C741,1787.73 706.666,1843.5 655.5,1873.81C604.334,1843.5 570,1787.73 570,1724C570,1660.27 604.334,1604.5 655.5,1574.19Z" style="fill:rgb(78,147,84);"/>
                        <clipPath id="_clip6">
                            <path d="M655.5,1574.19C706.666,1604.5 741,1660.27 741,1724C741,1787.73 706.666,1843.5 655.5,1873.81C604.334,1843.5 570,1787.73 570,1724C570,1660.27 604.334,1604.5 655.5,1574.19Z"/>
                        </clipPath>
                        <g clip-path="url(#_clip6)">
                            <g transform="matrix(2.9464,1.37406,-1.86526,2.1705,-1360.24,-1253.82)">
                                <ellipse cx="1076.81" cy="643.333" rx="24.813" ry="56.667" style="fill:white;fill-opacity:0.1;"/>
                            </g>
                        </g>
                        <path d="M655.5,1574.19C706.666,1604.5 741,1660.27 741,1724C741,1787.73 706.666,1843.5 655.5,1873.81C604.334,1843.5 570,1787.73 570,1724C570,1660.27 604.334,1604.5 655.5,1574.19Z" style="fill:none;stroke:rgb(26,26,26);stroke-width:26.43px;"/>
                    </g>
                </g>
                <g transform="matrix(1,2.08513e-17,-2.08513e-17,-0.829736,36,3687.82)">
                    <path d="M868,2089L343,2089L474.25,1672L736.75,1672L868,2089Z" style="fill:rgb(72,91,211);"/>
                    <clipPath id="_clip7">
                        <path d="M868,2089L343,2089L474.25,1672L736.75,1672L868,2089Z"/>
                    </clipPath>
                    <g clip-path="url(#_clip7)">
                        <g transform="matrix(1.02597,2.57828e-17,-2.16546e-17,-1.03853,-22.9091,3780.22)">
                            <rect x="343" y="1672" width="539" height="94" style="fill-opacity:0.2;"/>
                        </g>
                    </g>
                    <path d="M868,2089L343,2089L474.25,1672L736.75,1672L868,2089Z" style="fill:none;stroke:rgb(26,26,26);stroke-width:43.08px;"/>
                </g>
                <g transform="matrix(1,0,0,1,22,319.5)">
                    <path d="M896,1672.49C896,1662.55 892.019,1653.01 884.934,1645.98C877.848,1638.95 868.238,1635 858.217,1635C757.214,1635 481.786,1635 380.783,1635C370.762,1635 361.152,1638.95 354.066,1645.98C346.981,1653.01 343,1662.55 343,1672.49C343,1672.5 343,1672.5 343,1672.51C343,1682.45 346.981,1691.99 354.066,1699.02C361.152,1706.05 370.762,1710 380.783,1710C481.786,1710 757.214,1710 858.217,1710C868.238,1710 877.848,1706.05 884.934,1699.02C892.019,1691.99 896,1682.45 896,1672.51C896,1672.5 896,1672.5 896,1672.49Z" style="fill:rgb(72,91,211);stroke:rgb(26,26,26);stroke-width:39.56px;"/>
                </g>
            </g>
            <g id="Cup" transform="matrix(0.205524,0,0,0.176332,736.328,1340.6)">
                <g transform="matrix(0.702624,0,0,0.702624,-205.062,454.692)">
                    <path d="M1014.5,1756L1161.5,1756C1256.22,1756 1333,1832.78 1333,1927.5C1333,1927.5 1333,1927.5 1333,1927.5C1333,2022.22 1256.22,2099 1161.5,2099L1014.5,2099L1014.5,2012.5L1164.52,2012.5C1211.46,2012.5 1249.52,1974.44 1249.52,1927.5C1249.52,1927.5 1249.52,1927.5 1249.52,1927.5C1249.52,1880.56 1211.46,1842.5 1164.52,1842.5L1014.5,1842.5L1014.5,1756Z" style="fill:rgb(242,242,242);stroke:rgb(26,26,26);stroke-width:52.23px;"/>
                </g>
                <g transform="matrix(0.877757,0,0,0.903614,73.1015,196.048)">
                    <path d="M598,1583.07C598,1557.07 578.146,1536 553.654,1536L253.777,1536C229.285,1536 209.431,1557.07 209.431,1583.07L209.431,1986.93C209.431,2012.93 229.285,2034 253.777,2034L553.654,2034C578.146,2034 598,2012.93 598,1986.93L598,1583.07Z" style="fill:rgb(242,242,242);"/>
                    <clipPath id="_clip8">
                        <path d="M598,1583.07C598,1557.07 578.146,1536 553.654,1536L253.777,1536C229.285,1536 209.431,1557.07 209.431,1583.07L209.431,1986.93C209.431,2012.93 229.285,2034 253.777,2034L553.654,2034C578.146,2034 598,2012.93 598,1986.93L598,1583.07Z"/>
                    </clipPath>
                    <g clip-path="url(#_clip8)">
                        <g transform="matrix(0.809773,0.649329,-0.898579,1.37242,1550.43,-833.337)">
                            <ellipse cx="310" cy="1666" rx="159" ry="143" style="fill:white;fill-opacity:0.7;"/>
                        </g>
                    </g>
                    <path d="M598,1583.07C598,1557.07 578.146,1536 553.654,1536L253.777,1536C229.285,1536 209.431,1557.07 209.431,1583.07L209.431,1986.93C209.431,2012.93 229.285,2034 253.777,2034L553.654,2034C578.146,2034 598,2012.93 598,1986.93L598,1583.07Z" style="fill:none;stroke:rgb(26,26,26);stroke-width:41.25px;"/>
                </g>
                <g transform="matrix(1,0,0,1,0,30)">
                    <path d="M368,1688.5C366.5,1648.81 363.5,1569.42 368,1552C370.712,1541.5 384.099,1530.23 391.031,1554" style="fill:none;stroke:rgb(26,26,26);stroke-width:36.7px;"/>
                </g>
                <g transform="matrix(0.493255,0,0,0.425528,-152.295,966.249)">
                    <path d="M1131,1691L1051.57,1644.21L969,1691L969,1891.39L1131,1891.39L1131,1691Z" style="fill:rgb(187,217,186);stroke:rgb(26,26,26);stroke-width:79.16px;"/>
                </g>
            </g>
        </g>
        <g id="Shapes1" serif:id="Shapes" transform="matrix(1.10783,0,0,1.33333,206.856,-1473.08)">
            <g transform="matrix(0.0519235,0.115917,-0.117377,0.0525776,210.988,1205.04)">
                <path d="M-19.756,891.646L62.977,808.912L145.71,891.646L233.71,803.646L321.71,891.646L404.71,808.646" style="fill:none;stroke:rgb(217,217,217);stroke-width:54.14px;"/>
            </g>
            <g transform="matrix(-0.115858,0.0776614,0.101085,0.0722601,858.518,1235.42)">
                <path d="M-19.756,891.646L62.977,808.912L145.71,891.646L233.71,803.646L321.71,891.646L404.71,808.646" style="fill:none;stroke:rgb(217,217,217);stroke-width:63.72px;"/>
            </g>
            <g transform="matrix(0.465872,0,0,0.387082,66.7607,1067.79)">
                <path d="M-78.301,906.513L-78.301,949.139" style="fill:none;stroke:rgb(217,217,217);stroke-width:17.51px;"/>
                <g transform="matrix(6.12323e-17,1,-1,6.12323e-17,849.525,1006.13)">
                    <path d="M-78.301,906.513L-78.301,949.139" style="fill:none;stroke:rgb(217,217,217);stroke-width:17.51px;"/>
                </g>
            </g>
            <g transform="matrix(0.487048,0,0,0.404676,750.388,905.42)">
                <path d="M-78.301,906.513L-78.301,949.139" style="fill:none;stroke:rgb(217,217,217);stroke-width:16.75px;"/>
                <g transform="matrix(6.12323e-17,1,-1,6.12323e-17,849.525,1006.13)">
                    <path d="M-78.301,906.513L-78.301,949.139" style="fill:none;stroke:rgb(217,217,217);stroke-width:16.75px;"/>
                </g>
            </g>
            <g transform="matrix(0.550576,0,0,0.45746,-104.352,937.831)">
                <path d="M-78.301,906.513L-78.301,949.139" style="fill:none;stroke:rgb(217,217,217);stroke-width:14.82px;"/>
                <g transform="matrix(6.12323e-17,1,-1,6.12323e-17,849.525,1006.13)">
                    <path d="M-78.301,906.513L-78.301,949.139" style="fill:none;stroke:rgb(217,217,217);stroke-width:14.82px;"/>
                </g>
            </g>
            <g transform="matrix(0.63528,0,0,0.527839,945.225,999.913)">
                <path d="M-78.301,906.513L-78.301,949.139" style="fill:none;stroke:rgb(217,217,217);stroke-width:12.84px;"/>
                <g transform="matrix(6.12323e-17,1,-1,6.12323e-17,849.525,1006.13)">
                    <path d="M-78.301,906.513L-78.301,949.139" style="fill:none;stroke:rgb(217,217,217);stroke-width:12.84px;"/>
                </g>
            </g>
        </g>
    </g>
</svg>
