<?xml version="1.0" encoding="UTF-8" standalone="no"?><!-- Generator: Gravit.io --><svg xmlns="http://www.w3.org/2000/svg" xmlns:xlink="http://www.w3.org/1999/xlink" style="isolation:isolate" viewBox="684 281 93 93" width="93pt" height="93pt"><g><path d=" M 752.008 333.931 L 752.008 341.313 L 752.008 341.313 Q 752.008 343.938 751.047 345.274 L 751.047 345.274 L 751.047 345.274 Q 750.086 346.61 747.871 347.231 L 747.871 347.231 L 747.871 347.231 Q 745.656 347.853 741.742 347.853 L 741.742 347.853 L 741.742 342.556 L 741.742 342.556 Q 744.062 342.509 744.941 341.712 L 744.941 341.712 L 744.941 341.712 Q 745.82 340.915 745.82 339.251 L 745.82 339.251 L 745.82 332.243 L 745.82 331.985 L 745.82 331.985 Q 745.82 329.97 747.203 328.716 L 747.203 328.716 L 747.203 328.716 Q 748.586 327.462 751.281 327.063 L 751.281 327.063 L 751.281 326.782 L 751.281 326.782 Q 745.961 325.985 745.82 321.579 L 745.82 321.579 L 745.82 314.571 L 745.82 314.571 Q 745.82 312.931 744.953 312.134 L 744.953 312.134 L 744.953 312.134 Q 744.086 311.337 741.742 311.267 L 741.742 311.267 L 741.742 305.993 L 741.742 305.993 Q 745.656 305.993 747.883 306.614 L 747.883 306.614 L 747.883 306.614 Q 750.109 307.235 751.059 308.583 L 751.059 308.583 L 751.059 308.583 Q 752.008 309.931 752.008 312.509 L 752.008 312.509 L 752.008 319.962 L 752.008 320.196 L 752.008 320.196 Q 752.008 322.165 753.449 323.149 L 753.449 323.149 L 753.449 323.149 Q 754.891 324.134 758.008 324.134 L 758.008 324.134 L 758.008 329.735 L 758.008 329.735 Q 755.078 329.735 753.543 330.696 L 753.543 330.696 L 753.543 330.696 Q 752.008 331.657 752.008 333.931 L 752.008 333.931 L 752.008 333.931 Z  M 706.227 341.313 L 706.227 333.931 L 706.227 333.931 Q 706.227 331.892 704.691 330.813 L 704.691 330.813 L 704.691 330.813 Q 703.156 329.735 700.227 329.735 L 700.227 329.735 L 700.227 324.134 L 700.227 324.134 Q 703.18 324.134 704.703 323.103 L 704.703 323.103 L 704.703 323.103 Q 706.227 322.071 706.227 320.149 L 706.227 320.149 L 706.227 319.962 L 706.227 312.509 L 706.227 312.509 Q 706.227 308.923 708.5 307.458 L 708.5 307.458 L 708.5 307.458 Q 710.773 305.993 716.492 305.993 L 716.492 305.993 L 716.492 311.267 L 716.492 311.267 Q 714.172 311.337 713.293 312.157 L 713.293 312.157 L 713.293 312.157 Q 712.414 312.978 712.414 314.571 L 712.414 314.571 L 712.414 321.579 L 712.414 321.579 Q 712.273 325.985 706.93 326.782 L 706.93 326.782 L 706.93 327.063 L 706.93 327.063 Q 712.414 327.884 712.414 332.032 L 712.414 332.032 L 712.414 332.243 L 712.414 339.251 L 712.414 339.251 Q 712.414 340.845 713.281 341.665 L 713.281 341.665 L 713.281 341.665 Q 714.148 342.485 716.492 342.556 L 716.492 342.556 L 716.492 347.853 L 716.492 347.853 Q 710.773 347.853 708.5 346.388 L 708.5 346.388 L 708.5 346.388 Q 706.227 344.923 706.227 341.313 L 706.227 341.313 L 706.227 341.313 Z " fill="rgb(142,68,173)"/><path d="M 707.975 285 L 753.025 285 C 764.05 285 773 293.95 773 304.975 L 773 350.025 C 773 361.05 764.05 370 753.025 370 L 707.975 370 C 696.95 370 688 361.05 688 350.025 L 688 304.975 C 688 293.95 696.95 285 707.975 285 Z" style="fill:none;stroke:#8E44AD;stroke-width:8;stroke-linecap:square;stroke-miterlimit:2;"/></g></svg>