<?xml version="1.0" encoding="UTF-8" standalone="no"?>
<!DOCTYPE svg PUBLIC "-//W3C//DTD SVG 1.1//EN" "http://www.w3.org/Graphics/SVG/1.1/DTD/svg11.dtd">
<svg width="100%" height="100%" viewBox="0 0 32 30" version="1.1" xmlns="http://www.w3.org/2000/svg" xmlns:xlink="http://www.w3.org/1999/xlink" xml:space="preserve" xmlns:serif="http://www.serif.com/" style="fill-rule:evenodd;clip-rule:evenodd;stroke-linejoin:round;stroke-miterlimit:2;">
    <g transform="matrix(1,0,0,1,-70.4275,-134.114)">
        <g transform="matrix(0.965102,0,0,0.965102,53.8694,81.1522)">
            <g>
                <g transform="matrix(1,0,0,1,-1.03616,0)">
                    <path d="M22.07,64.07C21.607,63.25 20.65,62.845 19.739,63.084C18.828,63.324 18.193,64.147 18.193,65.089C18.193,71.25 18.193,79.378 18.193,83.138C18.193,83.688 18.411,84.215 18.8,84.604C19.189,84.992 19.716,85.211 20.265,85.211C22.852,85.211 27.316,85.211 30.451,85.211C31.187,85.211 31.869,84.819 32.24,84.183C32.612,83.547 32.618,82.761 32.256,82.12C29.817,77.798 25.323,69.834 22.07,64.07Z" style="fill:rgb(142,68,173);"/>
                </g>
                <g transform="matrix(1,0,0,1,1.03616,0)">
                    <path d="M39.116,56.265C38.475,55.926 37.703,55.948 37.082,56.322C36.461,56.696 36.081,57.369 36.081,58.094C36.078,63.996 36.078,76.474 36.078,82.211C36.077,82.922 36.442,83.584 37.043,83.964C37.645,84.343 38.399,84.388 39.041,84.082C42.528,82.418 47.923,78.664 48.526,71.205C49.198,62.89 43.139,58.385 39.116,56.265Z" style="fill:rgb(142,68,173);"/>
                </g>
                <g transform="matrix(-0.852721,-2.28087e-17,8.0038e-17,-1,49.5132,141.236)">
                    <path d="M22.771,67.113C22.249,66.271 21.122,65.841 20.038,66.071C18.954,66.3 18.193,67.13 18.193,68.082C18.193,73.402 18.193,79.885 18.193,83.138C18.193,84.283 19.281,85.211 20.623,85.211C23.109,85.211 27.014,85.211 29.965,85.211C30.817,85.211 31.607,84.83 32.046,84.207C32.486,83.585 32.511,82.811 32.113,82.169C29.821,78.476 25.877,72.119 22.771,67.113Z" style="fill:rgb(255,99,124);"/>
                </g>
            </g>
        </g>
    </g>
</svg>
