<?xml version="1.0" encoding="UTF-8" standalone="no"?><!DOCTYPE svg PUBLIC "-//W3C//DTD SVG 1.1//EN" "http://www.w3.org/Graphics/SVG/1.1/DTD/svg11.dtd"><svg width="100%" height="100%" viewBox="0 0 267 242" version="1.1" xmlns="http://www.w3.org/2000/svg" xmlns:xlink="http://www.w3.org/1999/xlink" xml:space="preserve" xmlns:serif="http://www.serif.com/" style="fill-rule:evenodd;clip-rule:evenodd;stroke-linecap:round;stroke-linejoin:round;stroke-miterlimit:1.5;"><path d="M100.923,233.94c28.959,6.835 79.781,9.881 103.525,4.525c17.39,-3.922 34.643,-20.756 38.939,-36.658c3.144,-11.637 8.121,-33.179 11.841,-52.856c4.909,-25.962 0.732,-52.921 -0.063,-68.334c-0.884,-17.151 -19.615,-35.75 -34.557,-47.609c-14.942,-11.859 -35.736,-18.638 -55.096,-23.544c-21.198,-5.371 -52.231,-11.701 -72.091,-8.683c-17.849,2.712 -34.536,15.28 -47.071,26.79c-12.467,11.449 -22.534,26.298 -28.137,42.27c-6.888,19.639 -15.274,54.29 -13.194,75.559c1.883,19.256 11.457,38.933 25.673,52.057c15.984,14.757 44.556,30.424 70.231,36.483Z" style="fill:#b57dcd;fill-opacity:0.25;"/><g id="Responsive"><g id="Monitor"><path d="M143.021,200.952l-38.542,0l9.636,-25l19.27,0l9.636,25Z" style="fill:#ccc;"/><clipPath id="_clip1"><path d="M143.021,200.952l-38.542,0l9.636,-25l19.27,0l9.636,25Z"/></clipPath><g clip-path="url(#_clip1)"><rect x="95.924" y="175.952" width="52.693" height="4.892" style="fill-opacity:0.3;"/></g><path d="M143.021,206.369c1.785,0 3.456,-0.88 4.466,-2.352c1.01,-1.472 1.23,-3.347 0.588,-5.013l-9.635,-25c-0.806,-2.09 -2.815,-3.468 -5.055,-3.468l-19.27,0c-2.24,0 -4.249,1.378 -5.055,3.468l-9.635,25c-0.642,1.666 -0.422,3.541 0.588,5.013c1.01,1.472 2.681,2.352 4.466,2.352l38.542,0Zm0,-5.417l-38.542,0l9.636,-25l19.27,0l9.636,25Z" style="fill:#262626;"/><path d="M242.083,47.394c0,-2.211 -0.878,-4.33 -2.44,-5.893c-1.563,-1.563 -3.683,-2.441 -5.893,-2.441c-36.655,0 -183.345,0 -220,0c-2.21,0 -4.33,0.878 -5.893,2.441c-1.562,1.563 -2.44,3.682 -2.44,5.893c0,29.181 0,125 0,125l236.666,0l0,-125Z" style="fill:#ccc;"/><path d="M247.5,47.394c0,-3.647 -1.449,-7.145 -4.027,-9.723c-2.579,-2.579 -6.076,-4.027 -9.723,-4.027c-36.655,0 -183.345,0 -220,0c-3.647,0 -7.144,1.448 -9.723,4.027c-2.578,2.578 -4.027,6.076 -4.027,9.723c0,29.181 0,125 0,125c0,2.991 2.425,5.416 5.417,5.416l236.666,0c2.992,0 5.417,-2.425 5.417,-5.416l0,-125Zm-5.417,0c0,-2.211 -0.878,-4.33 -2.44,-5.893c-1.563,-1.563 -3.683,-2.441 -5.893,-2.441c-36.655,0 -183.345,0 -220,0c-2.21,0 -4.33,0.878 -5.893,2.441c-1.562,1.563 -2.44,3.682 -2.44,5.893c0,29.181 0,125 0,125l236.666,0l0,-125Z" style="fill:#262626;"/><rect x="72.917" y="200.952" width="101.667" height="5.946" style="fill:#808080;"/><path d="M180,200.952c0,-2.991 -2.425,-5.416 -5.417,-5.416l-101.666,0c-2.992,0 -5.417,2.425 -5.417,5.416l0,5.946c0,2.992 2.425,5.417 5.417,5.417l101.666,0c2.992,0 5.417,-2.425 5.417,-5.417l0,-5.946Zm-5.417,0l-101.666,0l0,5.946l101.666,0l0,-5.946Z" style="fill:#262626;"/><rect x="5.417" y="39.06" width="236.667" height="108.333" style="fill:#e0bdef;"/><path d="M247.5,39.06c0,-2.991 -2.425,-5.416 -5.417,-5.416l-236.666,0c-2.992,0 -5.417,2.425 -5.417,5.416l0,108.334c0,2.991 2.425,5.416 5.417,5.416l236.666,0c2.992,0 5.417,-2.425 5.417,-5.416l0,-108.334Zm-5.417,0l-236.666,0l0,108.334l236.666,0l0,-108.334Z" style="fill:#262626;"/><circle cx="123.75" cy="163.452" r="4.167" style="fill:#333;"/></g><g id="Window"><path d="M213.558,15.536c0,-2.992 -2.425,-5.417 -5.416,-5.417l-166.667,0c-2.992,0 -5.417,2.425 -5.417,5.417l0,93.521c0,2.991 2.425,5.417 5.417,5.417l166.667,0c2.991,0 5.416,-2.426 5.416,-5.417l0,-93.521Zm-5.416,0l-166.667,0l0,93.521l166.667,0l0,-93.521Z" style="fill:#262626;"/><rect x="41.475" y="15.536" width="166.667" height="93.521" style="fill:#f2f2f2;"/><g><path d="M103.975,78.355l41.667,0" style="fill:none;stroke:#262626;stroke-width:4.17px;"/><path d="M85.225,90.855l76.389,0" style="fill:none;stroke:#262626;stroke-width:4.17px;"/><path d="M85.225,99.188l76.389,0" style="fill:none;stroke:#262626;stroke-width:4.17px;"/></g><g><path d="M95.642,36.081c0,-2.302 -1.866,-4.167 -4.167,-4.167l-41.667,0c-2.301,0 -4.166,1.865 -4.166,4.167l0,25.607c0,2.302 1.865,4.167 4.166,4.167l41.667,0c2.301,0 4.167,-1.865 4.167,-4.167l0,-25.607Zm-4.167,0l-41.667,0l0,25.607l41.667,0l0,-25.607Z" style="fill:#262626;"/><rect x="49.808" y="36.081" width="41.667" height="25.608" style="fill:#b57dcd;"/><path d="M149.808,36.081c0,-2.302 -1.865,-4.167 -4.166,-4.167l-41.667,0c-2.301,0 -4.167,1.865 -4.167,4.167l0,25.607c0,2.302 1.866,4.167 4.167,4.167l41.667,0c2.301,0 4.166,-1.865 4.166,-4.167l0,-25.607Zm-4.166,0l-41.667,0l0,25.607l41.667,0l0,-25.607Z" style="fill:#262626;"/><rect x="103.975" y="36.081" width="41.667" height="25.608" style="fill:#b57dcd;"/><path d="M203.975,36.081c0,-2.302 -1.866,-4.167 -4.167,-4.167l-41.666,0c-2.302,0 -4.167,1.865 -4.167,4.167l0,25.607c0,2.302 1.865,4.167 4.167,4.167l41.666,0c2.301,0 4.167,-1.865 4.167,-4.167l0,-25.607Zm-4.167,0l-41.666,0l0,25.607l41.666,0l0,-25.607Z" style="fill:#262626;"/><rect x="158.142" y="36.081" width="41.667" height="25.608" style="fill:#b57dcd;"/></g><path d="M213.558,15.536c0,-2.992 -2.425,-5.417 -5.416,-5.417l-166.667,0c-2.992,0 -5.417,2.425 -5.417,5.417l0,6.235c0,2.991 2.425,5.417 5.417,5.417l166.667,0c2.991,0 5.416,-2.426 5.416,-5.417l0,-6.235Zm-5.416,0l-166.667,0l0,6.235l166.667,0l0,-6.235Z" style="fill:#262626;"/><rect x="41.475" y="15.536" width="166.667" height="6.235" style="fill:#bfbfbf;"/><g><circle cx="47.626" cy="18.65" r="1.984"/><circle cx="53.975" cy="18.65" r="1.984"/><circle cx="60.324" cy="18.65" r="1.984"/></g></g><g id="Tablet"><path d="M247.5,102.192c0,-4.488 -3.644,-8.132 -8.132,-8.132c0,0 -62.453,0 -62.453,0c-4.488,0 -8.132,3.644 -8.132,8.132l0,84.455c0,4.488 3.644,8.132 8.132,8.132l62.453,0c4.488,0 8.132,-3.644 8.132,-8.132c0,0 0,-84.455 0,-84.455Zm-5.417,0c0,-1.498 -1.216,-2.715 -2.715,-2.715l-62.453,0c-1.499,0 -2.715,1.217 -2.715,2.715l0,84.455c0,1.498 1.216,2.715 2.715,2.715l62.453,0c1.499,0 2.715,-1.217 2.715,-2.715l0,-84.455Z" style="fill:#262626;"/><path d="M242.083,102.192c0,-1.498 -1.216,-2.715 -2.715,-2.715l-62.453,0c-1.499,0 -2.715,1.217 -2.715,2.715l0,84.455c0,1.498 1.216,2.715 2.715,2.715l62.453,0c1.499,0 2.715,-1.217 2.715,-2.715l0,-84.455Z" style="fill:#666;"/><circle cx="208.142" cy="184.572" r="2.563" style="fill:#333;"/><path d="M247.5,99.477c0,-2.992 -2.425,-5.417 -5.417,-5.417l-67.883,0c-2.992,0 -5.417,2.425 -5.417,5.417l0,75.223c0,2.991 2.425,5.416 5.417,5.416l67.883,0c2.992,0 5.417,-2.425 5.417,-5.416l0,-75.223Zm-5.417,0l-67.883,0l0,75.223l67.883,0l0,-75.223Z" style="fill:#262626;"/><rect x="174.2" y="99.477" width="67.884" height="75.223" style="fill:#ff9bab;"/></g><g id="Phone"><path d="M266.442,67.726c0,-3.826 -3.106,-6.932 -6.932,-6.932l-34.853,0c-3.826,0 -6.932,3.106 -6.932,6.932l0,64.355c0,3.826 3.106,6.932 6.932,6.932c0,0 34.853,0 34.853,0c3.826,0 6.932,-3.106 6.932,-6.932l0,-64.355Zm-5.417,0c0,-0.836 -0.679,-1.515 -1.515,-1.515l-34.853,0c-0.836,0 -1.515,0.679 -1.515,1.515l0,64.355c0,0.836 0.679,1.515 1.515,1.515l34.853,0c0.836,0 1.515,-0.679 1.515,-1.515l0,-64.355Z" style="fill:#262626;"/><path d="M261.025,67.726c0,-0.836 -0.679,-1.515 -1.515,-1.515l-34.853,0c-0.836,0 -1.515,0.679 -1.515,1.515l0,64.355c0,0.836 0.679,1.515 1.515,1.515l34.853,0c0.836,0 1.515,-0.679 1.515,-1.515l0,-64.355Z" style="fill:#b3b3b3;"/><ellipse cx="242.083" cy="130.338" rx="2.233" ry="2.134" style="fill:#333;"/><path d="M265.192,76.814c0,-2.301 -1.866,-4.166 -4.167,-4.166l-37.883,0c-2.302,0 -4.167,1.865 -4.167,4.166l0,46.179c0,2.301 1.865,4.166 4.167,4.166l37.883,0c2.301,0 4.167,-1.865 4.167,-4.166l0,-46.179Zm-4.167,0l-37.883,0l0,46.179l37.883,0l0,-46.179Z" style="fill:#262626;"/><rect x="223.142" y="76.814" width="37.884" height="46.178" style="fill:#78b3f6;"/><path d="M235.854,69.533l12.459,0" style="fill:none;stroke:#262626;stroke-width:2.08px;"/></g></g></svg>