<svg width="146" height="146" viewBox="0 0 146 146" fill="none" xmlns="http://www.w3.org/2000/svg">
<g clip-path="url(#clip0)">
<rect x="3" y="95" width="128" height="13" fill="#BBBFC2"/>
<rect x="55" y="111" width="23" height="16" fill="#BBBFC2"/>
<rect x="87" y="108" width="43" height="10" fill="#BBBFC2"/>
<rect x="4" y="19" width="127" height="77" fill="#8AC9FE"/>
<rect x="88" y="58" width="41" height="50" fill="#E0BDEF"/>
<rect x="116" y="89" width="27" height="8" fill="#626D76"/>
<rect x="116" y="48" width="27" height="8" fill="#626D76"/>
<rect x="116" y="56" width="27" height="31" fill="#FF9BAB"/>
<path d="M141.501 45.6144H118.678C116.24 45.6144 114.114 47.4551 114.114 49.8942V54.7435H89.0088C86.5708 54.7435 84.4442 56.5842 84.4442 59.0233V107.236H4.56467C4.4857 107.236 4.27994 107.03 4.27994 106.951V97.8219H42.0798H79.8797V93.5421H4.27994V20.2246C4.27994 20.1457 4.4857 20.2246 4.56467 20.2246H127.807C127.807 20.1457 127.886 20.2246 127.807 20.2246V40.7651H132.087V20.2246C132.087 17.7855 130.247 15.9448 127.807 15.9448H4.56467C2.12668 15.9448 0.00012207 17.7855 0.00012207 20.2246V106.951C0.00012207 109.389 2.12668 111.516 4.56467 111.516H52.4924V125.494H43.3633V129.774H89.0088V125.494H79.595V111.516H84.4442V116.08C84.4442 118.518 86.5708 120.645 89.0088 120.645H127.807C130.247 120.645 132.087 118.518 132.087 116.08V100.104H141.501C143.94 100.104 145.781 97.9777 145.781 95.5397V49.8942C145.781 47.4551 143.94 45.6144 141.501 45.6144ZM75.3151 125.494H56.7722V111.516H75.3151V125.494ZM118.678 49.8942H141.501C141.501 49.8152 141.58 49.8942 141.501 49.8942V54.7435H118.394V49.8942C118.394 49.8152 118.6 49.8942 118.678 49.8942ZM118.394 59.0233H141.501V86.6953H118.394V59.0233ZM127.807 116.365H89.0088C88.9309 116.365 88.7241 116.159 88.7241 116.08V111.516H127.807V116.08C127.807 116.159 127.886 116.365 127.807 116.365ZM127.807 107.236H88.7241V59.0233C88.7241 58.9443 88.9309 59.0233 89.0088 59.0233H114.114V95.5397C114.114 97.9777 116.24 100.104 118.678 100.104H127.807V107.236ZM141.501 95.8244H118.678C118.6 95.8244 118.394 95.6186 118.394 95.5397V90.9751H141.501V95.5397C141.501 95.6186 141.58 95.8244 141.501 95.8244Z" fill="#444E59"/>
<path d="M54.7747 84.4131H59.3392V88.6929H54.7747V84.4131Z" fill="#444E59"/>
<path d="M63.9037 84.4131H68.4682V88.6929H63.9037V84.4131Z" fill="#444E59"/>
<path d="M73.0327 84.4131H77.5973V88.6929H73.0327V84.4131Z" fill="#444E59"/>
<path d="M13.409 36.2006V29.3538H20.5405V25.074H9.12915V36.2006H13.409Z" fill="#6C63FF"/>
<path d="M91.291 70.4347H95.5708V65.8702H100.42V61.5903H91.291V70.4347Z" fill="#B57DCD"/>
<path d="M120.961 61.5903V70.4347H125.24V65.8702H130.09V61.5903H120.961Z" fill="#E15369"/>
</g>
<defs>
<clipPath id="clip0">
<rect width="145.781" height="145.781" fill="white"/>
</clipPath>
</defs>
</svg>
