<?xml version="1.0" encoding="UTF-8" standalone="no"?><!DOCTYPE svg PUBLIC "-//W3C//DTD SVG 1.1//EN" "http://www.w3.org/Graphics/SVG/1.1/DTD/svg11.dtd"><svg width="100%" height="100%" viewBox="0 0 248 190" version="1.1" xmlns="http://www.w3.org/2000/svg" xmlns:xlink="http://www.w3.org/1999/xlink" xml:space="preserve" xmlns:serif="http://www.serif.com/" style="fill-rule:evenodd;clip-rule:evenodd;stroke-linecap:round;stroke-linejoin:round;stroke-miterlimit:1.5;"><g id="Responsive"><g id="Monitor"><path d="M133.446,183.616l-19.735,-0.457l0.404,-22.39l19.27,0l0.061,22.847Z" style="fill:#fff;"/><clipPath id="_clip1"><path d="M133.446,183.616l-19.735,-0.457l0.404,-22.39l19.27,0l0.061,22.847Z"/></clipPath><g clip-path="url(#_clip1)"><rect x="95.924" y="160.769" width="52.693" height="4.892" style="fill-opacity:0.3;"/></g><path d="M133.32,189.031c1.461,0.034 2.873,-0.523 3.916,-1.545c1.044,-1.023 1.63,-2.423 1.626,-3.884l-0.06,-22.847c-0.008,-2.986 -2.431,-5.402 -5.417,-5.402l-19.27,-0c-2.954,-0 -5.363,2.366 -5.416,5.319l-0.404,22.389c-0.054,2.98 2.31,5.444 5.29,5.513l19.735,0.457Zm0.126,-5.415l-19.735,-0.457l0.404,-22.39l19.27,0l0.061,22.847Z" style="fill:#262626;"/><rect x="5.417" y="23.877" width="236.667" height="133.333" style="fill:#fff;"/><path d="M247.5,23.877c0,-2.991 -2.425,-5.416 -5.417,-5.416l-236.666,-0c-2.992,-0 -5.417,2.425 -5.417,5.416l-0,133.334c-0,2.991 2.425,5.416 5.417,5.416l236.666,0c2.992,0 5.417,-2.425 5.417,-5.416l0,-133.334Zm-5.417,0l-236.666,0l-0,133.334l236.666,-0l0,-133.334Z" style="fill:#262626;"/><path d="M79.828,185.086l87.466,-0" style="fill:none;stroke:#262626;stroke-width:8.33px;"/><rect x="5.417" y="23.877" width="236.667" height="108.333" style="fill:#fff;"/><path d="M247.5,23.877c0,-2.991 -2.425,-5.416 -5.417,-5.416l-236.666,-0c-2.992,-0 -5.417,2.425 -5.417,5.416l-0,108.334c-0,2.991 2.425,5.416 5.417,5.416l236.666,0c2.992,0 5.417,-2.425 5.417,-5.416l0,-108.334Zm-5.417,0l-236.666,0l-0,108.334l236.666,-0l0,-108.334Z" style="fill:#262626;"/><circle cx="123.75" cy="148.269" r="4.167" style="fill:#262626;"/></g><g id="Tablet"><path d="M149.471,8.132c-0,-4.488 -3.644,-8.132 -8.132,-8.132l-62.453,0c-4.488,0 -8.132,3.644 -8.132,8.132l-0,84.454c-0,4.489 3.644,8.132 8.132,8.132l62.453,0c4.488,0 8.132,-3.643 8.132,-8.132c-0,0 -0,-84.454 -0,-84.454Zm-5.417,0c0,-1.499 -1.216,-2.715 -2.715,-2.715l-62.453,-0c-1.499,-0 -2.715,1.216 -2.715,2.715l-0,84.454c-0,1.499 1.216,2.716 2.715,2.716l62.453,-0c1.499,-0 2.715,-1.217 2.715,-2.716l0,-84.454Z" style="fill:#262626;"/><path d="M144.054,8.132c0,-1.499 -1.216,-2.715 -2.715,-2.715l-62.453,-0c-1.499,-0 -2.715,1.216 -2.715,2.715l-0,84.454c-0,1.499 1.216,2.716 2.715,2.716l62.453,-0c1.499,-0 2.715,-1.217 2.715,-2.716l0,-84.454Z" style="fill:#fff;"/><circle cx="110.112" cy="90.512" r="2.563" style="fill:#262626;"/><path d="M139.888,6.771c-0,-2.005 -1.629,-3.634 -3.635,-3.634l-65.415,0c-2.006,0 -3.634,1.629 -3.634,3.634l-0,66.271c-0,2.006 1.628,3.635 3.634,3.635l65.415,-0c2.006,-0 3.635,-1.629 3.635,-3.635l-0,-66.271Z" style="fill:#3a8fed;"/><path d="M149.471,5.417c-0,-2.992 -2.425,-5.417 -5.417,-5.417l-67.883,0c-2.992,0 -5.417,2.425 -5.417,5.417l-0,75.222c-0,2.992 2.425,5.417 5.417,5.417l67.883,0c2.992,0 5.417,-2.425 5.417,-5.417l-0,-75.222Zm-5.417,-0l-67.883,-0l-0,75.222l67.883,0l0,-75.222Z" style="fill:#262626;"/></g><g id="Phone"><path d="M176.746,48.666c0,-3.826 -3.106,-6.932 -6.932,-6.932l-34.853,0c-3.826,0 -6.932,3.106 -6.932,6.932c0,0 0,64.355 0,64.355c0,3.825 3.106,6.932 6.932,6.932c0,-0 34.853,-0 34.853,-0c3.826,-0 6.932,-3.107 6.932,-6.932c0,-0 0,-64.355 0,-64.355Zm-5.417,0c0,-0.836 -0.679,-1.515 -1.515,-1.515l-34.853,-0c-0.836,-0 -1.515,0.679 -1.515,1.515l-0,64.355c-0,0.836 0.679,1.515 1.515,1.515l34.853,-0c0.836,-0 1.515,-0.679 1.515,-1.515l0,-64.355Z" style="fill:#262626;"/><path d="M171.329,48.666c0,-0.836 -0.679,-1.515 -1.515,-1.515l-34.853,-0c-0.836,-0 -1.515,0.679 -1.515,1.515l-0,64.355c-0,0.836 0.679,1.515 1.515,1.515l34.853,-0c0.836,-0 1.515,-0.679 1.515,-1.515l0,-64.355Z" style="fill:#fff;"/><ellipse cx="152.388" cy="111.918" rx="2.233" ry="2.134" style="fill:#262626;"/><path d="M180.496,55.732c0,-1.184 -0.961,-2.145 -2.144,-2.145l-38.595,0c-1.184,0 -2.145,0.961 -2.145,2.145l0,41.89c0,1.183 0.961,2.144 2.145,2.144l38.595,-0c1.183,-0 2.144,-0.961 2.144,-2.144l0,-41.89Z" style="fill:#ff637c;"/><path d="M176.746,57.754c0,-2.991 -2.425,-5.417 -5.417,-5.417l-37.883,0c-2.992,0 -5.417,2.426 -5.417,5.417l0,46.179c0,2.991 2.425,5.416 5.417,5.416l37.883,0c2.992,0 5.417,-2.425 5.417,-5.416l0,-46.179Zm-5.417,0l-37.883,0l-0,46.179l37.883,-0l0,-46.179Z" style="fill:#262626;"/><path d="M146.158,49.933l12.459,-0" style="fill:none;stroke:#262626;stroke-width:2.08px;"/></g></g></svg>