<?xml version="1.0" encoding="UTF-8" standalone="no"?><!DOCTYPE svg PUBLIC "-//W3C//DTD SVG 1.1//EN" "http://www.w3.org/Graphics/SVG/1.1/DTD/svg11.dtd"><svg width="100%" height="100%" viewBox="0 0 258 242" version="1.1" xmlns="http://www.w3.org/2000/svg" xmlns:xlink="http://www.w3.org/1999/xlink" xml:space="preserve" xmlns:serif="http://www.serif.com/" style="fill-rule:evenodd;clip-rule:evenodd;stroke-linecap:round;stroke-linejoin:round;stroke-miterlimit:1.5;"><path d="M100.81,233.94c28.959,6.835 79.781,9.881 103.525,4.525c17.39,-3.922 34.643,-20.756 38.939,-36.658c3.143,-11.637 8.121,-33.179 11.841,-52.856c4.908,-25.962 0.732,-52.921 -0.063,-68.334c-0.884,-17.151 -19.615,-35.75 -34.557,-47.609c-14.942,-11.859 -35.736,-18.638 -55.096,-23.544c-21.198,-5.371 -52.231,-11.701 -72.091,-8.683c-17.849,2.712 -34.536,15.28 -47.071,26.79c-12.467,11.449 -22.535,26.298 -28.137,42.27c-6.889,19.639 -15.274,54.29 -13.194,75.559c1.883,19.256 11.457,38.933 25.673,52.057c15.984,14.757 44.556,30.424 70.231,36.483Z" style="fill:#b57dcd;fill-opacity:0.15;"/><g id="Responsive"><g id="Monitor"><path d="M142.188,200.952l-38.542,0l9.635,-25l19.271,0l9.636,25Z" style="fill:#ccc;"/><clipPath id="_clip1"><path d="M142.188,200.952l-38.542,0l9.635,-25l19.271,0l9.636,25Z"/></clipPath><g clip-path="url(#_clip1)"><rect x="95.09" y="175.952" width="52.693" height="4.892" style="fill-opacity:0.3;"/></g><path d="M142.188,205.536c1.51,0 2.924,-0.745 3.778,-1.99c0.855,-1.246 1.041,-2.832 0.498,-4.242l-9.635,-25c-0.682,-1.769 -2.382,-2.935 -4.277,-2.935l-19.271,0c-1.895,0 -3.595,1.166 -4.276,2.935l-9.636,25c-0.543,1.41 -0.357,2.996 0.498,4.242c0.855,1.245 2.268,1.99 3.779,1.99l38.542,0Zm0,-4.584l-38.542,0l9.635,-25l19.271,0l9.636,25Z" style="fill:#262626;"/><rect x="4.583" y="39.06" width="236.667" height="133.333" style="fill:#ccc;"/><path d="M245.833,39.06c0,-2.531 -2.052,-4.583 -4.583,-4.583l-236.667,0c-2.531,0 -4.583,2.052 -4.583,4.583l0,133.334c0,2.531 2.052,4.583 4.583,4.583l236.667,0c2.531,0 4.583,-2.052 4.583,-4.583l0,-133.334Zm-4.583,0l-236.667,0l0,133.334l236.667,0l0,-133.334Z" style="fill:#262626;"/><rect x="72.083" y="200.952" width="101.667" height="5.946" style="fill:#808080;"/><path d="M178.333,200.952c0,-2.531 -2.052,-4.583 -4.583,-4.583l-101.667,0c-2.531,0 -4.583,2.052 -4.583,4.583l0,5.946c0,2.532 2.052,4.584 4.583,4.584l101.667,0c2.531,0 4.583,-2.052 4.583,-4.584l0,-5.946Zm-4.583,0l-101.667,0l0,5.946l101.667,0l0,-5.946Z" style="fill:#262626;"/><rect x="4.583" y="39.06" width="236.667" height="108.333" style="fill:#e0bdef;"/><path d="M245.833,39.06c0,-2.531 -2.052,-4.583 -4.583,-4.583l-236.667,0c-2.531,0 -4.583,2.052 -4.583,4.583l0,108.334c0,2.531 2.052,4.583 4.583,4.583l236.667,0c2.531,0 4.583,-2.052 4.583,-4.583l0,-108.334Zm-4.583,0l-236.667,0l0,108.334l236.667,0l0,-108.334Z" style="fill:#262626;"/><circle cx="122.917" cy="163.452" r="4.167" style="fill:#333;"/></g><g id="Tablet"><path d="M147.804,23.315c0,-4.028 -3.27,-7.299 -7.298,-7.299l-62.453,0c-4.029,0 -7.299,3.271 -7.299,7.299l0,84.454c0,4.029 3.27,7.299 7.299,7.299c0,0 62.453,0 62.453,0c4.028,0 7.298,-3.27 7.298,-7.299c0,0 0,-84.454 0,-84.454Zm-4.583,0c0,-1.499 -1.217,-2.715 -2.715,-2.715l-62.453,0c-1.499,0 -2.716,1.216 -2.716,2.715l0,84.454c0,1.499 1.217,2.716 2.716,2.716l62.453,0c1.498,0 2.715,-1.217 2.715,-2.716l0,-84.454Z" style="fill:#262626;"/><path d="M143.221,23.315c0,-1.499 -1.217,-2.715 -2.715,-2.715l-62.453,0c-1.499,0 -2.716,1.216 -2.716,2.715l0,84.454c0,1.499 1.217,2.716 2.716,2.716l62.453,0c1.498,0 2.715,-1.217 2.715,-2.716l0,-84.454Z" style="fill:#666;"/><circle cx="109.279" cy="105.695" r="2.563" style="fill:#333;"/><path d="M147.804,20.6c0,-2.532 -2.052,-4.584 -4.583,-4.584l-67.884,0c-2.531,0 -4.583,2.052 -4.583,4.584l0,75.222c0,2.532 2.052,4.584 4.583,4.584l67.884,0c2.531,0 4.583,-2.052 4.583,-4.584l0,-75.222Zm-4.583,0l-67.884,0l0,75.222l67.884,0l0,-75.222Z" style="fill:#262626;"/><rect x="75.337" y="20.6" width="67.884" height="75.223" style="fill:#ff9bab;"/></g><g id="Phone"><path d="M175.079,63.849c0,-3.366 -2.732,-6.099 -6.098,-6.099c0,0 -34.853,0 -34.853,0c-3.366,0 -6.099,2.733 -6.099,6.099c0,0 0,64.354 0,64.354c0,3.366 2.733,6.099 6.099,6.099l34.853,0c3.366,0 6.098,-2.733 6.098,-6.099c0,0 0,-64.354 0,-64.354Zm-4.583,0c0,-0.836 -0.679,-1.515 -1.515,-1.515l-34.853,0c-0.837,0 -1.516,0.679 -1.516,1.515l0,64.354c0,0.837 0.679,1.516 1.516,1.516l34.853,0c0.836,0 1.515,-0.679 1.515,-1.516l0,-64.354Z" style="fill:#262626;"/><path d="M170.496,63.849c0,-0.836 -0.679,-1.515 -1.515,-1.515l-34.853,0c-0.837,0 -1.516,0.679 -1.516,1.515l0,64.354c0,0.837 0.679,1.516 1.516,1.516l34.853,0c0.836,0 1.515,-0.679 1.515,-1.516l0,-64.354Z" style="fill:#b3b3b3;"/><ellipse cx="151.554" cy="126.461" rx="2.233" ry="2.134" style="fill:#333;"/><path d="M175.079,72.937c0,-2.531 -2.052,-4.583 -4.583,-4.583l-37.884,0c-2.531,0 -4.583,2.052 -4.583,4.583l0,46.178c0,2.532 2.052,4.584 4.583,4.584l37.884,0c2.531,0 4.583,-2.052 4.583,-4.584l0,-46.178Zm-4.583,0l-37.884,0l0,46.178l37.884,0l0,-46.178Z" style="fill:#262626;"/><rect x="132.612" y="72.937" width="37.884" height="46.178" style="fill:#78b3f6;"/><path d="M145.325,65.656l12.459,0" style="fill:none;stroke:#262626;stroke-width:2.08px;"/></g></g></svg>