<?xml version="1.0" encoding="UTF-8" standalone="no"?><!DOCTYPE svg PUBLIC "-//W3C//DTD SVG 1.1//EN" "http://www.w3.org/Graphics/SVG/1.1/DTD/svg11.dtd"><svg width="100%" height="100%" viewBox="0 0 253 242" version="1.1" xmlns="http://www.w3.org/2000/svg" xmlns:xlink="http://www.w3.org/1999/xlink" xml:space="preserve" xmlns:serif="http://www.serif.com/" style="fill-rule:evenodd;clip-rule:evenodd;stroke-linecap:round;stroke-linejoin:round;stroke-miterlimit:1.5;"><path d="M96.227,233.94c28.959,6.835 79.781,9.881 103.525,4.525c17.389,-3.922 34.643,-20.756 38.939,-36.658c3.143,-11.637 8.121,-33.179 11.841,-52.856c4.908,-25.962 0.731,-52.921 -0.063,-68.334c-0.885,-17.151 -19.615,-35.75 -34.557,-47.609c-14.943,-11.859 -35.737,-18.638 -55.097,-23.544c-21.198,-5.371 -52.23,-11.701 -72.091,-8.683c-17.848,2.712 -34.535,15.28 -47.07,26.79c-12.467,11.449 -22.535,26.298 -28.137,42.27c-6.889,19.639 -15.274,54.29 -13.194,75.559c1.883,19.256 11.457,38.933 25.673,52.057c15.984,14.757 44.556,30.424 70.231,36.483Z" style="fill:#b57dcd;fill-opacity:0.25;"/><g id="Responsive"><g id="Monitor"><path d="M145.712,198.573l-38.542,0l9.636,-25l19.271,0l9.635,25Z" style="fill:#ccc;"/><clipPath id="_clip1"><path d="M145.712,198.573l-38.542,0l9.636,-25l19.271,0l9.635,25Z"/></clipPath><g clip-path="url(#_clip1)"><rect x="98.615" y="173.573" width="52.693" height="4.892" style="fill-opacity:0.3;"/></g><path d="M145.712,203.989c1.785,0 3.456,-0.879 4.466,-2.351c1.01,-1.472 1.23,-3.348 0.588,-5.013l-9.635,-25c-0.806,-2.09 -2.815,-3.469 -5.054,-3.469l-19.271,0c-2.24,0 -4.249,1.379 -5.055,3.469l-9.635,25c-0.642,1.665 -0.422,3.541 0.588,5.013c1.01,1.472 2.681,2.351 4.466,2.351l38.542,0Zm0,-5.416l-38.542,0l9.636,-25l19.271,0l9.635,25Z" style="fill:#1a1a1a;"/><path d="M244.774,45.014c0,-2.21 -0.878,-4.33 -2.44,-5.893c-1.563,-1.563 -3.683,-2.441 -5.893,-2.44c-36.654,0 -183.345,0 -220,0c-2.21,-0.001 -4.33,0.877 -5.892,2.44c-1.563,1.563 -2.441,3.683 -2.441,5.893c0,29.181 0,125 0,125l236.666,0l0,-125Z" style="fill:#ccc;"/><path d="M250.191,45.014c0,-3.647 -1.449,-7.144 -4.027,-9.723c-2.579,-2.579 -6.076,-4.027 -9.723,-4.027c-36.654,0 -183.345,0 -220,0c-3.647,0 -7.144,1.448 -9.723,4.027c-2.578,2.579 -4.027,6.076 -4.027,9.723c0,29.181 0,125 0,125c0,2.991 2.425,5.417 5.417,5.417l236.666,0c2.992,0 5.417,-2.426 5.417,-5.417l0,-125Zm-5.417,0c0,-2.21 -0.878,-4.33 -2.44,-5.893c-1.563,-1.563 -3.683,-2.441 -5.893,-2.44c-36.654,0 -183.345,0 -220,0c-2.21,-0.001 -4.33,0.877 -5.892,2.44c-1.563,1.563 -2.441,3.683 -2.441,5.893c0,29.181 0,125 0,125l236.666,0l0,-125Z" style="fill:#1a1a1a;"/><rect x="75.608" y="198.573" width="101.667" height="5.946" style="fill:#808080;"/><path d="M182.691,198.573c0,-2.992 -2.425,-5.417 -5.417,-5.417l-101.666,0c-2.992,0 -5.417,2.425 -5.417,5.417l0,5.946c0,2.991 2.425,5.416 5.417,5.416l101.666,0c2.992,0 5.417,-2.425 5.417,-5.416l0,-5.946Zm-5.417,0l-101.666,0l0,5.946l101.666,0l0,-5.946Z" style="fill:#1a1a1a;"/><rect x="8.108" y="36.681" width="236.667" height="108.333" style="fill:#e0bdef;"/><path d="M250.191,36.681c0,-2.992 -2.425,-5.417 -5.417,-5.417l-236.666,0c-2.992,0 -5.417,2.425 -5.417,5.417l0,108.333c0,2.991 2.425,5.417 5.417,5.417l236.666,0c2.992,0 5.417,-2.426 5.417,-5.417l0,-108.333Zm-5.417,0l-236.666,0l0,108.333l236.666,0l0,-108.333Z" style="fill:#1a1a1a;"/><circle cx="126.441" cy="161.073" r="4.167" style="fill:#333;"/></g><g id="Tablet"><path d="M152.429,23.315c0,-4.488 -3.643,-8.132 -8.132,-8.132l-62.452,0c-4.489,0 -8.132,3.644 -8.132,8.132l0,84.454c0,4.489 3.643,8.132 8.132,8.132l62.452,0c4.489,0 8.132,-3.643 8.132,-8.132c0,0 0,-84.454 0,-84.454Zm-5.416,0c0,-1.499 -1.217,-2.715 -2.716,-2.715l-62.452,0c-1.499,0 -2.716,1.216 -2.716,2.715l0,84.454c0,1.499 1.217,2.716 2.716,2.716l62.452,0c1.499,0 2.716,-1.217 2.716,-2.716l0,-84.454Z" style="fill:#1a1a1a;"/><path d="M147.013,23.315c0,-1.499 -1.217,-2.715 -2.716,-2.715l-62.452,0c-1.499,0 -2.716,1.216 -2.716,2.715l0,84.454c0,1.499 1.217,2.716 2.716,2.716l62.452,0c1.499,0 2.716,-1.217 2.716,-2.716l0,-84.454Z" style="fill:#666;"/><circle cx="113.071" cy="105.695" r="2.563" style="fill:#333;"/><path d="M152.429,20.6c0,-2.992 -2.425,-5.417 -5.416,-5.417l-67.884,0c-2.991,0 -5.416,2.425 -5.416,5.417l0,75.222c0,2.992 2.425,5.417 5.416,5.417l67.884,0c2.991,0 5.416,-2.425 5.416,-5.417l0,-75.222Zm-5.416,0l-67.884,0l0,75.222l67.884,0l0,-75.222Z" style="fill:#1a1a1a;"/><rect x="79.129" y="20.6" width="67.884" height="75.223" style="fill:#ff9bab;"/></g><g id="Phone"><path d="M179.17,55.75c0,-3.826 -3.106,-6.932 -6.932,-6.932l-34.853,0c-3.826,0 -6.932,3.106 -6.932,6.932c0,0 0,64.354 0,64.354c0,3.826 3.106,6.932 6.932,6.932c0,0 34.853,0 34.853,0c3.826,0 6.932,-3.106 6.932,-6.932c0,0 0,-64.354 0,-64.354Zm-5.417,0c0,-0.836 -0.679,-1.515 -1.515,-1.515l-34.853,0c-0.837,0 -1.516,0.679 -1.516,1.515l0,64.354c0,0.837 0.679,1.516 1.516,1.516l34.853,0c0.836,0 1.515,-0.679 1.515,-1.516l0,-64.354Z" style="fill:#1a1a1a;"/><path d="M173.753,55.75c0,-0.836 -0.679,-1.515 -1.515,-1.515l-34.853,0c-0.837,0 -1.516,0.679 -1.516,1.515l0,64.354c0,0.837 0.679,1.516 1.516,1.516l34.853,0c0.836,0 1.515,-0.679 1.515,-1.516l0,-64.354Z" style="fill:#b3b3b3;"/><ellipse cx="154.811" cy="118.362" rx="2.233" ry="2.134" style="fill:#333;"/><path d="M177.92,64.838c0,-2.301 -1.866,-4.167 -4.167,-4.167l-37.884,0c-2.301,0 -4.166,1.866 -4.166,4.167l0,46.178c0,2.302 1.865,4.167 4.166,4.167l37.884,0c2.301,0 4.167,-1.865 4.167,-4.167l0,-46.178Zm-4.167,0l-37.884,0l0,46.178l37.884,0l0,-46.178Z" style="fill:#1a1a1a;"/><rect x="135.869" y="64.838" width="37.884" height="46.178" style="fill:#78b3f6;"/><path d="M148.582,57.557l12.459,0" style="fill:none;stroke:#1a1a1a;stroke-width:2.08px;"/></g></g></svg>