<?xml version="1.0" encoding="UTF-8" standalone="no"?>
<!DOCTYPE svg PUBLIC "-//W3C//DTD SVG 1.1//EN" "http://www.w3.org/Graphics/SVG/1.1/DTD/svg11.dtd">
<svg width="100%" height="100%" viewBox="0 0 64 58" version="1.1" xmlns="http://www.w3.org/2000/svg" xmlns:xlink="http://www.w3.org/1999/xlink" xml:space="preserve" xmlns:serif="http://www.serif.com/" style="fill-rule:evenodd;clip-rule:evenodd;stroke-linecap:round;stroke-linejoin:round;stroke-miterlimit:1.5;">
    <g transform="matrix(1,0,0,1,-414.274,-285.049)">
        <g transform="matrix(-0.853224,-0.191146,0.191146,-0.853224,732.828,535.268)">
            <path d="M377,143C368.833,142.907 355.038,145.141 349,148C344.578,150.094 340.967,155.638 340.77,160.155C340.626,163.461 340.586,169.529 340.77,175.023C341.013,182.271 343.75,189.241 344.887,193.322C346.153,197.863 352.286,201.72 357,204C361.714,206.28 367.69,206.848 373.17,207C379.17,207.167 387.862,207 393,205C397.618,203.203 401.333,198.835 404,195C406.652,191.186 408.458,186.604 409,181.99C409.667,176.317 409.833,166.532 408,160.96C406.34,155.916 402.595,151.22 398,148.558C392.833,145.564 384.241,143.082 377,143Z" style="fill:rgb(181,125,205);fill-opacity:0.25;"/>
        </g>
        <g id="Responsive" transform="matrix(1,0,0,1,-0.225741,135.704)">
            <g id="Monitor" transform="matrix(1,0,0,1,67.2,7.71885)">
                <g transform="matrix(0.711538,0,0,0.591372,109.817,73.9452)">
                    <path d="M382,196L369,196L372.25,185.854L378.75,185.854L382,196Z" style="fill:rgb(204,204,204);"/>
                    <clipPath id="_clip1">
                        <path d="M382,196L369,196L372.25,185.854L378.75,185.854L382,196Z"/>
                    </clipPath>
                    <g clip-path="url(#_clip1)">
                        <g transform="matrix(1.40541,0,0,1.25362,-248.464,-224.428)">
                            <rect x="437.296" y="327.277" width="12.646" height="1.584" style="fill-opacity:0.3;"/>
                        </g>
                    </g>
                    <path d="M382,198.198C382.602,198.198 383.166,197.841 383.506,197.244C383.847,196.647 383.921,195.885 383.705,195.209L380.455,185.064C380.183,184.215 379.506,183.656 378.75,183.656L372.25,183.656C371.494,183.656 370.817,184.215 370.545,185.064L367.295,195.209C367.079,195.885 367.153,196.647 367.494,197.244C367.834,197.841 368.398,198.198 369,198.198L382,198.198ZM382,196L369,196L372.25,185.854L378.75,185.854L382,196Z" style="fill:rgb(26,26,26);"/>
                </g>
                <g transform="matrix(0.8875,0,0,1,42.4125,0)">
                    <path d="M409,153C409,152.47 408.763,151.961 408.34,151.586C407.917,151.211 407.344,151 406.746,151C396.834,151 357.166,151 347.254,151C346.656,151 346.083,151.211 345.66,151.586C345.237,151.961 345,152.47 345,153C345,158.746 345,175.254 345,181C345,181.53 345.237,182.039 345.66,182.414C346.083,182.789 346.656,183 347.254,183C357.166,183 396.834,183 406.746,183C407.344,183 407.917,182.789 408.34,182.414C408.763,182.039 409,181.53 409,181C409,175.254 409,158.746 409,153Z" style="fill:rgb(204,204,204);"/>
                    <path d="M410.465,153C410.465,152.125 410.073,151.285 409.376,150.667C408.678,150.048 407.733,149.7 406.746,149.7C396.834,149.7 357.166,149.7 347.254,149.7C346.267,149.7 345.322,150.048 344.624,150.667C343.927,151.285 343.535,152.125 343.535,153C343.535,158.746 343.535,175.254 343.535,181C343.535,181.875 343.927,182.715 344.624,183.333C345.322,183.952 346.267,184.3 347.254,184.3C357.166,184.3 396.834,184.3 406.746,184.3C407.733,184.3 408.678,183.952 409.376,183.333C410.073,182.715 410.465,181.875 410.465,181C410.465,175.254 410.465,158.746 410.465,153ZM409,153C409,152.47 408.763,151.961 408.34,151.586C407.917,151.211 407.344,151 406.746,151C396.834,151 357.166,151 347.254,151C346.656,151 346.083,151.211 345.66,151.586C345.237,151.961 345,152.47 345,153C345,158.746 345,175.254 345,181C345,181.53 345.237,182.039 345.66,182.414C346.083,182.789 346.656,183 347.254,183C357.166,183 396.834,183 406.746,183C407.344,183 407.917,182.789 408.34,182.414C408.763,182.039 409,181.53 409,181C409,175.254 409,158.746 409,153Z" style="fill:rgb(26,26,26);"/>
                </g>
                <g transform="matrix(1.39429,0,0,0.5,-151.783,93.2812)">
                    <rect x="370.5" y="193.146" width="17.5" height="2.854" style="fill:rgb(128,128,128);"/>
                    <path d="M388.932,193.146C388.932,191.71 388.515,190.546 388,190.546L370.5,190.546C369.985,190.546 369.568,191.71 369.568,193.146L369.568,196C369.568,197.436 369.985,198.6 370.5,198.6L388,198.6C388.515,198.6 388.932,197.436 388.932,196L388.932,193.146ZM388,193.146L370.5,193.146L370.5,196L388,196L388,193.146Z" style="fill:rgb(26,26,26);"/>
                </g>
                <g transform="matrix(0.947762,0,0,1.15,19.6936,-28.85)">
                    <rect x="350" y="159" width="54" height="20" style="fill:rgb(224,189,239);"/>
                    <path d="M405.372,159C405.372,158.376 404.758,157.87 404,157.87L350,157.87C349.242,157.87 348.628,158.376 348.628,159L348.628,179C348.628,179.624 349.242,180.13 350,180.13L404,180.13C404.758,180.13 405.372,179.624 405.372,179L405.372,159ZM404,159L350,159L350,179L404,179L404,159Z" style="fill:rgb(26,26,26);"/>
                </g>
                <g transform="matrix(1,0,0,1,-1,0.854102)">
                    <circle cx="378" cy="180" r="1" style="fill:rgb(51,51,51);"/>
                </g>
            </g>
            <g id="Window" transform="matrix(1,0,0,1,55.454,5.14962)">
                <g transform="matrix(1,0,0,1.19394,0,-29.0194)">
                    <path d="M410.3,148.201C410.3,147.599 409.718,147.112 409,147.112L369,147.112C368.282,147.112 367.7,147.599 367.7,148.201L367.7,167C367.7,167.601 368.282,168.089 369,168.089L409,168.089C409.718,168.089 410.3,167.601 410.3,167L410.3,148.201ZM409,148.201L369,148.201L369,167L409,167L409,148.201Z" style="fill:rgb(26,26,26);"/>
                    <rect x="369" y="148.201" width="40" height="18.799" style="fill:rgb(242,242,242);"/>
                </g>
                <g>
                    <g transform="matrix(0.294118,0,0,1,274.588,0)">
                        <path d="M372,163L406,163" style="fill:none;stroke:rgb(26,26,26);stroke-width:1.36px;"/>
                    </g>
                    <g transform="matrix(0.539216,0,0,1,178.912,3)">
                        <path d="M372,163L406,163" style="fill:none;stroke:rgb(26,26,26);stroke-width:1.24px;"/>
                    </g>
                    <g transform="matrix(0.539216,0,0,1,178.912,5)">
                        <path d="M372,163L406,163" style="fill:none;stroke:rgb(26,26,26);stroke-width:1.24px;"/>
                    </g>
                </g>
                <g>
                    <g transform="matrix(1,0,0,1,-1,-0.145898)">
                        <path d="M383,153C383,152.448 382.552,152 382,152L372,152C371.448,152 371,152.448 371,153L371,159.146C371,159.698 371.448,160.146 372,160.146L382,160.146C382.552,160.146 383,159.698 383,159.146L383,153ZM382,153L372,153L372,159.146L382,159.146L382,153Z" style="fill:rgb(26,26,26);"/>
                        <rect x="372" y="153" width="10" height="6.146" style="fill:rgb(181,125,205);"/>
                    </g>
                    <g transform="matrix(1,0,0,1,12,-0.145898)">
                        <path d="M383,153C383,152.448 382.552,152 382,152L372,152C371.448,152 371,152.448 371,153L371,159.146C371,159.698 371.448,160.146 372,160.146L382,160.146C382.552,160.146 383,159.698 383,159.146L383,153ZM382,153L372,153L372,159.146L382,159.146L382,153Z" style="fill:rgb(26,26,26);"/>
                        <rect x="372" y="153" width="10" height="6.146" style="fill:rgb(181,125,205);"/>
                    </g>
                    <g transform="matrix(1,0,0,1,25,-0.145898)">
                        <path d="M383,153C383,152.448 382.552,152 382,152L372,152C371.448,152 371,152.448 371,153L371,159.146C371,159.698 371.448,160.146 372,160.146L382,160.146C382.552,160.146 383,159.698 383,159.146L383,153ZM382,153L372,153L372,159.146L382,159.146L382,153Z" style="fill:rgb(26,26,26);"/>
                        <rect x="372" y="153" width="10" height="6.146" style="fill:rgb(181,125,205);"/>
                    </g>
                </g>
                <g transform="matrix(0.951538,0,0,0.531406,20.3486,68.3946)">
                    <path d="M409.812,149.657C409.812,148.306 409.2,147.211 408.445,147.211L366.408,147.211C365.654,147.211 365.042,148.306 365.042,149.657L365.042,152.473C365.042,153.824 365.654,154.92 366.408,154.92L408.445,154.92C409.2,154.92 409.812,153.824 409.812,152.473L409.812,149.657ZM408.445,149.657L366.408,149.657L366.408,152.473L408.445,152.473L408.445,149.657Z" style="fill:rgb(26,26,26);"/>
                    <rect x="366.408" y="149.657" width="42.037" height="2.816" style="fill:rgb(191,191,191);"/>
                </g>
                <g transform="matrix(0.190476,0,0,0.190476,299.714,122.861)">
                    <circle cx="371.5" cy="135.5" r="2.5"/>
                    <g transform="matrix(1,0,0,1,8,0)">
                        <circle cx="371.5" cy="135.5" r="2.5"/>
                    </g>
                    <g transform="matrix(1,0,0,1,16,0)">
                        <circle cx="371.5" cy="135.5" r="2.5"/>
                    </g>
                </g>
            </g>
            <g id="Tablet" transform="matrix(0.509127,0,0,0.509127,245.53,65.284)">
                <g transform="matrix(1,0,0,1.05929,0,-12.5686)">
                    <path d="M448.553,213.208C448.553,211.211 446.836,209.59 444.72,209.59C444.72,209.59 415.28,209.59 415.28,209.59C413.164,209.59 411.447,211.211 411.447,213.208L411.447,250.792C411.447,252.789 413.164,254.41 415.28,254.41L444.72,254.41C446.836,254.41 448.553,252.789 448.553,250.792C448.553,250.792 448.553,213.208 448.553,213.208ZM446,213.208C446,212.541 445.426,212 444.72,212L415.28,212C414.574,212 414,212.541 414,213.208L414,250.792C414,251.459 414.574,252 415.28,252L444.72,252C445.426,252 446,251.459 446,250.792L446,213.208Z" style="fill:rgb(26,26,26);"/>
                    <path d="M446,213.208C446,212.541 445.426,212 444.72,212L415.28,212C414.574,212 414,212.541 414,213.208L414,250.792C414,251.459 414.574,252 415.28,252L444.72,252C445.426,252 446,251.459 446,250.792L446,213.208Z" style="fill:rgb(102,102,102);"/>
                </g>
                <g transform="matrix(0.415473,0,0,0.415473,250.138,142.882)">
                    <circle cx="432.908" cy="262.908" r="2.908" style="fill:rgb(51,51,51);"/>
                </g>
                <g transform="matrix(1,0,0,0.886491,3.94351e-13,24.064)">
                    <path d="M448.553,212C448.553,210.409 447.41,209.12 446,209.12L414,209.12C412.59,209.12 411.447,210.409 411.447,212L411.447,252C411.447,253.591 412.59,254.88 414,254.88L446,254.88C447.41,254.88 448.553,253.591 448.553,252L448.553,212ZM446,212L414,212L414,252L446,252L446,212Z" style="fill:rgb(26,26,26);"/>
                    <rect x="414" y="212" width="32" height="40" style="fill:rgb(255,155,171);"/>
                </g>
            </g>
            <g id="Phone" transform="matrix(0.284127,0,0,0.381682,350.426,84.216)">
                <g transform="matrix(1,0,0,1.05929,4.54747e-13,-12.3003)">
                    <path d="M450.575,212.9C450.575,210.628 447.952,208.785 444.72,208.785L415.28,208.785C412.048,208.785 409.425,210.628 409.425,212.9C409.425,212.9 409.425,251.1 409.425,251.1C409.425,253.372 412.048,255.215 415.28,255.215C415.28,255.215 444.72,255.215 444.72,255.215C447.952,255.215 450.575,253.372 450.575,251.1L450.575,212.9ZM446,212.9C446,212.403 445.426,212 444.72,212L415.28,212C414.574,212 414,212.403 414,212.9L414,251.1C414,251.597 414.574,252 415.28,252L444.72,252C445.426,252 446,251.597 446,251.1L446,212.9Z" style="fill:rgb(26,26,26);"/>
                    <path d="M446,212.9C446,212.403 445.426,212 444.72,212L415.28,212C414.574,212 414,212.403 414,212.9L414,251.1C414,251.597 414.574,252 415.28,252L444.72,252C445.426,252 446,251.597 446,251.1L446,212.9Z" style="fill:rgb(179,179,179);"/>
                </g>
                <g transform="matrix(0.648428,0,0,0.461438,149.29,131.275)">
                    <circle cx="432.908" cy="262.908" r="2.908" style="fill:rgb(51,51,51);"/>
                </g>
                <g transform="matrix(1,0,0,0.725918,-3.46034e-12,65.041)">
                    <path d="M449.52,212C449.52,210.007 447.944,208.391 446,208.391L414,208.391C412.056,208.391 410.48,210.007 410.48,212L410.48,252C410.48,253.993 412.056,255.609 414,255.609L446,255.609C447.944,255.609 449.52,253.993 449.52,252L449.52,212ZM446,212L414,212L414,252L446,252L446,212Z" style="fill:rgb(26,26,26);"/>
                    <rect x="414" y="212" width="32" height="40" style="fill:rgb(120,179,246);"/>
                </g>
                <g transform="matrix(3.51956,0,0,2.61998,-1225.17,-255.209)">
                    <path d="M468.783,179.225L471.773,179.225" style="fill:none;stroke:rgb(26,26,26);stroke-width:0.5px;"/>
                </g>
            </g>
        </g>
    </g>
</svg>
