<svg width="58" height="56" viewBox="0 0 58 56" fill="none" xmlns="http://www.w3.org/2000/svg">
<path fill-rule="evenodd" clip-rule="evenodd" d="M14.8635 34.6937C14.2825 34.4714 13.7373 34.1748 13.2424 33.8129C12.9321 33.5852 12.5058 33.5571 12.1645 33.7421L10.8325 34.4624L8.89914 31.322L10.2322 30.5963C10.5715 30.4121 10.759 30.0538 10.7068 29.6892C10.6092 29.1059 10.6092 28.5127 10.7068 27.9294C10.759 27.5647 10.5715 27.2064 10.2322 27.0223L8.89914 26.2966L10.8325 23.1562L12.1645 23.8764C12.5058 24.0615 12.9321 24.0334 13.2424 23.8057C13.7373 23.4438 14.2825 23.1471 14.8635 22.9249C15.2279 22.7861 15.4657 22.455 15.4667 22.0858V20.6462H19.3333V22.0858C19.3333 22.455 19.5721 22.7879 19.9365 22.9267C20.5175 23.1489 21.0627 23.4456 21.5576 23.8075C21.8679 24.0352 22.2942 24.0633 22.6355 23.8783L23.9675 23.158L25.9009 26.2984L24.5678 27.0241C24.2285 27.2082 24.041 27.5665 24.0932 27.9312C24.1908 28.5145 24.1908 29.1077 24.0932 29.691C24.041 30.0556 24.2285 30.4139 24.5678 30.5981L25.9009 31.3238L23.9675 34.4642L22.6355 33.7439C22.2942 33.5589 21.8679 33.587 21.5576 33.8147C21.0627 34.1766 20.5175 34.4732 19.9365 34.6955C19.5721 34.8343 19.3333 35.1672 19.3333 35.5364V36.9741H15.4667V35.5345C15.4667 35.1653 15.2279 34.8324 14.8635 34.6937ZM4.83333 9.76099H19.6659L20.2575 10.3161C19.6707 11.284 19.2135 12.3163 18.8964 13.3894H16.4333C15.8997 13.3894 15.4667 13.7958 15.4667 14.2965V18.832H14.5C13.9664 18.832 13.5333 19.2384 13.5333 19.7391V21.5007C13.2076 21.6531 12.8924 21.8246 12.5899 22.0142L10.962 21.1324C10.4999 20.8821 9.90833 21.0308 9.64153 21.4644L6.74153 26.1814C6.47473 26.615 6.63326 27.1701 7.09533 27.4205L8.7203 28.3013C8.70676 28.4827 8.7 28.6478 8.7 28.8138C8.7 28.9798 8.70676 29.1485 8.7203 29.3263L7.09533 30.2071C6.63616 30.4575 6.4786 31.0081 6.74153 31.4408L9.64153 36.1577C9.90833 36.5913 10.4999 36.7401 10.962 36.4897L12.5899 35.608C12.8924 35.7976 13.2076 35.969 13.5333 36.1214V37.8812C13.5333 38.3819 13.9664 38.7883 14.5 38.7883H20.3C20.8336 38.7883 21.2667 38.3819 21.2667 37.8812V36.1196C21.5924 35.9672 21.9076 35.7958 22.2101 35.6062L23.838 36.4879C24.3001 36.7383 24.8917 36.5895 25.1585 36.1559L28.0585 31.439C28.3253 31.0054 28.1667 30.4502 27.7047 30.1999L26.0797 29.3191C26.0874 29.2193 26.0874 29.1268 26.0913 29.0306C27.0154 29.495 27.9908 29.8624 29 30.1273V32.4386C29 32.9393 29.4331 33.3457 29.9667 33.3457H35.7667C36.3003 33.3457 36.7333 32.9393 36.7333 32.4386V30.1273C37.8769 29.8298 38.976 29.4007 40.0074 28.8501L41.7474 30.4883C42.1312 30.8285 42.7305 30.8285 43.1143 30.4883L47.2159 26.6386C47.5929 26.2839 47.5929 25.7106 47.2159 25.3559L45.4759 23.7231C46.0636 22.7543 46.5208 21.7203 46.8369 20.6462H49.3C49.8336 20.6462 50.2667 20.2399 50.2667 19.7391V14.2965C50.2667 13.7958 49.8336 13.3894 49.3 13.3894H46.8369C46.5199 12.3163 46.0626 11.284 45.4759 10.3161L46.0675 9.76099H53.1667C54.7684 9.76099 56.0667 10.9792 56.0667 12.4823V40.6025H1.93333V12.4823C1.93333 10.9792 3.23157 9.76099 4.83333 9.76099ZM33.5617 53.302H24.4383L25.8883 47.8594H32.1117L33.5617 53.302ZM53.1667 46.0452H4.83333C3.23157 46.0452 1.93333 44.8269 1.93333 43.3239V42.4167H56.0667V43.3239C56.0667 44.8269 54.7684 46.0452 53.1667 46.0452ZM32.8667 11.5752C36.0702 11.5752 38.6667 14.0117 38.6667 17.0178C38.6667 20.024 36.0702 22.4604 32.8667 22.4604C29.6631 22.4604 27.0667 20.024 27.0667 17.0178C27.0696 14.0135 29.6651 11.5779 32.8667 11.5752ZM32.8667 24.2747C37.1374 24.2747 40.6 21.0254 40.6 17.0178C40.6 13.0102 37.1374 9.76099 32.8667 9.76099C28.5959 9.76099 25.1333 13.0102 25.1333 17.0178C25.1382 21.0236 28.5979 24.2701 32.8667 24.2747ZM22.1599 9.53602L20.5629 8.03749L23.2967 5.47129L24.8926 6.97073C25.2145 7.2737 25.7172 7.32451 26.1 7.0932C27.346 6.3403 28.7255 5.80239 30.1735 5.50395C30.6172 5.41233 30.9333 5.04404 30.9333 4.61771V2.50415H34.8V4.61771C34.8 5.04404 35.1161 5.41233 35.5598 5.50395C37.0079 5.80239 38.3873 6.3403 39.6333 7.0932C40.0161 7.3236 40.5188 7.2728 40.8397 6.97073L42.4367 5.47129L45.1714 8.03839L43.5744 9.53602C43.2525 9.83718 43.1974 10.3089 43.443 10.6681C44.2463 11.8373 44.8195 13.1327 45.1366 14.4915C45.2342 14.9079 45.6267 15.2036 46.081 15.2036H48.3333V18.832H46.081C45.6267 18.832 45.2342 19.1287 45.1366 19.545C44.8195 20.9039 44.2453 22.1983 43.443 23.3676C43.1974 23.7268 43.2525 24.1975 43.5735 24.4987L45.1704 25.9982L42.4367 28.5644L40.8407 27.0649C40.5188 26.7619 40.0161 26.7111 39.6333 26.9424C38.3873 27.6953 37.0079 28.2333 35.5598 28.5317C35.1161 28.6233 34.8 28.9916 34.8 29.4179V31.5315H30.9333V29.4179C30.9333 28.9916 30.6172 28.6233 30.1735 28.5317C29.2011 28.3285 28.2576 28.0165 27.3644 27.601L27.7047 27.4196C28.1667 27.1692 28.3253 26.6141 28.0585 26.1805L25.1585 21.4635C24.8917 21.0299 24.3001 20.8812 23.838 21.1315L22.2101 22.0133C21.9076 21.8237 21.5924 21.6531 21.2667 21.5007V19.7391C21.2667 19.2384 20.8336 18.832 20.3 18.832H17.4V15.2036H19.6523C20.1067 15.2036 20.4991 14.907 20.5968 14.4906C20.9138 13.1318 21.488 11.8373 22.2904 10.6681C22.5359 10.3089 22.4818 9.83718 22.1599 9.53602ZM53.1667 7.94678H47.4846C47.4672 7.74086 47.3734 7.54583 47.2207 7.39707L43.1191 3.54732C42.7354 3.20715 42.136 3.20715 41.7523 3.54732L40.0123 5.18555C38.9799 4.63493 37.8779 4.20588 36.7333 3.90835V1.59705C36.7333 1.09632 36.3003 0.689941 35.7667 0.689941H29.9667C29.4331 0.689941 29 1.09632 29 1.59705V3.90835C27.8564 4.20588 26.7573 4.63493 25.7259 5.18555L23.9859 3.54732C23.6021 3.20715 23.0028 3.20715 22.619 3.54732L18.5126 7.39707C18.3599 7.54583 18.2661 7.74086 18.2487 7.94678H4.83333C2.16533 7.9495 0.0029 9.97869 0 12.4823V43.3239C0.0029 45.8275 2.16533 47.8567 4.83333 47.8594H23.895L22.2623 53.9896C22.1908 54.2608 22.2556 54.5475 22.4383 54.7679C22.6219 54.9874 22.9023 55.1162 23.2 55.1162H34.8C35.0977 55.1162 35.3781 54.9874 35.5617 54.7679C35.7444 54.5475 35.8092 54.2608 35.7377 53.9896L34.105 47.8594H53.1667C55.8347 47.8567 57.9971 45.8275 58 43.3239V12.4823C57.9971 9.97869 55.8347 7.9495 53.1667 7.94678ZM14.5 28.8102C14.5 27.3071 15.7982 26.0889 17.4 26.0889C19.0018 26.0889 20.3 27.3071 20.3 28.8102C20.3 30.3133 19.0018 31.5315 17.4 31.5315C15.7982 31.5315 14.5 30.3133 14.5 28.8102ZM22.2333 28.8102C22.2333 26.3057 20.069 24.2747 17.4 24.2747C14.731 24.2747 12.5667 26.3057 12.5667 28.8102C12.5667 31.3147 14.731 33.3457 17.4 33.3457C20.068 33.343 22.2304 31.3138 22.2333 28.8102Z" fill="url(#paint0_linear)"/>
<defs>
<linearGradient id="paint0_linear" x1="3" y1="4.44348" x2="41.7271" y2="57.5049" gradientUnits="userSpaceOnUse">
<stop stop-color="#6C63FF"/>
<stop offset="1" stop-color="#682FA0"/>
</linearGradient>
</defs>
</svg>
