<svg width="201" height="17" viewBox="0 0 201 17" fill="none" xmlns="http://www.w3.org/2000/svg">
<path d="M3 11.8871L11.8687 5.25538C17.2972 1.19609 24.9584 2.12454 29.2602 7.36303L29.9576 8.21226C34.585 13.8473 43.1733 13.9531 47.9381 8.43376V8.43376C52.6642 2.9593 61.1749 3.02149 65.8339 8.55316V8.55316C70.4654 14.0522 78.9092 14.1643 83.672 8.77855L84.44 7.91012C88.9951 2.75938 97.1088 3.01202 101.335 8.43616V8.43616C105.593 13.9024 113.787 14.1086 118.316 8.86343L118.815 8.2844C123.453 2.91232 131.812 3.0153 136.316 8.5V8.5C140.82 13.9847 149.18 14.0877 153.817 8.7156L154.061 8.43376C158.787 2.9593 167.289 3.01112 171.948 8.54279L172.711 9.44947C177.182 14.7578 185.075 15.5213 190.48 11.1684L198 5.1129" stroke="#8E44AD" stroke-width="5" stroke-linecap="round" stroke-linejoin="round"/>
</svg>
