<svg width="155" height="9" viewBox="0 0 155 9" fill="none" xmlns="http://www.w3.org/2000/svg">
<path d="M2 6.4L3.40622 4.59706C5.31545 2.14919 8.93233 1.9139 11.1426 4.09378L11.4262 4.37345C13.4144 6.33433 16.6564 6.18978 18.4747 4.0704V4.0704C20.3338 1.90357 23.6716 1.82133 25.6226 3.90579L26.1471 4.46623C27.8841 6.32206 30.868 6.18781 32.4313 4.18349L32.5744 4C34.1585 1.96902 37.23 1.96902 38.814 4V4C40.3981 6.03098 43.4696 6.03098 45.0537 4L45.1352 3.89548C46.6779 1.91757 49.6968 1.95299 51.2395 3.9309V3.9309C52.8038 5.9365 55.89 5.89618 57.3514 3.81438V3.81438C58.7319 1.84775 61.5716 1.64824 63.2135 3.40252L64.2091 4.46623C65.9461 6.32206 68.93 6.18781 70.4933 4.18349L70.6364 4C72.2204 1.96902 75.2919 1.96902 76.876 4V4C78.4601 6.03098 81.5316 6.03098 83.1157 4V4C84.6998 1.96902 87.7713 1.96902 89.3554 4L89.43 4.09574C91.0043 6.11411 94.0325 6.18482 95.6993 4.24214L95.9632 3.93456C97.7083 1.90053 100.879 1.97457 102.527 4.08784V4.08784C104.13 6.14239 107.188 6.28001 108.969 4.37767L109.721 3.57386C111.506 1.66655 114.552 1.7324 116.253 3.71509L116.677 4.2086C118.326 6.13087 121.345 5.98427 122.8 3.91125V3.91125C124.215 1.89467 127.127 1.6901 128.811 3.48893L129.595 4.32709C131.43 6.28726 134.574 6.20393 136.322 4.1663V4.1663C138.163 2.02126 141.521 2.08232 143.259 4.31093V4.31093C144.827 6.32103 147.755 6.61653 149.693 4.9602L153 2.13333" stroke="#B57DCD" stroke-width="4"/>
</svg>
